<?xml version="1.0" encoding="utf-8"?>
<!-- Generator: Adobe Illustrator 16.0.0, SVG Export Plug-In . SVG Version: 6.00 Build 0)  -->
<!DOCTYPE svg PUBLIC "-//W3C//DTD SVG 1.1//EN" "http://www.w3.org/Graphics/SVG/1.1/DTD/svg11.dtd">
<svg version="1.1" id="Layer_1" xmlns="http://www.w3.org/2000/svg" xmlns:xlink="http://www.w3.org/1999/xlink" x="0px" y="0px"
	 width="28.802px" height="30.267px" viewBox="0 0 28.802 30.267" enable-background="new 0 0 28.802 30.267" xml:space="preserve">
<g>
	<defs>
		<rect id="SVGID_1_" y="0" width="28.802" height="30.267"/>
	</defs>
	<clipPath id="SVGID_2_">
		<use xlink:href="#SVGID_1_"  overflow="visible"/>
	</clipPath>
	<path clip-path="url(#SVGID_2_)" fill="#FCEA00" d="M8.958,17.364c-0.162,0.175-0.424,0.231-0.65,0.124
		c-2.267-1.067-4.436-2.368-6.448-3.863c-0.201-0.149-0.279-0.414-0.19-0.649c0.088-0.234,0.322-0.382,0.571-0.36
		c1.479,0.124,2.935,0.405,4.349,0.837c-1.308-1.716-2.647-3.425-3.992-5.1C1.783,7.343,1.091,6.516,0.226,5.871
		c-0.21-0.157-0.285-0.44-0.177-0.679c0.108-0.24,0.368-0.374,0.626-0.32c2.302,0.474,4.267,1.88,6.002,3.119l3.578,2.556
		C9.694,9.135,9.317,7.641,9.147,6.143c-0.023-0.209,0.072-0.414,0.247-0.53c0.174-0.116,0.4-0.126,0.584-0.023
		c0.612,0.338,1.047,0.845,1.469,1.337c0.08,0.092,0.16,0.186,0.241,0.278c0.534,0.601,1.14,1.154,1.762,1.682
		c0.004-2.825,0.269-5.655,0.792-8.429c0.058-0.304,0.351-0.505,0.655-0.447c0.305,0.057,0.505,0.35,0.447,0.655
		c-0.584,3.096-0.838,6.263-0.758,9.414c0.006,0.22-0.117,0.422-0.314,0.518c-0.197,0.097-0.433,0.07-0.603-0.07
		c-0.966-0.792-1.964-1.611-2.821-2.579c-0.085-0.096-0.169-0.193-0.253-0.292l-0.079-0.091c0.333,1.544,0.896,3.048,1.66,4.419
		c0.127,0.23,0.078,0.517-0.117,0.692c-0.196,0.174-0.487,0.19-0.7,0.038L6.025,8.904C5.03,8.192,3.955,7.426,2.803,6.834
		C3.042,7.117,3.265,7.394,3.472,7.65c1.745,2.17,3.475,4.399,5.145,6.623c0.152,0.201,0.15,0.48-0.004,0.679
		c-0.153,0.199-0.423,0.272-0.657,0.177c-1.132-0.462-2.3-0.816-3.492-1.061c1.386,0.898,2.833,1.702,4.322,2.405
		c0.28,0.132,0.401,0.467,0.269,0.747C9.029,17.274,8.996,17.322,8.958,17.364"/>
	<path clip-path="url(#SVGID_2_)" fill="#FCEA00" d="M10.596,26.662c-0.08,0.086-0.187,0.147-0.31,0.17
		c-0.27,0.05-0.537-0.104-0.629-0.363c-0.299-0.842-0.514-1.705-0.642-2.583c-0.29,0.324-0.606,0.627-0.916,0.923
		c-0.132,0.127-0.263,0.252-0.392,0.379c-0.824,0.813-1.58,1.74-2.309,2.634c-0.618,0.758-1.257,1.537-1.948,2.271
		c-0.179,0.188-0.466,0.229-0.692,0.097c-0.225-0.131-0.329-0.402-0.25-0.651c0.996-3.174,2.143-6.345,3.405-9.423
		c0.119-0.287,0.446-0.424,0.733-0.306c0.287,0.118,0.424,0.446,0.305,0.731c-0.896,2.186-1.733,4.418-2.499,6.665
		c0.025-0.03,0.051-0.062,0.076-0.093c0.749-0.918,1.524-1.867,2.391-2.723c0.133-0.131,0.269-0.262,0.405-0.392
		c0.659-0.631,1.282-1.228,1.598-1.979c0.103-0.244,0.362-0.383,0.622-0.334c0.26,0.049,0.45,0.273,0.456,0.539
		c0.018,0.774,0.108,1.543,0.269,2.297c0.575-0.996,1.193-1.979,1.84-2.927c0.173-0.255,0.523-0.323,0.779-0.148
		c0.256,0.174,0.322,0.524,0.147,0.779c-0.682,1.003-1.334,2.046-1.934,3.102c-0.191,0.333-0.359,0.656-0.355,0.942
		C10.749,26.42,10.693,26.559,10.596,26.662"/>
	<path clip-path="url(#SVGID_2_)" fill="#FCEA00" d="M28.435,23.639c-0.105,0.113-0.255,0.181-0.413,0.18
		c-1.079-0.007-2.075-0.4-3.085-0.838c-1.378-0.6-2.754-1.237-4.109-1.904l0.603,0.963c0.12,0.193,0.111,0.438-0.02,0.624
		c-0.134,0.184-0.364,0.271-0.586,0.22c-1.186-0.28-2.317-0.821-3.29-1.562l1.518,5.328c0.085,0.298-0.088,0.607-0.387,0.692
		c-0.297,0.085-0.607-0.088-0.692-0.386l-1.645-5.771c-0.096-0.338-0.274-0.966,0.039-1.515c0.088-0.154,0.246-0.258,0.422-0.278
		c0.179-0.021,0.355,0.045,0.477,0.177c0.665,0.717,1.479,1.303,2.37,1.719l-0.827-1.322c-0.134-0.215-0.108-0.492,0.062-0.678
		c0-0.001,0.001-0.002,0.002-0.002c0.172-0.185,0.446-0.232,0.67-0.116c1.906,0.991,3.87,1.926,5.841,2.782
		c0.309,0.133,0.608,0.26,0.901,0.37c-1.863-1.521-3.464-3.333-5.012-5.087c-0.205-0.232-0.185-0.586,0.049-0.792
		c0.232-0.205,0.587-0.184,0.792,0.05c1.53,1.732,3.113,3.525,4.924,4.995l0.138,0.109c0.484,0.391,0.984,0.792,1.33,1.372
		c0.104,0.174,0.105,0.392,0.006,0.566C28.489,23.573,28.464,23.608,28.435,23.639"/>
	<path clip-path="url(#SVGID_2_)" fill="#FCEA00" d="M25.068,12.479c-0.085,0.092-0.202,0.156-0.336,0.174
		c-0.955,0.128-1.877,0.409-2.741,0.835c-0.238,0.117-0.526,0.053-0.689-0.156c-0.164-0.208-0.159-0.504,0.011-0.707
		c1.488-1.78,3.087-3.488,4.688-5.147c-0.552,0.314-1.096,0.671-1.653,1.037c-0.415,0.273-0.845,0.555-1.277,0.817
		c-0.137,0.083-0.274,0.164-0.412,0.246c-0.559,0.329-1.086,0.639-1.528,1.044c-0.344,0.312-0.638,0.683-0.949,1.076
		c-0.145,0.178-0.383,0.256-0.603,0.188c-0.221-0.067-0.378-0.261-0.396-0.492l-0.46-5.757c-0.024-0.308,0.206-0.579,0.515-0.603
		c0.309-0.025,0.579,0.205,0.604,0.514l0.354,4.415c0.059-0.057,0.118-0.115,0.18-0.171c0.528-0.482,1.132-0.837,1.715-1.181
		c0.134-0.079,0.268-0.158,0.401-0.239c0.415-0.251,0.836-0.528,1.242-0.794c1.353-0.889,2.752-1.806,4.397-2.149
		c0.241-0.051,0.487,0.063,0.606,0.279c0.118,0.217,0.075,0.487-0.091,0.662c-1.693,1.734-3.433,3.514-5.076,5.36
		c0.334-0.08,0.673-0.144,1.016-0.189c0.307-0.041,0.589,0.174,0.63,0.481C25.237,12.195,25.179,12.361,25.068,12.479"/>
</g>
</svg>
