<?xml version="1.0" encoding="utf-8"?>
<!-- Generator: Adobe Illustrator 16.0.0, SVG Export Plug-In . SVG Version: 6.00 Build 0)  -->
<!DOCTYPE svg PUBLIC "-//W3C//DTD SVG 1.1//EN" "http://www.w3.org/Graphics/SVG/1.1/DTD/svg11.dtd">
<svg version="1.1" id="Layer_1" xmlns="http://www.w3.org/2000/svg" xmlns:xlink="http://www.w3.org/1999/xlink" x="0px" y="0px"
	 width="74.301px" height="42.5px" viewBox="0 0 74.301 42.5" enable-background="new 0 0 74.301 42.5" xml:space="preserve">
<polygon fill="#5DBA93" points="18.503,41.376 74.301,1.101 0.517,17.946 "/>
<g>
	<defs>
		
			<rect id="SVGID_1_" x="25.663" y="-18.756" transform="matrix(0.3026 0.9531 -0.9531 0.3026 46.2413 -25.2907)" width="29.481" height="75.422"/>
	</defs>
	<clipPath id="SVGID_2_">
		<use xlink:href="#SVGID_1_"  overflow="visible"/>
	</clipPath>
	<path clip-path="url(#SVGID_2_)" fill="#010202" d="M24.668,35.835c-1.429,0.633-2.913,1.268-4.093,1.79
		c-0.502,0.223-1.043,0.263-1.549,0.156c-0.509-0.104-0.992-0.34-1.452-0.655c-0.918-0.632-1.773-1.589-2.562-2.655
		c-1.571-2.132-2.853-4.702-3.417-5.955v-0.001c-0.034-0.076-0.07-0.156-0.105-0.238c-0.486-1.099-1.058-2.519-1.499-3.999
		c-0.438-1.479-0.748-3.015-0.683-4.379c0.046-0.906,0.262-1.757,0.783-2.436c0.296-0.383,0.692-0.699,1.175-0.912l0.014-0.006
		l0.003-0.001c0.204-0.091,0.694-0.32,1.341-0.625c0.65-0.306,1.46-0.688,2.327-1.097c1.731-0.816,3.674-1.725,4.962-2.294
		c0.414-0.185,1.143-0.535,2.073-0.989c0.931-0.456,2.066-1.019,3.312-1.626c2.489-1.222,5.42-2.635,8.048-3.798
		c1.212-0.536,2.362-1.02,3.377-1.404c1.015-0.389,1.891-0.677,2.589-0.828c0.656-0.141,1.33-0.251,2.017-0.259
		s1.392,0.089,2.085,0.367c0.588,0.235,1.07,0.592,1.508,0.938c0.439,0.346,0.841,0.688,1.242,0.933
		c0.396,0.241,0.759,0.483,1.103,0.669c0.348,0.188,0.672,0.317,0.996,0.361c0.217,0.033,0.437,0.029,0.684-0.022
		c0.128-0.026,0.367-0.089,0.674-0.173c0.306-0.087,0.685-0.197,1.112-0.326c0.855-0.253,1.908-0.577,2.998-0.915
		c2.039-0.633,4.2-1.312,5.449-1.687c0.031-0.217,0.107-0.429,0.222-0.617c0.208-0.351,0.536-0.629,0.94-0.808
		c0.116-0.051,0.238-0.095,0.364-0.127c0.745-0.202,1.354-0.333,1.749-0.51c0.169-0.074,0.3-0.154,0.398-0.244l0,0l0,0
		c0.131-0.113,0.27-0.208,0.422-0.275c0.203-0.091,0.427-0.128,0.638-0.112c0.212,0.018,0.407,0.085,0.582,0.175
		c0.345,0.187,0.618,0.464,0.868,0.778c0.492,0.633,0.895,1.447,1.207,2.154c0.133,0.298,0.248,0.576,0.342,0.81
		c0.096,0.23,0.168,0.421,0.214,0.526c0.181,0.415,0.323,0.877,0.404,1.342c0.08,0.469,0.103,0.935,0.01,1.379
		c-0.062,0.294-0.185,0.586-0.403,0.828c-0.124,0.135-0.282,0.254-0.461,0.332c-0.128,0.056-0.266,0.095-0.409,0.114
		c-0.319,0.043-0.614,0.14-0.91,0.27c-0.473,0.207-0.942,0.514-1.483,0.816l-0.001,0.002c-0.074,0.038-0.148,0.074-0.224,0.108
		c-0.324,0.145-0.668,0.209-1.003,0.15c-0.263-0.045-0.497-0.168-0.696-0.327c-0.057,0.021-0.125,0.049-0.201,0.085
		c-0.561,0.246-1.516,0.788-2.622,1.435c-1.113,0.654-2.388,1.417-3.642,2.129c-1,0.569-1.897,1.311-2.547,2.168
		c-0.651,0.855-1.055,1.819-1.101,2.87c-0.038,0.844-0.132,1.538-0.343,2.172c-0.208,0.633-0.539,1.191-0.997,1.73
		c-0.307,0.357-0.669,0.713-1.099,1.097c-0.09,0.077-0.18,0.14-0.287,0.211c-0.109,0.07-0.233,0.143-0.373,0.221
		c-0.281,0.158-0.627,0.341-1.029,0.538c-0.798,0.397-1.805,0.87-2.863,1.358c-2.115,0.977-4.448,2.027-5.695,2.659
		c-1.665,0.848-3.364,1.619-5.064,2.371c-1.042,0.46-2.084,0.913-3.121,1.371c-1.242,0.549-2.475,1.106-3.689,1.691
		C26.494,35.019,25.592,35.427,24.668,35.835 M64.202,2.409c0.221,1.027,0.592,2.131,1.068,3.207
		c0.257,0.58,0.543,1.151,0.854,1.702c0.007,0.016,0.016,0.033,0.022,0.047c0.116,0.261,0.016,0.572-0.236,0.714
		c-0.271,0.151-0.61,0.056-0.762-0.212c-0.328-0.583-0.629-1.186-0.9-1.798c-0.505-1.143-0.902-2.317-1.141-3.435
		C63.04,2.669,62.976,2.7,62.907,2.73c-0.57,0.248-1.199,0.369-1.905,0.565c-0.076,0.021-0.146,0.044-0.206,0.072
		c-0.22,0.097-0.359,0.23-0.436,0.356c-0.074,0.129-0.092,0.247-0.067,0.374c0.22,1.035,0.594,2.153,1.077,3.242
		c0.3,0.681,0.643,1.349,1.014,1.984c0.112,0.192,0.224,0.312,0.307,0.37c0.086,0.059,0.137,0.072,0.234,0.071
		c0.065-0.004,0.155-0.022,0.273-0.075c0.04-0.017,0.085-0.04,0.129-0.065c0.5-0.277,0.995-0.605,1.579-0.862
		c0.364-0.163,0.765-0.294,1.21-0.356c0.047-0.006,0.082-0.016,0.108-0.027c0.036-0.017,0.06-0.037,0.089-0.065
		c0.027-0.028,0.057-0.071,0.082-0.134c0.053-0.126,0.09-0.331,0.088-0.576c-0.002-0.496-0.16-1.135-0.381-1.641
		c-0.058-0.135-0.131-0.322-0.225-0.551c-0.092-0.227-0.202-0.492-0.326-0.775c-0.17-0.385-0.367-0.797-0.58-1.17
		c-0.211-0.377-0.442-0.715-0.653-0.943C64.277,2.481,64.238,2.443,64.202,2.409 M24.216,34.814c0.918-0.405,1.81-0.81,2.576-1.181
		c1.232-0.593,2.477-1.154,3.722-1.705c1.042-0.459,2.085-0.914,3.121-1.372c1.695-0.75,3.374-1.513,5.012-2.344
		c1.062-0.539,2.816-1.338,4.58-2.146c1.761-0.809,3.536-1.627,4.587-2.182c0.301-0.157,0.54-0.295,0.693-0.391
		c0.081-0.053,0.137-0.095,0.149-0.108c0.61-0.544,1.036-0.995,1.33-1.433c0.296-0.44,0.472-0.87,0.589-1.438
		c0.076-0.38,0.122-0.817,0.146-1.345c0.059-1.31,0.564-2.494,1.324-3.493c0.764-1.004,1.775-1.832,2.888-2.463
		c1.24-0.705,2.509-1.466,3.626-2.121c1.1-0.644,2.043-1.184,2.701-1.479c-0.33-0.588-0.638-1.201-0.914-1.82
		c-0.424-0.962-0.771-1.945-1.016-2.9c-1.08,0.324-2.759,0.849-4.445,1.375c-1.925,0.599-3.858,1.196-4.965,1.504
		c-0.317,0.09-0.563,0.154-0.742,0.191c-0.373,0.08-0.738,0.086-1.075,0.038c-0.339-0.05-0.651-0.151-0.942-0.279
		c-0.584-0.255-1.085-0.606-1.578-0.908c-0.507-0.31-0.937-0.683-1.352-1.009c-0.416-0.328-0.814-0.611-1.232-0.776
		c-0.533-0.215-1.08-0.294-1.656-0.287c-0.574,0.005-1.175,0.102-1.796,0.235c-0.594,0.127-1.44,0.401-2.425,0.777
		C36.134,6.129,35,6.605,33.797,7.137c-3.903,1.729-8.521,4.032-11.321,5.404c-0.934,0.457-1.664,0.81-2.111,1.008
		c-1.902,0.841-5.314,2.463-7.264,3.38c-0.65,0.308-1.134,0.533-1.362,0.634l-0.004,0.001l-0.007,0.004l-0.01,0.005
		c-0.321,0.143-0.556,0.333-0.743,0.576c-0.188,0.242-0.328,0.543-0.423,0.905c-0.187,0.722-0.174,1.677-0.005,2.709
		c0.327,2.06,1.234,4.411,1.953,6.037c0.003,0.009,0.006,0.018,0.01,0.025c0.036,0.078,0.069,0.158,0.105,0.234l-0.001-0.001
		c0.308,0.687,0.857,1.815,1.554,3.033c0.691,1.219,1.537,2.526,2.416,3.574c0.589,0.697,1.195,1.273,1.761,1.629
		c0.32,0.205,0.628,0.336,0.903,0.392c0.317,0.062,0.589,0.04,0.874-0.085C21.311,36.077,22.795,35.443,24.216,34.814"/>
	<path clip-path="url(#SVGID_2_)" fill="#010202" d="M26.429,32.945c-0.069,0.04-0.147,0.068-0.234,0.076
		c-0.304,0.023-0.559-0.056-0.804-0.161s-0.477-0.246-0.7-0.397c-0.443-0.308-0.833-0.658-1.071-0.913
		c-1.257-1.367-2.236-2.965-3.017-4.73L20.59,26.79c-0.69-1.568-1.374-3.143-1.859-4.827s-0.768-3.484-0.648-5.481
		c0.015-0.172,0.074-0.26,0.115-0.323c0.045-0.066,0.086-0.108,0.125-0.148c0.084-0.079,0.167-0.142,0.264-0.21
		c0.192-0.134,0.435-0.281,0.702-0.434c0.535-0.304,1.177-0.634,1.651-0.874c0.316-0.158,0.563-0.28,0.638-0.318
		c1.245-0.639,2.515-1.123,3.69-1.722c2.397-1.219,5.078-2.437,7.12-3.5c0.175-0.092,0.382-0.082,0.546,0.021
		c0.092,0.059,0.166,0.144,0.208,0.24c0.034,0.075,0.05,0.158,0.047,0.242c-0.02,0.551,0.015,1.028,0.091,1.521
		c0.072,0.491,0.186,0.997,0.31,1.587c0.264,1.238,0.757,2.586,1.333,3.883c0,0.002,0,0.005,0,0.007
		c0.386,0.87,0.805,1.714,1.211,2.496c0.595,1.143,1.258,2.37,2.012,3.5c0.75,1.134,1.594,2.164,2.532,2.924
		c0.064,0.054,0.118,0.123,0.152,0.202c0.011,0.027,0.024,0.056,0.038,0.105c0.011,0.052,0.037,0.127,0.009,0.273
		c-0.019,0.096-0.085,0.225-0.176,0.303c-0.052,0.043-0.101,0.072-0.142,0.091c-0.012,0.004-0.022,0.009-0.032,0.013
		c-0.012,0.008-0.022,0.013-0.035,0.018c-0.826,0.366-2.867,1.283-4.884,2.2c-2.013,0.914-4.015,1.834-4.745,2.193
		c-1.503,0.731-3.02,1.275-4.291,2.106C26.525,32.907,26.48,32.929,26.429,32.945 M25.743,30.857
		c0.051,0.112,0.137,0.207,0.254,0.268c0.27,0.136,0.597,0.025,0.734-0.242c0.031-0.07,0.142-0.217,0.3-0.374
		c0.235-0.241,0.57-0.518,0.904-0.781c0.333-0.262,0.665-0.508,0.915-0.716c0.706-0.582,1.451-1.138,2.197-1.712
		c0.224-0.021,0.443-0.043,0.667-0.067c0.688-0.069,1.577-0.06,2.479-0.107c0.902-0.05,1.827-0.151,2.638-0.506
		c0.034-0.015,0.064-0.029,0.092-0.042l0.015-0.007l0.015-0.009l0.027-0.014c0.01-0.006,0.02-0.011,0.052-0.032
		c0.016-0.013,0.037-0.025,0.081-0.073c0.023-0.025,0.054-0.06,0.092-0.143c0.018-0.039,0.039-0.095,0.044-0.172
		c0.011-0.076,0.002-0.179-0.041-0.271c0,0-0.001-0.001-0.001-0.002l-0.001-0.002c-0.061-0.137-0.167-0.224-0.243-0.26
		c-0.078-0.04-0.131-0.052-0.172-0.059c-0.077-0.01-0.112-0.005-0.138-0.003c-0.051,0.007-0.066,0.011-0.08,0.014l-0.039,0.013
		l-0.03,0.011l-0.053,0.021l-0.064,0.028l-0.042,0.021l-0.022,0.01c-0.581,0.242-1.366,0.346-2.189,0.386
		c-0.518,0.027-1.051,0.033-1.563,0.054c0.135-0.115,0.267-0.229,0.402-0.345c0.208-0.188,0.77-0.673,1.273-1.195
		c0.252-0.263,0.493-0.535,0.681-0.805c0.093-0.138,0.174-0.275,0.238-0.427c0.057-0.15,0.109-0.325,0.071-0.559
		c-0.008-0.041-0.02-0.081-0.037-0.121c-0.099-0.226-0.345-0.361-0.598-0.313c-0.277,0.048-0.465,0.302-0.447,0.574
		c-0.005,0.021-0.024,0.06-0.051,0.108c-0.071,0.122-0.207,0.301-0.367,0.484c-0.247,0.281-0.554,0.583-0.833,0.843
		c-0.278,0.26-0.523,0.474-0.653,0.588c-0.518,0.458-1.064,0.894-1.62,1.322c-0.979,0.095-1.954,0.177-2.928,0.225
		c-1.218,0.061-2.417,0.296-3.495,0.286c-0.302-0.003-0.546,0.239-0.55,0.543c0,0.078,0.016,0.155,0.045,0.224
		c0.085,0.188,0.276,0.322,0.497,0.325c1.229,0.007,2.449-0.237,3.556-0.285c0.423-0.024,0.842-0.048,1.264-0.082
		c-0.291,0.228-0.58,0.456-0.864,0.691c-0.289,0.238-0.78,0.599-1.244,0.979c-0.231,0.193-0.46,0.392-0.66,0.593
		c-0.197,0.203-0.372,0.405-0.498,0.649C25.679,30.542,25.68,30.713,25.743,30.857 M23.813,24.874
		c-0.429,0.354-0.855,0.727-1.138,1.205c-0.089,0.157-0.092,0.34-0.023,0.494c0.043,0.103,0.123,0.192,0.227,0.253
		c0.261,0.149,0.596,0.06,0.745-0.202c0.141-0.251,0.48-0.583,0.877-0.902c0.396-0.323,0.841-0.642,1.204-0.975
		c1.108-1.023,2.136-2.109,3.23-3.062c0.283-0.016,0.564-0.035,0.847-0.058c1.409-0.109,2.711-0.251,4.024-0.138
		c0.3,0.025,0.565-0.197,0.591-0.499c0.006-0.093-0.01-0.183-0.045-0.265c-0.079-0.177-0.247-0.307-0.453-0.325
		c-1.24-0.104-2.417-0.007-3.596,0.092c0.433-0.405,0.849-0.831,1.248-1.31c0.162-0.199,0.42-0.446,0.671-0.722
		c0.253-0.278,0.507-0.58,0.664-0.972c0.055-0.141,0.046-0.291-0.01-0.418c-0.058-0.128-0.162-0.233-0.302-0.289
		c-0.28-0.108-0.597,0.03-0.706,0.311c-0.058,0.159-0.23,0.393-0.452,0.633c-0.22,0.242-0.482,0.489-0.705,0.758
		c-0.65,0.778-1.366,1.426-2.175,2.104c-0.01,0.008-0.02,0.019-0.031,0.026c-1.304,0.069-2.623,0.098-3.955,0.181
		c-0.233,0.014-0.519,0.063-0.854,0.125c-0.496,0.089-1.084,0.205-1.563,0.271c-0.237,0.033-0.447,0.053-0.586,0.051
		c-0.046,0.001-0.084-0.002-0.107-0.004c-0.224-0.128-0.513-0.082-0.689,0.12c-0.137,0.164-0.165,0.39-0.082,0.576
		c0.033,0.072,0.081,0.138,0.143,0.194c0.104,0.084,0.196,0.122,0.28,0.149c0.155,0.046,0.285,0.054,0.426,0.057
		c0.245,0.002,0.513-0.027,0.804-0.067c0.437-0.06,0.913-0.151,1.339-0.229c0.21-0.041,0.409-0.076,0.577-0.104
		c0.166-0.027,0.303-0.045,0.381-0.05c0.864-0.054,1.737-0.083,2.611-0.118c-0.772,0.732-1.508,1.481-2.266,2.179
		C24.68,24.207,24.239,24.527,23.813,24.874 M25.57,17.148c1.187-0.114,2.389-0.216,3.586-0.368
		c0.462-0.057,0.989-0.085,1.529-0.137c0.541-0.048,1.098-0.119,1.63-0.278c0.29-0.091,0.453-0.395,0.364-0.684
		c-0.005-0.022-0.013-0.043-0.022-0.064c-0.111-0.246-0.391-0.379-0.658-0.3c-0.415,0.127-0.902,0.194-1.416,0.24
		c-0.512,0.048-1.047,0.075-1.566,0.142c-0.59,0.073-1.187,0.137-1.787,0.194c0.18-0.143,0.356-0.283,0.534-0.427
		c0.638-0.515,1.166-1.155,1.687-1.741c0.518-0.59,1.029-1.118,1.561-1.429c0.24-0.141,0.335-0.439,0.222-0.688
		c-0.007-0.021-0.017-0.038-0.031-0.057c-0.15-0.261-0.485-0.349-0.743-0.196c-0.723,0.427-1.293,1.042-1.828,1.644
		c-0.534,0.605-1.036,1.204-1.553,1.617c-0.637,0.513-1.263,1.009-1.907,1.475c-0.078,0.007-0.156,0.015-0.236,0.023
		c-1.512,0.155-3.062,0.455-4.462,0.446c-0.301-0.002-0.548,0.242-0.551,0.546c0.002,0.077,0.018,0.153,0.049,0.222
		c0.083,0.19,0.275,0.324,0.497,0.325c0.874,0.004,1.758-0.095,2.624-0.207c-0.4,0.241-0.801,0.487-1.195,0.75
		c-0.722,0.475-1.427,1.003-2.056,1.667c-0.156,0.164-0.191,0.401-0.103,0.596c0.027,0.066,0.068,0.125,0.122,0.177
		c0.218,0.208,0.564,0.198,0.771-0.021c0.548-0.577,1.182-1.056,1.865-1.508c0.687-0.453,1.421-0.875,2.16-1.343
		C24.968,17.562,25.272,17.357,25.57,17.148"/>
</g>
</svg>
