<?xml version="1.0" encoding="utf-8"?>
<!-- Generator: Adobe Illustrator 16.0.0, SVG Export Plug-In . SVG Version: 6.00 Build 0)  -->
<!DOCTYPE svg PUBLIC "-//W3C//DTD SVG 1.1//EN" "http://www.w3.org/Graphics/SVG/1.1/DTD/svg11.dtd">
<svg version="1.1" id="Layer_1" xmlns="http://www.w3.org/2000/svg" xmlns:xlink="http://www.w3.org/1999/xlink" x="0px" y="0px"
	 width="54.249px" height="87.422px" viewBox="0 0 54.249 87.422" enable-background="new 0 0 54.249 87.422" xml:space="preserve">
<polygon fill="#F9ED20" points="46.98,56.985 9.618,21.555 3.848,30.911 41.77,61.903 "/>
<polygon fill="#F9ED20" points="29.334,1.082 25.544,0 18.11,74.017 29.832,86.882 "/>
<g>
	<defs>
		
			<rect id="SVGID_1_" x="0.002" y="3.678" transform="matrix(0.9224 0.3861 -0.3861 0.9224 19.6916 -6.9414)" width="54.248" height="83.745"/>
	</defs>
	<clipPath id="SVGID_2_">
		<use xlink:href="#SVGID_1_"  overflow="visible"/>
	</clipPath>
	<path clip-path="url(#SVGID_2_)" fill="#56BF98" d="M31.046,80.74c-0.332,0.011-0.612-0.248-0.629-0.583
		c-0.073-1.426-0.015-2.624,0.048-3.896c0.064-1.318,0.131-2.683,0.063-4.475c-0.03-0.79-0.071-1.582-0.114-2.372
		c-0.103-1.965-0.213-3.997-0.127-6.018c0.059-1.391,0.045-2.775,0.031-4.117c-0.01-1.011-0.021-2.055,0.002-3.1
		c0.006-0.337,0.281-0.609,0.623-0.602c0.338,0.008,0.607,0.285,0.6,0.625c-0.018,1.028-0.008,2.062,0.003,3.062
		c0.013,1.358,0.026,2.761-0.032,4.185c-0.081,1.962,0.023,3.963,0.125,5.9c0.045,0.795,0.086,1.594,0.115,2.391
		c0.069,1.845,0.003,3.235-0.064,4.581c-0.061,1.24-0.117,2.406-0.048,3.774c0.019,0.337-0.241,0.627-0.58,0.646
		C31.056,80.74,31.052,80.739,31.046,80.74"/>
	<path clip-path="url(#SVGID_2_)" fill="#56BF98" d="M21.607,80.138c-0.01,0-0.021,0.002-0.029,0.001
		c-0.339-0.005-0.609-0.285-0.603-0.624c0.192-10.12,0.199-17.981,0.022-24.037c-0.036-1.263-0.096-2.53-0.154-3.755
		c-0.128-2.672-0.258-5.438-0.147-8.224c0.075-1.883-0.022-3.779-0.118-5.611c-0.109-2.132-0.224-4.334-0.068-6.549
		c0.314-4.527,0.304-8.446-0.027-11.646c-0.553-5.333-0.011-13.984,3.744-15.959c0.61-0.32,1.277-0.369,1.932-0.143
		c1.248,0.437,2.225,1.798,2.683,2.831c0.789,1.79,1.199,3.699,1.596,5.545c0.068,0.306,0.131,0.612,0.199,0.915
		c0.627,2.836,1.004,5.392,1.26,8.547c0.257,3.195-0.061,6.224-0.367,9.153c-0.217,2.062-0.439,4.197-0.455,6.357
		c-0.021,2.588,0.122,4.973,0.275,7.496c0.102,1.706,0.209,3.471,0.258,5.292c0.01,0.339-0.257,0.622-0.594,0.63h-0.001
		c-0.339,0.009-0.621-0.257-0.629-0.595c-0.052-1.802-0.156-3.558-0.259-5.253c-0.148-2.436-0.299-4.952-0.279-7.58
		c0.018-2.219,0.243-4.384,0.465-6.477c0.301-2.875,0.611-5.844,0.363-8.923c-0.252-3.098-0.619-5.606-1.234-8.383
		c-0.069-0.306-0.135-0.616-0.2-0.925c-0.383-1.784-0.78-3.629-1.521-5.302c-0.373-0.848-1.148-1.886-1.965-2.173
		c-0.332-0.115-0.646-0.093-0.955,0.071c-2.155,1.133-3.904,6.959-3.096,14.746c0.339,3.272,0.349,7.262,0.029,11.857
		c-0.149,2.142-0.036,4.307,0.071,6.401c0.096,1.861,0.195,3.785,0.117,5.723c-0.11,2.732,0.015,5.348,0.146,8.119
		c0.059,1.229,0.12,2.5,0.158,3.773c0.176,6.077,0.169,13.958-0.022,24.097C22.195,79.865,21.932,80.13,21.607,80.138"/>
	<path clip-path="url(#SVGID_2_)" fill="#56BF98" d="M28.539,61.928c-0.002-0.001-0.004-0.001-0.006-0.001
		c-0.336,0.009-0.617-0.261-0.623-0.599c-0.117-5.211,1.021-5.569,5.869-6.245c0.967-0.137,2.065-0.288,3.361-0.514
		c2.272-0.392,4.773-2.2,5.154-4.896c0.441-3.146,0.32-5.709,0.139-7.8c-0.335-3.897-0.567-11.513-0.591-12.369
		c-0.108-3.688-1.12-4.903-1.871-5.496c-0.483-0.385-0.954-0.453-1.438-0.22c-1.104,0.537-1.963,2.397-1.955,4.235
		c0.005,1.743,0.156,8.383,0.301,10.479c0.026,0.352,0.057,0.725,0.087,1.114c0.29,3.581,0.683,8.487-2.071,9.788
		c-1.08,0.512-3.789,1.582-5.611,0.48c-0.954-0.578-1.472-1.62-1.536-3.104c-0.015-0.339,0.247-0.627,0.587-0.64
		c0.328-0.002,0.623,0.249,0.639,0.587c0.045,1.046,0.363,1.756,0.945,2.106c1.072,0.648,3.004,0.147,4.453-0.537
		c1.986-0.939,1.617-5.54,1.372-8.583c-0.03-0.393-0.06-0.772-0.086-1.125c-0.149-2.163-0.302-8.758-0.308-10.562
		c-0.006-2.309,1.131-4.605,2.645-5.341c0.914-0.443,1.886-0.315,2.74,0.359c1.498,1.185,2.24,3.226,2.334,6.423
		c0.023,0.853,0.255,8.434,0.587,12.298c0.185,2.161,0.315,4.81-0.146,8.077c-0.463,3.273-3.449,5.463-6.16,5.934
		c-1.316,0.228-2.422,0.382-3.4,0.519c-4.539,0.634-4.91,0.687-4.814,5.004C29.141,61.638,28.875,61.917,28.539,61.928"/>
	<path clip-path="url(#SVGID_2_)" fill="#56BF98" d="M15.418,47.134c-2.491,0.07-4.456-1.418-4.931-3.852
		c-0.731-3.749-0.404-8.331-0.058-13.185l0.076-1.058c0.059-0.836,0.1-1.536,0.139-2.179c0.094-1.612,0.169-2.882,0.442-4.966
		c0.213-1.62,0.98-2.845,2.005-3.201c0.734-0.255,1.495-0.046,2.143,0.586c2.294,2.237,1.969,6.717,1.52,12.923l-0.036,0.5
		c-0.142,1.958-0.005,4.13,0.204,5.018c0.402,1.721,2.466,1.733,4.125,1.443c0.334-0.059,0.654,0.163,0.711,0.497
		c0.058,0.333-0.164,0.65-0.498,0.708c-3.084,0.542-5.049-0.299-5.534-2.369c-0.267-1.135-0.369-3.502-0.23-5.386l0.036-0.5
		c0.423-5.874,0.732-10.119-1.154-11.956c-0.306-0.3-0.604-0.403-0.884-0.306c-0.472,0.163-1.022,0.908-1.191,2.203
		c-0.269,2.04-0.341,3.291-0.434,4.877c-0.038,0.647-0.081,1.354-0.139,2.194l-0.076,1.058c-0.341,4.771-0.665,9.273,0.036,12.861
		c0.405,2.075,2.199,3.19,4.469,2.779c0.146-0.026,3.553-0.643,4.822-0.67c0.339-0.006,0.619,0.263,0.625,0.602
		c0.007,0.338-0.26,0.622-0.601,0.626c-0.958,0.024-3.668,0.474-4.626,0.648C16.052,47.09,15.73,47.123,15.418,47.134"/>
	<path clip-path="url(#SVGID_2_)" fill="#56BF98" d="M18.359,87.213c-0.28,0.009-0.54-0.178-0.611-0.462
		c-0.248-0.975-0.707-1.982-1.153-2.955c-0.506-1.108-1.03-2.256-1.257-3.388c-0.04-0.202,0.024-0.413,0.171-0.559
		c0.147-0.146,0.359-0.207,0.562-0.161c1.218,0.268,2.429,1.061,3.403,1.982c-0.022-0.093-0.043-0.184-0.067-0.277
		c-0.291-1.204-0.59-2.446-0.036-3.578c0.073-0.147,0.202-0.261,0.359-0.312c0.156-0.051,0.327-0.037,0.474,0.037
		c0.847,0.441,1.669,1.438,2.465,2.399c0.586,0.712,1.284,1.555,1.841,1.93c0.111-0.266,0.241-0.509,0.362-0.741
		c0.226-0.424,0.422-0.792,0.451-1.19c0.018-0.255,0.191-0.472,0.436-0.544c0.244-0.071,0.508,0.014,0.662,0.216
		c0.088,0.113,0.232,0.372,0.659,1.152c0.281,0.51,0.798,1.447,1.212,2.146c1.146-2.919,3.726-4.755,5.942-5.536
		c0.244-0.086,0.52-0.007,0.682,0.196c0.162,0.205,0.177,0.492,0.035,0.71c-0.629,0.989-1.176,2.265-1.664,3.432
		c2.331,0.07,5.131,0.215,6.926,1.69c0.221,0.181,0.289,0.492,0.159,0.749c-0.13,0.256-0.417,0.389-0.698,0.32
		c-1.806-0.457-4.19,0.74-5.93,1.616c-0.244,0.124-0.479,0.24-0.701,0.349c-0.303,0.146-0.671,0.023-0.82-0.281
		c-0.147-0.306-0.021-0.674,0.283-0.82c0.217-0.108,0.447-0.223,0.688-0.344c1.166-0.583,2.594-1.303,4.041-1.645
		c-1.363-0.33-2.931-0.377-4.291-0.415l-0.584-0.02c-0.201-0.006-0.387-0.114-0.494-0.282c-0.109-0.171-0.127-0.383-0.051-0.568
		l0.216-0.515c0.298-0.72,0.62-1.49,0.972-2.233c-1.424,0.85-3.279,2.428-3.891,5.09c-0.039,0.161-0.14,0.302-0.285,0.387
		c-0.146,0.088-0.319,0.109-0.48,0.062c-0.391-0.11-0.668-0.459-2.271-3.373c-0.039,0.08-0.08,0.154-0.119,0.229
		c-0.195,0.366-0.379,0.714-0.45,1.082c-0.061,0.308-0.346,0.522-0.66,0.495c-1.092-0.105-2.078-1.297-3.121-2.561
		c-0.481-0.583-0.973-1.179-1.433-1.604c-0.03,0.593,0.136,1.277,0.307,1.988c0.201,0.835,0.411,1.701,0.32,2.53
		c-0.027,0.255-0.21,0.466-0.459,0.526c-0.248,0.064-0.51-0.033-0.655-0.244c-0.667-0.968-1.792-2.041-2.946-2.638
		c0.232,0.647,0.537,1.313,0.852,2.004c0.468,1.022,0.951,2.082,1.225,3.166c0.084,0.326-0.116,0.66-0.441,0.743
		C18.448,87.207,18.404,87.212,18.359,87.213"/>
	<path clip-path="url(#SVGID_2_)" fill="#56BF98" d="M23.245,8.205c-0.173,0.005-0.347-0.062-0.474-0.202
		c-0.716-0.797-1.608-1.512-2.466-2.169c-0.27-0.205-0.321-0.59-0.115-0.86c0.206-0.268,0.591-0.319,0.86-0.112
		c0.904,0.69,1.85,1.45,2.633,2.321c0.227,0.252,0.206,0.639-0.045,0.866C23.526,8.149,23.386,8.202,23.245,8.205"/>
	<path clip-path="url(#SVGID_2_)" fill="#56BF98" d="M25.5,16.314c-0.227,0.008-0.447-0.111-0.56-0.325
		c-0.37-0.69,0.305-2.395,0.753-2.766c0.261-0.215,0.65-0.18,0.864,0.081c0.211,0.252,0.184,0.626-0.06,0.845
		c-0.164,0.206-0.46,1.047-0.445,1.329c0.112,0.282-0.004,0.616-0.283,0.764C25.682,16.289,25.59,16.312,25.5,16.314"/>
	<path clip-path="url(#SVGID_2_)" fill="#56BF98" d="M25.195,25.878c-0.251,0.008-0.491-0.14-0.587-0.384
		c-0.104-0.26-0.27-0.54-0.447-0.838c-0.378-0.639-0.81-1.364-0.783-2.191c0.011-0.341,0.297-0.61,0.633-0.594
		c0.338,0.012,0.604,0.292,0.592,0.631c-0.015,0.474,0.292,0.986,0.614,1.529c0.191,0.323,0.39,0.66,0.53,1.008
		c0.123,0.313-0.029,0.672-0.345,0.794C25.334,25.863,25.264,25.876,25.195,25.878"/>
	<path clip-path="url(#SVGID_2_)" fill="#56BF98" d="M19.794,17.723c-0.162,0.005-0.326-0.055-0.448-0.175
		c-0.243-0.24-0.244-0.629-0.005-0.868c0.134-0.139,0.287-0.229,0.421-0.309c0.105-0.062,0.202-0.121,0.251-0.18
		c0.22-0.254,0.607-0.284,0.864-0.063c0.258,0.219,0.286,0.607,0.065,0.864c-0.178,0.208-0.386,0.332-0.551,0.432
		c-0.065,0.039-0.155,0.092-0.181,0.119C20.098,17.656,19.946,17.72,19.794,17.723"/>
	<path clip-path="url(#SVGID_2_)" fill="#56BF98" d="M30.935,18.146c-0.281,0.008-0.54-0.181-0.613-0.465
		c-0.081-0.331,0.119-0.663,0.448-0.744c0.229-0.055,0.455-0.106,0.68-0.156c0.451-0.102,0.878-0.196,1.317-0.339
		c0.322-0.106,0.669,0.069,0.774,0.391c0.104,0.322-0.072,0.669-0.393,0.774c-0.496,0.162-0.974,0.268-1.434,0.371
		c-0.213,0.048-0.429,0.096-0.652,0.149C31.021,18.138,30.978,18.143,30.935,18.146"/>
	<path clip-path="url(#SVGID_2_)" fill="#56BF98" d="M24.076,34.498c-0.173,0.006-0.349-0.062-0.475-0.203
		c-0.225-0.252-0.205-0.639,0.048-0.864c0.487-0.438,1.178-0.855,1.728-1.172c0.293-0.17,0.668-0.068,0.837,0.224
		c0.169,0.294,0.07,0.67-0.223,0.841c-0.46,0.262-1.117,0.656-1.524,1.02C24.355,34.446,24.215,34.494,24.076,34.498"/>
	<path clip-path="url(#SVGID_2_)" fill="#56BF98" d="M30.75,38.421c-0.276,0.007-0.531-0.173-0.607-0.449
		c-0.09-0.326,0.102-0.665,0.425-0.755c0.249-0.067,1.118-0.618,1.277-0.834c0.169-0.293,0.542-0.383,0.835-0.212
		c0.293,0.169,0.386,0.552,0.217,0.846c-0.305,0.52-1.544,1.255-2,1.382C30.847,38.412,30.798,38.417,30.75,38.421"/>
	<path clip-path="url(#SVGID_2_)" fill="#56BF98" d="M37.355,24.514c-0.228,0.008-0.447-0.115-0.561-0.329
		c-0.11-0.208-0.268-0.441-0.436-0.686c-0.348-0.513-0.743-1.094-0.85-1.724c-0.061-0.335,0.167-0.65,0.498-0.708
		c0.33-0.06,0.651,0.165,0.709,0.5c0.063,0.369,0.365,0.812,0.656,1.239c0.178,0.266,0.365,0.537,0.508,0.812
		c0.156,0.298,0.039,0.669-0.259,0.824C37.535,24.488,37.443,24.511,37.355,24.514"/>
	<path clip-path="url(#SVGID_2_)" fill="#56BF98" d="M38.391,34.332c-0.061,0.003-0.123-0.004-0.186-0.024
		c-0.326-0.092-0.514-0.431-0.422-0.756c0.188-0.659,0.616-1.338,1.175-1.856c0.249-0.232,0.636-0.218,0.868,0.03
		c0.23,0.248,0.219,0.635-0.032,0.867c-0.394,0.368-0.703,0.852-0.831,1.294C38.887,34.152,38.65,34.325,38.391,34.332"/>
	<path clip-path="url(#SVGID_2_)" fill="#56BF98" d="M39.561,45.067c-0.242,0.009-0.474-0.13-0.58-0.36
		c-0.055-0.125-0.111-0.25-0.171-0.375c-0.241-0.512-0.493-1.039-0.589-1.634c-0.057-0.333,0.169-0.649,0.504-0.704
		c0.332-0.054,0.649,0.169,0.705,0.504c0.071,0.426,0.274,0.854,0.489,1.311c0.062,0.134,0.124,0.265,0.183,0.396
		c0.138,0.311,0,0.672-0.312,0.81C39.717,45.048,39.637,45.065,39.561,45.067"/>
	<path clip-path="url(#SVGID_2_)" fill="#56BF98" d="M43.369,54.623c-0.105,0.002-0.215-0.023-0.315-0.076
		c-0.286-0.162-0.553-0.36-0.808-0.554c-0.184-0.135-0.354-0.262-0.52-0.368c-0.285-0.183-0.369-0.562-0.186-0.848
		c0.182-0.285,0.562-0.367,0.848-0.185c0.205,0.131,0.398,0.277,0.588,0.418c0.237,0.177,0.46,0.342,0.676,0.463
		c0.299,0.165,0.402,0.543,0.236,0.836C43.779,54.505,43.58,54.615,43.369,54.623"/>
	<path clip-path="url(#SVGID_2_)" fill="#56BF98" d="M42.943,38.01c-0.266,0.009-0.518-0.16-0.602-0.43
		c-0.103-0.322,0.078-0.667,0.402-0.767c0.231-0.074,0.488-0.245,0.76-0.427c0.172-0.117,0.352-0.236,0.539-0.339
		c0.299-0.165,0.67-0.058,0.834,0.238c0.164,0.298,0.056,0.672-0.242,0.836c-0.141,0.076-0.29,0.177-0.449,0.281
		c-0.315,0.213-0.674,0.454-1.074,0.581C43.055,37.999,42.998,38.009,42.943,38.01"/>
	<path clip-path="url(#SVGID_2_)" fill="#56BF98" d="M11.188,26.672c-0.241,0.008-0.475-0.131-0.579-0.366
		c-0.044-0.102-0.286-0.279-0.463-0.408c-0.243-0.183-0.52-0.385-0.718-0.654c-0.201-0.272-0.144-0.656,0.132-0.857
		c0.271-0.201,0.655-0.142,0.857,0.132c0.086,0.118,0.275,0.257,0.457,0.39c0.319,0.236,0.684,0.502,0.858,0.903
		c0.137,0.311-0.004,0.672-0.314,0.81C11.344,26.652,11.265,26.67,11.188,26.672"/>
	<path clip-path="url(#SVGID_2_)" fill="#56BF98" d="M21.688,68.647c-0.244,0.01-0.477-0.129-0.58-0.365
		c-0.046-0.101-0.287-0.279-0.463-0.407c-0.244-0.183-0.521-0.388-0.719-0.652c-0.201-0.276-0.142-0.659,0.131-0.86
		c0.273-0.201,0.657-0.142,0.857,0.131c0.087,0.119,0.277,0.259,0.458,0.391c0.319,0.236,0.681,0.504,0.857,0.905
		c0.139,0.31-0.002,0.673-0.313,0.809C21.842,68.63,21.764,68.647,21.688,68.647"/>
	<path clip-path="url(#SVGID_2_)" fill="#56BF98" d="M13.551,31.982c-0.074,0.003-0.153-0.011-0.23-0.037
		c-0.317-0.119-0.481-0.47-0.361-0.789c0.224-0.605,0.624-1.208,1.022-1.771c0.195-0.275,0.578-0.341,0.854-0.146
		c0.276,0.193,0.341,0.578,0.145,0.853c-0.351,0.495-0.697,1.017-0.871,1.489C14.021,31.825,13.794,31.976,13.551,31.982"/>
	<path clip-path="url(#SVGID_2_)" fill="#56BF98" d="M14.834,41.919c-0.089,0.003-0.181-0.015-0.27-0.052
		c-0.485-0.221-0.82-0.665-1.116-1.059c-0.174-0.232-0.339-0.453-0.501-0.586c-0.263-0.217-0.299-0.603-0.086-0.865
		c0.215-0.262,0.601-0.299,0.864-0.082c0.275,0.227,0.492,0.517,0.704,0.796c0.217,0.289,0.44,0.586,0.64,0.678
		c0.309,0.14,0.447,0.5,0.307,0.81C15.278,41.779,15.062,41.913,14.834,41.919"/>
	<path clip-path="url(#SVGID_2_)" fill="#56BF98" d="M25.405,64.739c-0.204,0.005-0.403-0.091-0.525-0.271
		c-0.298-0.44-0.35-0.994-0.395-1.485c-0.025-0.289-0.052-0.563-0.119-0.763c-0.109-0.322,0.062-0.67,0.382-0.78
		c0.321-0.109,0.668,0.064,0.777,0.385c0.118,0.337,0.149,0.698,0.182,1.048c0.034,0.358,0.066,0.73,0.188,0.911
		c0.189,0.28,0.116,0.661-0.165,0.85C25.63,64.7,25.52,64.734,25.405,64.739"/>
	<path clip-path="url(#SVGID_2_)" fill="#56BF98" d="M10.809,41.647c-0.305,0.008-0.575-0.211-0.623-0.519
		c-0.063-0.402-0.327-0.958-0.559-1.447c-0.104-0.224-0.205-0.435-0.283-0.623c-0.03-0.068-0.1-0.178-0.168-0.285
		c-0.155-0.239-0.33-0.511-0.369-0.822c-0.042-0.337,0.194-0.644,0.53-0.686c0.337-0.042,0.644,0.194,0.686,0.529
		c0.014,0.052,0.121,0.217,0.184,0.316c0.097,0.15,0.198,0.305,0.267,0.474c0.074,0.174,0.166,0.366,0.262,0.568
		c0.268,0.567,0.573,1.207,0.662,1.787c0.051,0.333-0.177,0.646-0.513,0.699C10.86,41.644,10.833,41.646,10.809,41.647"/>
	<path clip-path="url(#SVGID_2_)" fill="#56BF98" d="M24.454,53.571c-0.016,0-0.03-0.001-0.045-0.001
		c-0.338-0.015-0.601-0.299-0.589-0.638c0.013-0.32,0.269-0.572,0.583-0.589c0.38-0.115,1.576-1.087,1.752-1.383
		c0.146-0.308,0.509-0.432,0.815-0.288c0.306,0.146,0.434,0.518,0.29,0.823C27.029,51.983,25.289,53.545,24.454,53.571"/>
	<path clip-path="url(#SVGID_2_)" fill="#56BF98" d="M20.55,53.321c-0.207,0.006-0.449,0.009-0.738,0.008
		c-0.304,0-0.765,0.003-0.879,0.025c-0.328,0.062-0.655-0.145-0.727-0.47c-0.07-0.327,0.121-0.648,0.444-0.726
		c0.216-0.052,0.562-0.054,1.159-0.056c0.316-0.003,0.818-0.003,1.054-0.026c0.063-0.044,0.135-0.079,0.215-0.098
		c0.331-0.08,0.66,0.127,0.737,0.454c0.044,0.182-0.006,0.406-0.123,0.554C21.498,53.234,21.217,53.303,20.55,53.321"/>
	<path clip-path="url(#SVGID_2_)" fill="#56BF98" d="M24.337,74.891c-0.102,0.005-0.205-0.019-0.304-0.07
		c-0.3-0.157-0.416-0.527-0.255-0.827c0.07-0.136,0.141-0.272,0.21-0.406c0.425-0.828,0.864-1.685,1.686-2.37
		c0.262-0.218,0.647-0.183,0.866,0.078c0.215,0.26,0.181,0.646-0.081,0.861c-0.629,0.527-0.977,1.204-1.381,1.99
		c-0.069,0.14-0.142,0.277-0.216,0.419C24.755,74.769,24.551,74.885,24.337,74.891"/>
	<path clip-path="url(#SVGID_2_)" fill="#56BF98" d="M31.473,74.686c-0.141,0.002-0.285-0.043-0.403-0.137
		c-0.263-0.213-0.305-0.601-0.09-0.862c0.255-0.317,0.714-0.562,1.438-0.769c0.118-0.032,0.25-0.082,0.388-0.133
		c0.343-0.126,0.727-0.27,1.086-0.28c0.001-0.001,0.003-0.001,0.003-0.001c0.338-0.008,0.62,0.256,0.631,0.592
		c0.013,0.339-0.252,0.624-0.592,0.633c-0.163,0.007-0.46,0.117-0.702,0.206c-0.168,0.062-0.333,0.122-0.477,0.164
		c-0.684,0.193-0.818,0.353-0.824,0.359C31.812,74.604,31.645,74.68,31.473,74.686"/>
	<path clip-path="url(#SVGID_2_)" fill="#56BF98" d="M36.008,52.501c-0.016,0.002-0.033,0.001-0.049-0.001
		c-0.254-0.013-0.502-0.015-0.752-0.02c-0.529-0.006-1.073-0.013-1.641-0.108c-0.334-0.057-0.559-0.375-0.502-0.708
		c0.058-0.333,0.373-0.556,0.707-0.501c0.472,0.08,0.946,0.086,1.449,0.091c0.266,0.004,0.529,0.009,0.799,0.021
		c0.337,0.019,0.598,0.306,0.582,0.645C36.585,52.241,36.324,52.491,36.008,52.501"/>
	<path clip-path="url(#SVGID_2_)" fill="#56BF98" d="M25.197,44.832c-0.262,0.007-0.51-0.155-0.598-0.418
		c-0.111-0.331-0.175-0.704-0.232-1.067c-0.076-0.469-0.155-0.953-0.331-1.222c-0.186-0.281-0.108-0.663,0.174-0.847
		c0.283-0.188,0.664-0.111,0.85,0.174c0.32,0.484,0.421,1.102,0.518,1.699c0.053,0.325,0.102,0.634,0.184,0.869
		c0.108,0.323-0.064,0.67-0.385,0.779C25.317,44.818,25.257,44.83,25.197,44.832"/>
	<path clip-path="url(#SVGID_2_)" fill="#56BF98" d="M10.686,39.328c0.052,1.028,0.376,5.222,3.251,5.226
		c3.896,0.004,5.697-0.62,7.237-0.774c-0.287,0.555,0.378,1.926-0.052,1.971c-1.683,0.171-7.315,1.745-8.598-0.125
		C11.244,43.754,10.688,42.286,10.686,39.328"/>
	<path clip-path="url(#SVGID_2_)" fill="#56BF98" d="M19.781,46.593c0.583-0.108,1.085-0.201,1.403-0.232
		c0.215-0.022,0.403-0.128,0.53-0.298c0.253-0.336,0.175-0.76,0.083-1.254c-0.041-0.222-0.117-0.635-0.08-0.748
		c0.105-0.198,0.09-0.44-0.037-0.626s-0.344-0.287-0.568-0.264c-0.478,0.047-0.964,0.134-1.525,0.236
		c-1.318,0.239-2.958,0.537-5.65,0.534c-2.167-0.004-2.567-3.248-2.64-4.643c-0.016-0.334-0.294-0.594-0.627-0.583
		c0,0-0.001-0.001-0.002,0c-0.332,0.009-0.596,0.281-0.595,0.612c0.001,3.216,0.656,4.76,1.946,6.645
		c0.658,0.958,2.059,1.211,3.616,1.167C17.033,47.098,18.556,46.816,19.781,46.593 M13.936,45.167c2.801,0,4.577-0.318,5.87-0.552
		c0.248-0.047,0.48-0.088,0.699-0.124c0.021,0.184,0.055,0.364,0.088,0.541c0.007,0.049,0.02,0.107,0.03,0.166
		c-0.304,0.048-0.666,0.114-1.062,0.188c-1.862,0.342-5.733,1.054-6.53-0.108c-0.071-0.102-0.138-0.203-0.204-0.304
		C13.168,45.102,13.539,45.166,13.936,45.167"/>
	<path clip-path="url(#SVGID_2_)" fill="#56BF98" d="M28.676,58.416c0.243-2.145,1.047-3.515,3.08-3.784
		c2.032-0.268,6.023-0.771,7.52-1.989c0.936-0.766,2.04-3.113,1.893-6.87c-0.15-3.759-0.141-10.98-0.043-13.333
		c0.05-1.152-0.016-6.989-1.056-9.016c2.095,1.576,2.318,4.932,2.476,8.823c0.16,3.891,0.91,11.7,0.707,14.01
		c-0.205,2.307-0.053,7.401-5.346,8.715C32.613,56.284,30.445,55.086,28.676,58.416"/>
	<path clip-path="url(#SVGID_2_)" fill="#56BF98" d="M29.218,58.702c1.055-1.984,2.154-2.116,4.563-2.403
		c1.135-0.137,2.547-0.304,4.271-0.732c5.268-1.307,5.588-6.054,5.762-8.605c0.016-0.233,0.03-0.452,0.049-0.651
		c0.134-1.527-0.126-5.243-0.378-8.838c-0.139-1.985-0.271-3.861-0.327-5.249c-0.176-4.373-0.477-7.602-2.723-9.288
		c-0.23-0.172-0.545-0.163-0.766,0.021c-0.219,0.186-0.279,0.497-0.148,0.749c0.939,1.828,1.047,7.381,0.99,8.709
		c-0.096,2.273-0.115,9.467,0.041,13.382c0.154,3.837-1.023,5.845-1.667,6.37c-1.325,1.084-5.212,1.597-7.078,1.844l-0.134,0.017
		c-2.835,0.372-3.416,2.644-3.607,4.317c-0.033,0.295,0.146,0.569,0.428,0.657c0.064,0.022,0.133,0.031,0.199,0.027
		C28.908,59.021,29.111,58.903,29.218,58.702 M41.934,32.271c0.057,1.407,0.189,3.292,0.328,5.288
		c0.238,3.382,0.508,7.213,0.381,8.643c-0.021,0.207-0.035,0.433-0.052,0.679c-0.175,2.551-0.437,6.404-4.833,7.498
		c-1.652,0.408-2.965,0.564-4.123,0.703c-1.246,0.149-2.283,0.274-3.178,0.679c0.365-0.277,0.818-0.445,1.379-0.519l0.131-0.018
		c2.949-0.389,6.222-0.902,7.694-2.106c1.079-0.88,2.28-3.339,2.119-7.37c-0.155-3.889-0.136-11.027-0.042-13.284
		c0.023-0.536,0.026-2.458-0.141-4.486C41.788,29.214,41.867,30.657,41.934,32.271"/>
	<path clip-path="url(#SVGID_2_)" fill="#56BF98" d="M26.285,4.401c1.457,2.629,2.131,7.87,2.55,11.203
		c0.423,3.333,0.663,9.366,0.374,12.816c-0.291,3.45-0.865,8.883-0.791,13.381c0.076,4.499,0.061,5.864,0.061,5.864
		s1.08,1.868,2.517,2.08c-0.185-4.035-0.767-11.28-0.468-14.802c0.299-3.523,1.576-10.502,0.406-16.848
		C29.765,11.75,28.834,5.489,26.285,4.401"/>
	<path clip-path="url(#SVGID_2_)" fill="#56BF98" d="M31.406,50.2c0.137-0.123,0.211-0.301,0.201-0.484
		c-0.045-0.972-0.111-2.133-0.186-3.383c-0.227-3.879-0.508-8.706-0.284-11.338c0.058-0.677,0.151-1.479,0.259-2.405
		c0.438-3.745,1.1-9.406,0.141-14.605c-0.094-0.509-0.188-1.019-0.277-1.525c-1.121-6.166-2.087-11.493-4.734-12.621
		c-0.241-0.104-0.52-0.04-0.694,0.153c-0.176,0.195-0.209,0.479-0.082,0.707c1.414,2.547,2.078,7.83,2.477,10.983
		c0.409,3.225,0.662,9.228,0.37,12.687c-0.046,0.56-0.101,1.169-0.157,1.819c-0.294,3.303-0.697,7.822-0.635,11.623
		c0.074,4.433,0.061,5.837,0.061,5.849c-0.002,0.111,0.026,0.222,0.082,0.314c0.127,0.22,1.277,2.133,2.959,2.378
		c0.034,0.006,0.071,0.008,0.106,0.008C31.158,50.354,31.299,50.298,31.406,50.2 M29.031,41.792
		c-0.062-3.739,0.337-8.223,0.628-11.496c0.06-0.652,0.114-1.264,0.16-1.825c0.296-3.534,0.042-9.658-0.376-12.943
		c-0.219-1.734-0.514-4.094-0.979-6.333c0.618,2.146,1.108,4.837,1.588,7.484c0.094,0.508,0.186,1.019,0.279,1.527
		c0.924,5.02,0.275,10.57-0.152,14.241c-0.108,0.938-0.204,1.749-0.263,2.445c-0.23,2.719,0.055,7.593,0.281,11.512
		c0.051,0.858,0.099,1.676,0.137,2.415c-0.545-0.367-1.008-0.964-1.241-1.324C29.094,47.001,29.094,45.42,29.031,41.792"/>
	<path clip-path="url(#SVGID_2_)" fill="#56BF98" d="M28.602,58.872c-0.043,2.788,1.053,13.851,0.305,24.151
		c0,0,1.104-1.963,2.125-2.896c0.065-4.197-0.031-9.676-0.098-12.594c-0.062-2.916-0.011-11.744-0.011-11.744
		C29.876,56.573,29.008,57.205,28.602,58.872"/>
	<path clip-path="url(#SVGID_2_)" fill="#56BF98" d="M29.442,83.323c0.011-0.018,1.062-1.89,2.001-2.743
		c0.125-0.114,0.195-0.275,0.199-0.443c0.064-4.179-0.031-9.698-0.094-12.615c-0.062-2.877-0.013-11.642-0.012-11.729
		c0.001-0.232-0.129-0.447-0.338-0.553c-0.207-0.104-0.457-0.082-0.643,0.057l-0.041,0.03c-1.057,0.792-2.057,1.541-2.51,3.4
		c-0.011,0.044-0.016,0.091-0.017,0.136c-0.012,0.795,0.062,2.172,0.165,4.082c0.252,4.724,0.678,12.631,0.14,20.034
		c-0.019,0.288,0.161,0.551,0.437,0.634c0.064,0.018,0.129,0.027,0.195,0.026C29.137,83.631,29.334,83.516,29.442,83.323
		 M30.304,57.07c-0.013,2.564-0.03,8.257,0.019,10.477c0.062,2.851,0.155,8.19,0.098,12.315c-0.262,0.265-0.523,0.58-0.763,0.9
		c0.318-6.771-0.05-13.615-0.279-17.883c-0.094-1.763-0.167-3.161-0.164-3.93C29.439,58.067,29.811,57.533,30.304,57.07"/>
</g>
</svg>
