<?xml version="1.0" encoding="utf-8"?>
<!-- Generator: Adobe Illustrator 16.0.0, SVG Export Plug-In . SVG Version: 6.00 Build 0)  -->
<!DOCTYPE svg PUBLIC "-//W3C//DTD SVG 1.1//EN" "http://www.w3.org/Graphics/SVG/1.1/DTD/svg11.dtd">
<svg version="1.1" id="Layer_1" xmlns="http://www.w3.org/2000/svg" xmlns:xlink="http://www.w3.org/1999/xlink" x="0px" y="0px"
	 width="28px" height="28.11px" viewBox="0 0 28 28.11" enable-background="new 0 0 28 28.11" xml:space="preserve">
<g>
	<defs>
		<polygon id="SVGID_1_" points="0.693,-0.637 68.675,0 68.675,28.11 -0.663,27.44 		"/>
	</defs>
	<clipPath id="SVGID_2_">
		<use xlink:href="#SVGID_1_"  overflow="visible"/>
	</clipPath>
	
		<path clip-path="url(#SVGID_2_)" fill="none" stroke="#010101" stroke-width="1.912" stroke-linecap="round" stroke-linejoin="round" stroke-miterlimit="10" d="
		M13.954,26.678c0.312-2.784,0.287-6.937,0.203-9.702c-1.139,0.161-2.275,0.254-3.521,0.199c0.427-1.291,0.188-3.113,0.212-4.492
		c1.016,0.006,2.04-0.22,3.006-0.052c-0.447-4.811,1.527-7.101,4.701-7.522c1.087-0.143,3.314-0.386,3.778,0.546
		c0.614,1.238,0.092,3.307,0.269,4.651c-0.715-0.428-2.779-0.653-3.575-0.25c-1.131,0.573-0.927,1.743-1.098,2.761
		c1.73-0.01,2.947-0.144,4.497,0.341c0.095,1.378,0.108,2.839,0.062,4.218c-1.303-0.254-2.994-0.191-4.219,0.227
		c0.24,1.368-0.308,3.083-0.345,4.54c-0.037,1.394,0.183,3.386,0.429,4.681c2.069,0.289,4.722,0.574,6.583-0.582
		c2.154-1.34,1.674-4.666,1.77-6.878c0.161-3.716-0.006-7.528-0.108-11.249c-0.101-3.697-1.297-6.587-4.88-6.777
		c-1.564-0.082-4.027,0.029-5.638,0.065c-1.711,0.037-3.397,0.01-5.111-0.038c-2.44-0.062-6.01-0.157-8.022,1.46
		C0.819,4.529,1.328,7.594,1.33,10.046c0.002,3.758,0.219,7.501,0.272,11.261c0.043,2.979,0.627,4.998,3.775,5.424
		C7.792,27.058,11.309,26.627,13.954,26.678z"/>
</g>
</svg>
