<?xml version="1.0" encoding="utf-8"?>
<!-- Generator: Adobe Illustrator 16.0.0, SVG Export Plug-In . SVG Version: 6.00 Build 0)  -->
<!DOCTYPE svg PUBLIC "-//W3C//DTD SVG 1.1//EN" "http://www.w3.org/Graphics/SVG/1.1/DTD/svg11.dtd">
<svg version="1.1" id="Layer_1" xmlns="http://www.w3.org/2000/svg" xmlns:xlink="http://www.w3.org/1999/xlink" x="0px" y="0px"
	 width="57.125px" height="47px" viewBox="0 0 57.125 47" enable-background="new 0 0 57.125 47" xml:space="preserve">
<g>
	<defs>
		<rect id="SVGID_1_" x="0.7" y="0.551" width="55.873" height="45.774"/>
	</defs>
	<clipPath id="SVGID_2_">
		<use xlink:href="#SVGID_1_"  overflow="visible"/>
	</clipPath>
	<path clip-path="url(#SVGID_2_)" fill="#5DBA93" d="M51.837,22.469c0,3.129-1.468,5.74-2.596,8.461
		c-1.17,2.82-3.489,4.227-5.615,6.353c-2.126,2.125-3.034,5.644-5.855,6.813c-2.721,1.129-5.829,2.229-8.958,2.229
		c-3.128,0-5.665-2.479-8.387-3.607c-2.82-1.17-5.066-2.545-7.192-4.67c-2.126-2.127-4.4-3.998-5.57-6.817
		c-1.128-2.722-0.692-5.632-0.692-8.761c0-3.13-2.406-6.855-1.278-9.576c1.169-2.821,4.956-4.334,7.082-6.459
		c2.126-2.126,4.299-4.322,7.12-5.492c2.72-1.129,5.788,0.551,8.917,0.551c3.129,0,5.873-0.899,8.594,0.229
		c2.821,1.17,5.993,1.91,8.119,4.036c2.125,2.125,1.895,5.7,3.063,8.521C49.718,16.999,51.837,19.339,51.837,22.469"/>
	<path clip-path="url(#SVGID_2_)" fill="#010202" d="M28.722,41.414c-4.577,0-8.736-1.325-12.078-2.392
		c-0.296-0.093-0.458-0.409-0.364-0.704c0.093-0.296,0.41-0.457,0.705-0.365c3.267,1.043,7.335,2.338,11.737,2.338
		c3.472,0,6.398-0.28,8.949-0.858c3.144-0.713,5.911-2.124,8.259-3.392l0.642-0.344c2.65-1.422,5.152-2.766,6.694-4.715
		c1.926-2.436,2.185-5.572,2.185-8.316c0-2.501-0.258-5.698-2.272-8.247c-1.367-1.729-3.664-4.149-6.852-5.867
		c-2.533-1.367-5.774-2.103-8.634-2.75c-3.071-0.697-6.09-1.05-8.971-1.05c-3.188,0-6.23,0.689-8.914,1.299
		c-2.724,0.617-5.36,1.643-8.299,3.228c-2.672,1.442-4.929,3.314-6.708,5.563c-2.032,2.57-2.978,5.056-2.978,7.824
		c0,2.188,0.681,4.164,2.278,6.606c0.299,0.457,0.58,0.927,0.877,1.423c0.983,1.644,2.001,3.342,3.641,4.478
		c0.255,0.177,0.319,0.526,0.142,0.78c-0.177,0.256-0.526,0.318-0.78,0.143c-1.841-1.273-2.969-3.16-3.966-4.824
		c-0.291-0.486-0.566-0.945-0.853-1.384c-1.703-2.604-2.461-4.832-2.461-7.222c0-2.992,1.053-5.779,3.22-8.521
		c1.874-2.37,4.247-4.339,7.055-5.854c2.99-1.612,5.798-2.704,8.584-3.336c2.605-0.592,5.849-1.326,9.162-1.326
		c2.964,0,6.066,0.361,9.219,1.077c2.93,0.665,6.251,1.417,8.92,2.856c3.354,1.811,5.766,4.349,7.197,6.159
		c2.229,2.82,2.516,6.26,2.516,8.943c0,2.938-0.289,6.307-2.428,9.012c-1.686,2.132-4.288,3.529-7.043,5.008l-0.64,0.344
		c-2.414,1.303-5.263,2.754-8.544,3.498C35.285,41.123,32.278,41.414,28.722,41.414"/>
	<path clip-path="url(#SVGID_2_)" fill="#010202" d="M2.626,43.961c-0.23,0-0.442-0.144-0.525-0.365
		c-0.095-0.256,0.007-0.543,0.243-0.68c1.846-1.076,3.066-3.049,4.143-4.789l2.837-4.586c0.163-0.263,0.509-0.345,0.773-0.182
		c0.263,0.164,0.344,0.51,0.181,0.773l-2.837,4.586c-0.718,1.16-1.498,2.42-2.494,3.496c1.304-0.428,2.581-0.969,3.831-1.498
		c1.297-0.547,2.638-1.115,4.005-1.561c0.841-0.273,1.708-0.507,2.546-0.732c2.118-0.568,4.118-1.108,5.84-2.258
		c0.258-0.172,0.606-0.102,0.778,0.155c0.172,0.259,0.103,0.607-0.155,0.779c-1.874,1.252-4.059,1.84-6.171,2.407
		c-0.825,0.223-1.678,0.451-2.49,0.717c-1.322,0.429-2.641,0.986-3.915,1.527c-2.071,0.875-4.214,1.781-6.487,2.199
		C2.694,43.959,2.66,43.961,2.626,43.961"/>
	<path clip-path="url(#SVGID_2_)" fill="#010202" d="M14.075,16.688c-0.308,0-0.558-0.247-0.561-0.557
		c-0.017-1.871,0.033-3.766,0.147-5.633c0.019-0.31,0.287-0.547,0.595-0.527c0.309,0.021,0.545,0.285,0.525,0.596
		c-0.113,1.842-0.162,3.711-0.144,5.555c0.002,0.31-0.247,0.564-0.557,0.566H14.075z"/>
	<path clip-path="url(#SVGID_2_)" fill="#010202" d="M16.821,17.057c-0.021,0-0.041-0.001-0.062-0.004
		c-0.271-0.029-0.482-0.251-0.499-0.522c-0.018-0.302-0.013-0.599-0.001-0.891c-0.064-0.226-0.18-0.468-0.347-0.726
		c-0.278-0.432-0.75-0.733-1.259-0.808c-0.145-0.022-0.308-0.028-0.478-0.035c-0.483-0.021-1.031-0.042-1.501-0.405
		c-0.247-0.188-0.292-0.542-0.103-0.787c0.188-0.246,0.541-0.292,0.787-0.102c0.189,0.145,0.501,0.158,0.862,0.173
		c0.193,0.007,0.392,0.015,0.595,0.045c0.578,0.084,1.126,0.352,1.558,0.743l0.232-3.822c0.02-0.309,0.284-0.547,0.595-0.525
		c0.309,0.02,0.544,0.284,0.525,0.595l-0.319,5.245c-0.006,0.1-0.012,0.2-0.018,0.299c0.083,0.388,0.074,0.762-0.028,1.12
		C17.291,16.893,17.069,17.057,16.821,17.057"/>
	<path clip-path="url(#SVGID_2_)" fill="#010202" d="M20.464,17.194c0.487-0.054,0.942-0.352,1.246-0.818
		c0.241-0.371,0.352-0.777,0.435-1.16c0.19-0.864,0.273-1.754,0.249-2.639c-0.016-0.534-0.076-1.224-0.408-1.834
		c-0.276-0.507-0.717-0.878-1.207-1.042c-0.113-0.154-0.302-0.245-0.506-0.226c-0.542,0.054-1.054,0.403-1.371,0.938
		c-0.255,0.428-0.352,0.896-0.421,1.337c-0.156,1.007-0.185,2.033-0.085,3.047c0.047,0.479,0.135,1.032,0.43,1.513
		c0.341,0.555,0.91,0.894,1.484,0.893C20.36,17.202,20.412,17.2,20.464,17.194 M20.208,10.729c0.277,0.004,0.611,0.219,0.793,0.552
		c0.217,0.396,0.259,0.894,0.27,1.328c0.023,0.795-0.051,1.591-0.221,2.368c-0.062,0.278-0.137,0.566-0.28,0.786
		c-0.116,0.179-0.279,0.299-0.426,0.315c-0.188,0.02-0.422-0.13-0.562-0.357c-0.175-0.285-0.233-0.666-0.269-1.034
		c-0.091-0.92-0.065-1.852,0.077-2.767c0.052-0.329,0.12-0.671,0.277-0.936c0.064-0.106,0.142-0.195,0.228-0.265
		C20.131,10.729,20.169,10.731,20.208,10.729"/>
	<path clip-path="url(#SVGID_2_)" fill="#010202" d="M23.739,17.036c-0.262,0-0.423-0.131-0.501-0.22
		c-0.165-0.187-0.166-0.4-0.166-0.471L23.027,9.8c-0.002-0.311,0.248-0.563,0.558-0.565h0.004c0.308,0,0.558,0.248,0.56,0.558
		l0.041,6.022c0.287-0.061,0.574-0.126,0.86-0.193c0.301-0.072,0.604,0.113,0.675,0.415c0.073,0.302-0.113,0.604-0.414,0.676
		c-0.463,0.11-0.932,0.214-1.396,0.305C23.851,17.029,23.793,17.036,23.739,17.036"/>
	<path clip-path="url(#SVGID_2_)" fill="#010202" d="M27.207,16.509c0.119-0.592,0.246-1.185,0.38-1.777
		c0.276,0.062,0.528,0.153,0.753,0.278c0.395,0.217,0.699,0.545,0.859,0.908l0.131,0.516c0.072,0.284,0.351,0.464,0.641,0.414
		c0.289-0.05,0.49-0.315,0.461-0.607c-0.022-0.227-0.078-0.449-0.162-0.664l-0.594-2.337c-0.277-1.088-0.562-2.212-0.984-3.29
		c-0.088-0.225-0.306-0.367-0.55-0.356c-0.241,0.012-0.447,0.176-0.513,0.409c-0.328,1.162-0.635,2.34-0.915,3.522
		c-0.109,0.002-0.22,0.005-0.333,0.012c-0.308,0.017-0.545,0.282-0.527,0.592c0.017,0.309,0.28,0.545,0.592,0.528
		c0.003,0,0.005,0,0.008-0.001c-0.121,0.544-0.237,1.088-0.347,1.631c-0.062,0.304,0.134,0.599,0.438,0.661
		c0.038,0.008,0.075,0.012,0.113,0.012C26.919,16.959,27.154,16.774,27.207,16.509 M28.22,12.114c0.131,0.468,0.25,0.937,0.368,1.4
		l0.105,0.414c-0.265-0.126-0.549-0.223-0.853-0.29C27.962,13.13,28.089,12.621,28.22,12.114"/>
	<path clip-path="url(#SVGID_2_)" fill="#010202" d="M31.202,17.941c-0.085,0-0.17-0.021-0.251-0.061
		c-0.277-0.138-0.389-0.476-0.25-0.752c0.257-0.513,0.495-1.045,0.341-1.444c-0.111-0.289,0.032-0.613,0.321-0.725
		c0.288-0.112,0.614,0.032,0.726,0.321c0.319,0.826-0.031,1.646-0.385,2.35C31.605,17.828,31.408,17.941,31.202,17.941"/>
	<path clip-path="url(#SVGID_2_)" fill="#010202" d="M34.378,16.815c-0.097,0-0.194-0.023-0.284-0.071
		c-0.253-0.136-0.361-0.422-0.354-0.646c0.052-1.87,0.163-3.755,0.27-5.579c0.018-0.308,0.277-0.542,0.593-0.526
		c0.31,0.018,0.546,0.284,0.527,0.594c-0.103,1.748-0.209,3.554-0.263,5.34c0.175,0.253,0.113,0.601-0.139,0.778
		C34.623,16.778,34.501,16.815,34.378,16.815"/>
	<path clip-path="url(#SVGID_2_)" fill="#010202" d="M36.312,12.478c-0.053,0-0.107-0.009-0.161-0.024
		c-0.297-0.089-0.465-0.402-0.376-0.699c0.202-0.673,0.276-1.396,0.215-2.097c-0.027-0.31,0.201-0.581,0.509-0.608
		c0.312-0.027,0.582,0.2,0.609,0.509c0.073,0.842-0.016,1.712-0.259,2.52C36.777,12.32,36.554,12.478,36.312,12.478"/>
	<path clip-path="url(#SVGID_2_)" fill="#010202" d="M38.29,17.289c-0.01,0-0.02,0-0.029-0.001c-0.31-0.017-0.548-0.279-0.531-0.59
		c0.085-1.637,0.059-3.294-0.078-4.927c-0.043-0.511-0.096-1.147,0.244-1.707c0.115-0.188,0.33-0.294,0.55-0.265
		c0.22,0.028,0.402,0.182,0.467,0.393c0.233,0.771,0.545,1.514,0.929,2.217c0.358-0.907,0.772-1.808,1.366-2.622
		c0.137-0.188,0.376-0.272,0.601-0.211c0.224,0.061,0.388,0.253,0.411,0.483c0.228,2.231,0.219,4.493-0.026,6.723
		c-0.034,0.31-0.312,0.531-0.619,0.497c-0.309-0.033-0.531-0.311-0.497-0.619c0.17-1.547,0.223-3.108,0.157-4.664
		c-0.279,0.611-0.515,1.252-0.746,1.88c-0.073,0.196-0.25,0.338-0.459,0.362c-0.21,0.026-0.414-0.067-0.532-0.241
		c-0.231-0.343-0.445-0.693-0.643-1.055c0.062,1.271,0.062,2.548-0.004,3.814C38.834,17.057,38.586,17.289,38.29,17.289"/>
	<path clip-path="url(#SVGID_2_)" fill="#010202" d="M17.019,29.528c-0.209,0.593-0.515,1.183-1.033,1.536
		c-0.379,0.259-0.838,0.367-1.287,0.461c-1.233,0.262-2.479,0.455-3.732,0.582c-0.433-0.49-0.454-1.211-0.448-1.864
		c0.032-3.233,0.164-6.487-0.339-9.68l-0.012-0.4c1.58-0.534,3.355-0.465,4.89,0.185c0.289,0.122,0.572,0.268,0.81,0.473
		c0.508,0.441,0.748,1.111,0.939,1.758C17.477,24.837,17.802,27.305,17.019,29.528 M15.558,26.102
		c-0.091-1.117-0.406-2.205-0.758-3.271c-0.101-0.308-0.217-0.631-0.467-0.837c-0.182-0.152-0.417-0.222-0.649-0.27
		c-0.388-0.075-0.787-0.094-1.18-0.05l-0.127,0.307c-0.089,2.76-0.115,5.521-0.076,8.282c0.489-0.215,1.023-0.326,1.558-0.328
		c0.245,0,0.507,0.021,0.721-0.101c0.18-0.099,0.297-0.282,0.394-0.464C15.502,28.381,15.648,27.221,15.558,26.102"/>
	<path clip-path="url(#SVGID_2_)" fill="#010202" d="M11.014,32.573c1.265-0.128,2.537-0.326,3.781-0.589
		c0.513-0.109,1.01-0.23,1.453-0.533c0.522-0.355,0.918-0.934,1.211-1.768c0.71-2.012,0.643-4.379-0.204-7.238
		c-0.2-0.677-0.466-1.445-1.082-1.979c-0.307-0.266-0.66-0.434-0.934-0.55c-1.634-0.691-3.537-0.764-5.22-0.198
		c-0.195,0.066-0.323,0.251-0.318,0.457l0.011,0.401c0.001,0.02,0.003,0.04,0.006,0.059c0.429,2.721,0.389,5.548,0.351,8.28
		c-0.006,0.441-0.013,0.881-0.017,1.322c-0.008,0.77,0.029,1.572,0.564,2.179c0.089,0.101,0.217,0.158,0.35,0.158
		C10.983,32.575,10.998,32.575,11.014,32.573 M10.646,20.505c1.384-0.383,2.908-0.287,4.229,0.274
		c0.312,0.132,0.523,0.254,0.686,0.394c0.425,0.369,0.635,0.988,0.798,1.537c0.789,2.663,0.86,4.843,0.218,6.662
		c-0.224,0.64-0.505,1.067-0.855,1.306c-0.303,0.207-0.703,0.303-1.12,0.392c-1.123,0.237-2.27,0.421-3.413,0.545
		c-0.194-0.356-0.207-0.851-0.202-1.367c0.004-0.438,0.01-0.878,0.016-1.317c0.039-2.764,0.079-5.62-0.356-8.408L10.646,20.505z
		 M12.488,30.692c0.429-0.188,0.903-0.288,1.371-0.288h0.087c0.252,0.003,0.565,0.005,0.861-0.159
		c0.289-0.162,0.455-0.42,0.58-0.653c0.524-0.981,0.745-2.201,0.638-3.526c-0.097-1.185-0.433-2.324-0.781-3.381
		c-0.098-0.299-0.247-0.748-0.613-1.052c-0.276-0.228-0.603-0.314-0.856-0.365c-0.436-0.087-0.881-0.105-1.323-0.058
		c-0.169,0.02-0.314,0.128-0.38,0.286l-0.126,0.305c-0.022,0.053-0.034,0.109-0.036,0.165c-0.089,2.753-0.115,5.548-0.077,8.304
		c0.002,0.158,0.083,0.303,0.214,0.388c0.077,0.049,0.165,0.073,0.254,0.073C12.364,30.73,12.428,30.719,12.488,30.692
		 M13.592,22.185c0.135,0.026,0.327,0.072,0.443,0.17c0.147,0.121,0.232,0.353,0.321,0.623c0.331,1.001,0.648,2.077,0.736,3.163
		c0.093,1.146-0.09,2.188-0.53,3.011c-0.033,0.062-0.122,0.228-0.209,0.276c-0.08,0.045-0.241,0.043-0.399,0.041h-0.096
		c-0.369,0-0.74,0.049-1.098,0.143c-0.024-2.49,0.002-5.008,0.081-7.49C13.094,22.114,13.344,22.135,13.592,22.185"/>
	<path clip-path="url(#SVGID_2_)" fill="#010202" d="M26.3,29.182c-0.057,0.73-0.16,1.484-0.562,2.096
		c-0.257,0.388-0.624,0.695-1.025,0.936c-0.782,0.469-1.725,0.69-2.625,0.535c-0.898-0.154-1.739-0.703-2.171-1.507
		c-0.191-0.356-0.301-0.751-0.381-1.147c-0.426-2.109-0.05-4.293,0.424-6.392c0.182-0.804,0.398-1.642,0.959-2.246
		c0.526-0.564,1.332-0.855,2.098-0.754l0.112,0.156c-0.054-0.154,0.197-0.212,0.352-0.166c0.956,0.288,1.704,1.076,2.137,1.976
		c0.434,0.9,0.588,1.907,0.672,2.903C26.391,26.771,26.394,27.98,26.3,29.182 M24.304,26.975c0.007-0.857-0.022-1.717-0.087-2.571
		c-0.055-0.728-0.201-1.562-0.832-1.925c-0.071-0.033-0.167,0.025-0.17,0.104l0.021-0.084c-0.471,0.071-0.869,0.409-1.116,0.815
		c-0.248,0.405-0.363,0.878-0.452,1.345c-0.337,1.757-0.348,3.577-0.035,5.338c0.043,0.246,0.099,0.501,0.264,0.688
		c0.254,0.289,0.715,0.324,1.062,0.162c0.349-0.164,0.598-0.485,0.779-0.826C24.229,29.1,24.297,28.018,24.304,26.975"/>
	<path clip-path="url(#SVGID_2_)" fill="#010202" d="M24.954,32.613c0.506-0.302,0.9-0.666,1.173-1.078
		c0.457-0.691,0.577-1.522,0.639-2.316c0.095-1.223,0.092-2.463-0.01-3.688c-0.08-0.945-0.226-2.048-0.717-3.065
		c-0.534-1.108-1.417-1.918-2.424-2.222c-0.143-0.044-0.328-0.051-0.5,0c-0.013-0.003-0.025-0.005-0.038-0.007
		c-0.914-0.12-1.873,0.226-2.501,0.901c-0.629,0.677-0.866,1.55-1.072,2.46c-0.483,2.132-0.869,4.405-0.427,6.588
		c0.067,0.33,0.183,0.821,0.428,1.276c0.489,0.908,1.424,1.562,2.503,1.746c0.219,0.037,0.441,0.057,0.665,0.057
		C23.447,33.266,24.238,33.041,24.954,32.613 M22.763,21.149c0.138,0.173,0.382,0.227,0.581,0.123
		c0.047-0.025,0.088-0.056,0.122-0.092c0.707,0.256,1.332,0.865,1.73,1.689c0.425,0.883,0.556,1.88,0.628,2.739
		c0.098,1.174,0.101,2.363,0.01,3.537c-0.061,0.773-0.166,1.387-0.487,1.873c-0.195,0.295-0.489,0.561-0.874,0.792
		c-0.719,0.431-1.56,0.604-2.306,0.476c-0.786-0.135-1.491-0.619-1.838-1.268c-0.144-0.266-0.247-0.58-0.335-1.02
		c-0.384-1.897-0.11-3.85,0.422-6.195c0.176-0.78,0.374-1.523,0.845-2.03c0.37-0.396,0.907-0.625,1.448-0.625
		C22.728,21.149,22.745,21.149,22.763,21.149 M23.158,31.269c0.392-0.185,0.727-0.531,0.992-1.029
		c0.533-1.002,0.614-2.159,0.621-3.262c0.006-0.868-0.023-1.745-0.088-2.61c-0.061-0.817-0.238-1.817-1.064-2.295
		c-0.013-0.006-0.026-0.013-0.038-0.018c-0.145-0.068-0.309-0.071-0.458-0.011c-0.555,0.098-1.065,0.469-1.404,1.025
		c-0.288,0.475-0.416,1.001-0.511,1.5c-0.35,1.826-0.362,3.679-0.035,5.509c0.052,0.299,0.128,0.639,0.372,0.916
		c0.238,0.271,0.601,0.414,0.98,0.414C22.738,31.408,22.957,31.362,23.158,31.269 M23.152,23.046
		c0.062,0.009,0.125,0.005,0.185-0.012c0.294,0.324,0.376,0.907,0.413,1.403c0.063,0.839,0.091,1.691,0.087,2.534
		c-0.008,1.136-0.098,2.052-0.512,2.829c-0.168,0.314-0.359,0.523-0.565,0.621c-0.184,0.086-0.415,0.065-0.513-0.047
		c-0.083-0.095-0.122-0.278-0.155-0.459c-0.304-1.719-0.294-3.457,0.035-5.17c0.079-0.414,0.181-0.844,0.392-1.19
		c0.148-0.243,0.347-0.428,0.559-0.526C23.103,23.036,23.127,23.043,23.152,23.046"/>
	<path clip-path="url(#SVGID_2_)" fill="#010202" d="M28.46,32.375c0.212-3.635,0.424-7.301-0.093-10.906
		c-0.031-0.216-0.053-0.469,0.105-0.621c0.113-0.111,0.286-0.128,0.445-0.14c0.25-0.019,0.499-0.036,0.749-0.055
		c0.171-0.012,0.351-0.022,0.506,0.052c0.204,0.097,0.314,0.316,0.411,0.521c0.995,2.124,1.914,4.282,2.754,6.472
		c0.363-0.637,0.268-1.424,0.187-2.152c-0.145-1.269-0.215-2.544-0.193-3.819c0.005-0.331,0.062-0.732,0.368-0.861
		c0.121-0.051,0.258-0.044,0.39-0.038c0.352,0.021,0.703,0.039,1.054,0.059c0.095,0.005,0.198,0.014,0.265,0.082
		c0.062,0.062,0.073,0.157,0.078,0.245c0.036,0.683-0.141,1.354-0.24,2.031c-0.125,0.846-0.131,1.704-0.127,2.559
		c0.01,2.163,0.078,4.325,0.206,6.483c-0.512,0.271-1.086,0.42-1.665,0.432c-1.316-2.639-1.732-5.708-3.396-8.143
		c0.039,2.642,0.079,5.282,0.118,7.926c-0.586-0.107-1.179-0.178-1.774-0.213"/>
	<path clip-path="url(#SVGID_2_)" fill="#010202" d="M33.669,33.185c0.65-0.015,1.299-0.181,1.874-0.485
		c0.162-0.087,0.259-0.259,0.248-0.441c-0.127-2.139-0.196-4.313-0.205-6.459c-0.004-0.85,0.003-1.681,0.122-2.486
		c0.025-0.174,0.057-0.348,0.088-0.522c0.091-0.515,0.186-1.048,0.156-1.604c-0.006-0.098-0.02-0.354-0.213-0.549
		c-0.196-0.199-0.449-0.213-0.571-0.22l-1.054-0.058c-0.148-0.008-0.374-0.02-0.598,0.074c-0.422,0.177-0.642,0.61-0.653,1.283
		c-0.021,1.239,0.045,2.546,0.199,3.911c0.005,0.045,0.011,0.091,0.016,0.137c-0.648-1.598-1.342-3.186-2.071-4.739
		c-0.1-0.212-0.268-0.57-0.633-0.744c-0.271-0.13-0.553-0.108-0.74-0.095l-0.749,0.054c-0.174,0.013-0.496,0.035-0.738,0.271
		c-0.342,0.33-0.271,0.815-0.242,1.023c0.512,3.571,0.297,7.254,0.089,10.814c-0.015,0.257,0.182,0.479,0.44,0.494
		c0.105,0.007,0.207-0.025,0.289-0.08c0.526,0.035,1.056,0.101,1.576,0.195c0.138,0.024,0.279-0.014,0.386-0.103
		c0.106-0.091,0.167-0.226,0.165-0.364l-0.091-6.08c0.437,0.946,0.773,1.955,1.123,3c0.391,1.172,0.795,2.383,1.359,3.514
		c0.079,0.158,0.241,0.259,0.418,0.259H33.669z M30.123,24.128c-0.197,0.062-0.33,0.247-0.327,0.452l0.11,7.367
		c-0.314-0.045-0.631-0.08-0.947-0.105c0.199-3.43,0.369-6.963-0.129-10.439c-0.018-0.114-0.02-0.177-0.018-0.213
		c0.045-0.008,0.109-0.013,0.139-0.015l0.749-0.056c0.084-0.006,0.225-0.015,0.271,0.008c0.064,0.029,0.152,0.218,0.189,0.298
		c0.987,2.104,1.91,4.271,2.742,6.439c0.064,0.169,0.221,0.285,0.4,0.3c0.179,0.01,0.353-0.078,0.442-0.235
		c0.434-0.761,0.334-1.634,0.243-2.437c-0.146-1.295-0.21-2.559-0.19-3.76c0.007-0.363,0.083-0.436,0.082-0.436
		c0.029-0.012,0.13-0.007,0.184-0.002l0.959,0.052c0.007,0.413-0.068,0.836-0.147,1.281c-0.033,0.183-0.065,0.363-0.093,0.548
		c-0.128,0.871-0.136,1.74-0.132,2.628c0.009,2.057,0.072,4.14,0.189,6.194c-0.286,0.119-0.589,0.196-0.896,0.232
		c-0.468-0.997-0.827-2.072-1.175-3.113c-0.548-1.64-1.113-3.334-2.118-4.807c-0.089-0.131-0.235-0.204-0.387-0.204
		C30.217,24.106,30.17,24.112,30.123,24.128"/>
	<path clip-path="url(#SVGID_2_)" fill="#010202" d="M37.887,20.39c-0.006,3.013-0.152,6.024-0.439,9.023
		c-0.063,0.668-0.134,1.347-0.012,2.007c0.647,0.157,1.34,0.125,1.972-0.09c-0.036-1.824-0.072-3.65-0.107-5.475
		c0.757,1.779,1.521,3.57,2.602,5.174c0.044,0.066,0.092,0.133,0.162,0.169c0.077,0.039,0.168,0.032,0.253,0.024
		c0.579-0.049,1.157-0.099,1.736-0.146c-0.859-1.822-1.875-3.57-3.034-5.219c-0.16-0.229-0.33-0.482-0.303-0.758
		c0.03-0.314,0.301-0.541,0.536-0.749c1.408-1.247,2.226-3.012,3.005-4.723c-0.359,0.126-0.754,0.153-1.128,0.077
		c-0.284-0.058-0.588-0.172-0.852-0.052c-0.159,0.072-0.271,0.216-0.374,0.357c-0.912,1.245-1.713,2.571-2.389,3.959
		c0.096-1.33,0.116-2.668,0.061-4.001c-0.007-0.158-0.037-0.351-0.186-0.407c-0.442,0.119-0.928,0.069-1.337-0.136
		c-0.099,0.324-0.125,0.669-0.079,1.006"/>
	<path clip-path="url(#SVGID_2_)" fill="#010202" d="M39.556,31.773c0.193-0.066,0.322-0.249,0.318-0.452l-0.062-3.128
		c0.492,1.064,1.038,2.113,1.701,3.098c0.056,0.081,0.158,0.233,0.341,0.325c0.196,0.099,0.388,0.083,0.502,0.073l1.735-0.148
		c0.152-0.012,0.29-0.099,0.366-0.232c0.076-0.133,0.083-0.295,0.018-0.432c-0.869-1.844-1.903-3.623-3.074-5.289
		c-0.093-0.132-0.231-0.33-0.222-0.442c0.013-0.118,0.202-0.285,0.354-0.421l0.027-0.023c1.506-1.334,2.364-3.217,3.121-4.879
		c0.077-0.17,0.046-0.371-0.08-0.509c-0.127-0.14-0.323-0.188-0.5-0.126c-0.278,0.097-0.591,0.119-0.881,0.059
		c-0.047-0.009-0.096-0.021-0.146-0.033c-0.267-0.062-0.632-0.149-0.992,0.015c-0.278,0.126-0.447,0.354-0.558,0.508
		c-0.521,0.712-1.009,1.452-1.457,2.214c0.01-0.668,0.001-1.336-0.026-1.999c-0.022-0.538-0.277-0.746-0.487-0.826
		c-0.092-0.035-0.192-0.04-0.288-0.014c-0.332,0.089-0.698,0.052-1.006-0.103c-0.124-0.061-0.267-0.065-0.394-0.012
		c-0.127,0.056-0.223,0.163-0.264,0.294c-0.084,0.278-0.124,0.57-0.12,0.861c-0.041,0.07-0.064,0.151-0.065,0.237
		c-0.006,2.984-0.152,6.007-0.437,8.979l-0.006,0.056c-0.064,0.676-0.132,1.375-0.001,2.082c0.034,0.182,0.171,0.325,0.351,0.369
		c0.304,0.074,0.619,0.11,0.935,0.11C38.701,31.985,39.144,31.913,39.556,31.773 M37.908,29.514l0.005-0.057
		c0.276-2.898,0.425-5.841,0.44-8.754c0.067-0.093,0.101-0.212,0.083-0.336c-0.015-0.106-0.02-0.216-0.016-0.324
		c0.227,0.046,0.46,0.061,0.69,0.04c0.05,1.28,0.027,2.575-0.063,3.854c-0.016,0.223,0.129,0.427,0.345,0.485
		c0.216,0.057,0.443-0.045,0.542-0.246c0.662-1.36,1.452-2.669,2.347-3.889c0.05-0.068,0.135-0.184,0.188-0.21
		c0.069-0.031,0.247,0.011,0.39,0.046c0.06,0.015,0.118,0.028,0.177,0.04c0.144,0.03,0.29,0.046,0.436,0.051
		c-0.637,1.362-1.393,2.779-2.53,3.786l-0.026,0.024c-0.261,0.229-0.617,0.545-0.665,1.028c-0.045,0.459,0.215,0.828,0.386,1.072
		c1.012,1.439,1.918,2.963,2.7,4.541l-1.055,0.09c-1.056-1.567-1.815-3.354-2.551-5.084c-0.088-0.205-0.31-0.322-0.528-0.273
		c-0.219,0.047-0.374,0.242-0.37,0.467l0.099,5.113c-0.352,0.076-0.72,0.093-1.078,0.045C37.809,30.541,37.857,30.038,37.908,29.514
		"/>
	<path clip-path="url(#SVGID_2_)" fill="#010202" d="M47.472,20.617c-0.45,0.175-0.945,0.229-1.423,0.158
		c-0.279,3.778-0.559,7.555-0.838,11.332c0.524,0.094,1.057,0.135,1.589,0.127c0.133-3.769,0.389-7.535,0.766-11.289"/>
	<path clip-path="url(#SVGID_2_)" fill="#010202" d="M46.807,32.703c0.25-0.004,0.452-0.202,0.461-0.451
		c0.132-3.745,0.389-7.531,0.763-11.259c0.013-0.123-0.023-0.24-0.093-0.331c0.006-0.071-0.003-0.145-0.03-0.214
		c-0.094-0.241-0.364-0.361-0.605-0.268c-0.375,0.147-0.785,0.192-1.184,0.133c-0.128-0.02-0.26,0.017-0.361,0.098
		s-0.165,0.201-0.174,0.331l-0.839,11.332c-0.018,0.238,0.149,0.453,0.386,0.494c0.509,0.091,1.028,0.136,1.545,0.136
		C46.719,32.704,46.763,32.704,46.807,32.703 M46.481,21.274c0.196-0.001,0.394-0.021,0.588-0.059
		c-0.345,3.494-0.587,7.037-0.72,10.546c-0.214-0.009-0.428-0.025-0.641-0.052L46.481,21.274z"/>
</g>
</svg>
