<?xml version="1.0" encoding="utf-8"?>
<!-- Generator: Adobe Illustrator 16.0.0, SVG Export Plug-In . SVG Version: 6.00 Build 0)  -->
<!DOCTYPE svg PUBLIC "-//W3C//DTD SVG 1.1//EN" "http://www.w3.org/Graphics/SVG/1.1/DTD/svg11.dtd">
<svg version="1.1" id="Layer_1" xmlns="http://www.w3.org/2000/svg" xmlns:xlink="http://www.w3.org/1999/xlink" x="0px" y="0px"
	 width="27.758px" height="28.11px" viewBox="0 0 27.758 28.11" enable-background="new 0 0 27.758 28.11" xml:space="preserve">
<g>
	<defs>
		<polygon id="SVGID_1_" points="-40.917,0 27.038,-0.641 28.443,27.435 -40.917,28.11 		"/>
	</defs>
	<clipPath id="SVGID_2_">
		<use xlink:href="#SVGID_1_"  overflow="visible"/>
	</clipPath>
	
		<path clip-path="url(#SVGID_2_)" fill="none" stroke="#010101" stroke-width="1.912" stroke-linecap="round" stroke-linejoin="round" stroke-miterlimit="10" d="
		M13.197,1.631c-1.301-0.01-4.632-0.336-7.462,0.516c-2.685,0.811-3.929,3.042-4.15,5.416c-0.372,3.968-0.199,7.437,0.006,11.36
		c0.141,2.661,0.32,5.894,3.271,6.879c3.642,1.219,6.531,1.139,11.773,0.883c2.826-0.141,5.385,0.357,7.614-1.81
		c2.821-2.74,2.275-5.941,2.438-9.921c0.105-2.614,0.092-5.934-0.355-8.524c-0.588-3.436-3.638-4.766-6.736-4.859
		C17.447,1.502,15.103,1.645,13.197,1.631z"/>
	
		<path clip-path="url(#SVGID_2_)" fill="none" stroke="#010101" stroke-width="1.912" stroke-linecap="round" stroke-linejoin="round" stroke-miterlimit="10" d="
		M14.372,8.299c-4.464-0.225-8.279,5.929-4.356,10.057c2.841,2.997,9.084,1.745,9.794-3.363c0.53-3.855-2.95-7.361-6.854-6.449"/>
	
		<path clip-path="url(#SVGID_2_)" fill="none" stroke="#010101" stroke-width="1.912" stroke-linecap="round" stroke-linejoin="round" stroke-miterlimit="10" d="
		M21.003,6.391c-0.412-0.72-2.169,0.573-0.451,1.03c1.544,0.408,1.639-1.296-0.073-1.272"/>
</g>
</svg>
