<?xml version="1.0" encoding="utf-8"?>
<!-- Generator: Adobe Illustrator 16.0.0, SVG Export Plug-In . SVG Version: 6.00 Build 0)  -->
<!DOCTYPE svg PUBLIC "-//W3C//DTD SVG 1.1//EN" "http://www.w3.org/Graphics/SVG/1.1/DTD/svg11.dtd">
<svg version="1.1" id="Layer_1" xmlns="http://www.w3.org/2000/svg" xmlns:xlink="http://www.w3.org/1999/xlink" x="0px" y="0px"
	 width="27.375px" height="27.247px" viewBox="0 0 27.375 27.247" enable-background="new 0 0 27.375 27.247" xml:space="preserve">
<g>
	<defs>
		<rect id="SVGID_1_" y="0" width="137.05" height="27.247"/>
	</defs>
	<clipPath id="SVGID_2_">
		<use xlink:href="#SVGID_1_"  overflow="visible"/>
	</clipPath>
	
		<path clip-path="url(#SVGID_2_)" fill="none" stroke="#010101" stroke-width="1.912" stroke-linecap="round" stroke-linejoin="round" stroke-miterlimit="10" d="
		M13.09,1.106c-1.295-0.043-4.621-0.46-7.47,0.317c-2.706,0.74-4.009,2.938-4.294,5.308c-0.475,3.954-0.394,7.428-0.293,11.354
		c0.07,2.668,0.166,5.898,3.09,6.963c3.609,1.317,6.501,1.312,11.745,1.194c2.831-0.065,5.374,0.498,7.66-1.608
		c2.892-2.664,2.432-5.884,2.697-9.854c0.176-2.612,0.25-5.931-0.128-8.533c-0.498-3.452-3.51-4.86-6.608-5.036
		C17.342,1.088,14.994,1.168,13.09,1.106z"/>
	
		<path clip-path="url(#SVGID_2_)" fill="none" stroke="#010101" stroke-width="1.912" stroke-linecap="round" stroke-linejoin="round" stroke-miterlimit="10" d="
		M14.228,7.815c-4.447-0.448-8.563,5.507-4.854,9.827c2.689,3.135,8.986,2.198,9.949-2.871c0.724-3.823-2.576-7.498-6.522-6.783"/>
	
		<path clip-path="url(#SVGID_2_)" fill="none" stroke="#010101" stroke-width="1.912" stroke-linecap="round" stroke-linejoin="round" stroke-miterlimit="10" d="
		M20.945,6.241c-0.376-0.739-2.194,0.465-0.503,1.007c1.524,0.486,1.702-1.212-0.007-1.273"/>
</g>
</svg>
