<?xml version="1.0" encoding="utf-8"?>
<!-- Generator: Adobe Illustrator 16.0.0, SVG Export Plug-In . SVG Version: 6.00 Build 0)  -->
<!DOCTYPE svg PUBLIC "-//W3C//DTD SVG 1.1//EN" "http://www.w3.org/Graphics/SVG/1.1/DTD/svg11.dtd">
<svg version="1.1" id="Layer_1" xmlns="http://www.w3.org/2000/svg" xmlns:xlink="http://www.w3.org/1999/xlink" x="0px" y="0px"
	 width="269.894px" height="211.06px" viewBox="0 0 269.894 211.06" enable-background="new 0 0 269.894 211.06"
	 xml:space="preserve">
<g>
	<defs>
		<rect id="SVGID_1_" width="269.894" height="211.06"/>
	</defs>
	<clipPath id="SVGID_2_">
		<use xlink:href="#SVGID_1_"  overflow="visible"/>
	</clipPath>
	<path clip-path="url(#SVGID_2_)" fill="#2E2A25" d="M69.99,97.752c0.818,0.46,1.714,0.684,2.607,0.684
		c1.573,0,3.131-0.691,4.209-1.987c1.464-1.757,1.722-4.315,0.622-6.219c-0.92-1.592-2.639-2.382-4.496-2.059
		c-0.441,0.077-0.828,0.287-1.122,0.583c-1.76,0.161-3.183,1.326-3.865,3.303C67.148,94.367,67.95,96.601,69.99,97.752
		 M71.875,93.413c0.14-0.405,0.27-0.518,0.267-0.52c0.015-0.002,0.171-0.034,0.544,0.091c0.419,0.14,0.853,0.14,1.248,0.022
		c-0.032,0.289-0.145,0.568-0.323,0.78c-0.508,0.612-1.238,0.535-1.577,0.345C71.875,94.041,71.694,93.938,71.875,93.413"/>
	<path clip-path="url(#SVGID_2_)" fill="#2E2A25" d="M103.095,98.896c0.653,0,1.327-0.116,1.999-0.356
		c2.1-0.749,3.624-2.495,3.792-4.344c0.145-1.589-0.679-3.025-2.256-3.937c-0.009-0.005-0.017-0.01-0.024-0.015
		c-0.13-0.703-0.621-1.319-1.343-1.579c-2.341-0.843-4.98,0.132-6.415,2.369c-1.351,2.107-1.125,4.592,0.575,6.326
		C100.413,98.37,101.708,98.896,103.095,98.896 M102.727,93.59c0.27-0.147,1.228-0.072,1.823,0.27
		c0.048,0.029,0.091,0.055,0.123,0.079c-0.169,0.239-0.59,0.593-1.147,0.739c-0.727,0.191-1.033-0.125-1.134-0.228
		c-0.07-0.073-0.202-0.207-0.243-0.422C102.361,93.919,102.556,93.772,102.727,93.59"/>
	<path clip-path="url(#SVGID_2_)" fill="#2E2A25" d="M41.392,50.115c0.294,0.144,0.607,0.214,0.915,0.214
		c0.768,0,1.505-0.429,1.869-1.163c1.136-2.316,2.082-4.722,2.968-7.106c0.432,1.992,0.899,4,1.414,6.022
		c-0.043,2.271,0.034,4.205,0.327,5.286c0.207,0.763,0.834,1.319,1.597,1.473c0.498,1.585,1.026,3.172,1.604,4.758
		c0.007,1.91,0.173,3.723,0.878,5.115c0.304,0.599,0.872,0.999,1.51,1.107c0.21,0.617,0.412,1.262,0.621,1.932
		c0.533,1.714,1.142,3.544,1.958,5.246c-0.111,0.345-0.166,0.711-0.079,1.091c0.837,3.605,1.777,8.864,1.984,12.483
		c0.346,6.089,0.765,10.773,1.358,15.191l0.18,1.363c1.036,7.763,2.211,16.563,4.626,24.223c0.445,1.407,0.807,2.844,1.158,4.233
		c0.629,2.49,1.279,5.066,2.427,7.647c0.653,1.47,1.202,3.027,1.78,4.674c0.358,1.021,0.729,2.075,1.129,3.104
		c1.825,4.727,4.561,9.49,8.608,14.992c0.133,0.183,0.337,0.496,0.573,0.859c1.893,2.923,6.323,9.767,14.053,9.767
		c6.316,0,11.519-5.398,15.044-15.615c2.529-7.325,4.243-15.613,4.828-23.335c0.21-2.764,0.98-8.7,1.659-13.935
		c0.583-4.506,1.089-8.394,1.168-9.732c0.039-0.626,0.166-2.151,0.33-4.082c0.453-5.389,1.213-14.409,1.189-18.158
		c0.005-0.207,0.085-1.141,0.157-1.964c0.722-8.264,0.602-10.126-0.106-11.221c-0.185-0.292-0.443-0.496-0.722-0.655
		c2.694-3.494,3.953-8.392,4.755-12.437c0.443-2.247,0.797-4.503,1.137-6.687c0.356-2.294,0.727-4.669,1.199-6.978
		c1.233-6.036,2.682-25.389,2.916-31.741c0.096-2.641,0.758-13.77,0.763-13.884c0.053-0.883-0.46-1.702-1.276-2.042
		c-0.816-0.341-1.758-0.127-2.348,0.533c-1.866,2.082-4.279,7.194-4.746,8.198c-1.091,2.358-2.552,4.703-3.963,6.974l-0.489,0.787
		c-1.534,2.471-6.744,11.698-7.97,14.06c-4.994,9.617-7.566,21.372-7.058,32.249c0.065,1.392,0.058,2.783,0.049,4.259
		c-0.008,1.118-0.003,2.266,0.026,3.417c-1.31-0.123-2.605-0.2-3.855-0.241c0.017-0.207,0.036-0.423,0.065-0.544
		c0.171-1.187,0.25-2.092-0.602-2.793c-0.888-0.73-1.965-0.628-2.694,0.26c-0.79,0.963-0.87,2.102-0.935,3.02
		c0,0.007-0.002,0.014-0.002,0.021c-0.869,0.008-1.741,0.046-2.61,0.089c0.262-1.285,0.366-2.718,0.448-4.144
		c0.062-1.086,0.12-2.111,0.25-2.817c0.207-1.129-0.539-2.213-1.669-2.422c-1.129-0.205-2.212,0.539-2.422,1.668
		c-0.176,0.961-0.241,2.115-0.311,3.335c-0.084,1.469-0.224,3.933-0.669,4.573c-0.029,0.043-0.031,0.094-0.058,0.137
		c-0.674,0.068-1.346,0.137-2.018,0.217c0.123-1.214,0.041-2.502-0.033-3.597c-0.027-0.376-0.051-0.73-0.053-0.935
		c-0.029-3.294-0.256-6.106-1.267-9.123c-0.366-1.089-1.543-1.676-2.632-1.31c-1.088,0.363-1.676,1.543-1.31,2.632
		c0.841,2.506,1.024,4.856,1.05,7.837c0.003,0.33,0.032,0.728,0.063,1.188c0.055,0.816,0.205,2.952-0.084,3.609
		c-0.087,0.084-0.133,0.19-0.203,0.284c-0.761,0.111-1.521,0.219-2.275,0.33c-0.048-1.007,0.062-2.514,0.125-3.361
		c0.058-0.795,0.113-1.544,0.113-2.151c0-1.148-0.929-2.078-2.078-2.078c-1.148,0-2.08,0.93-2.08,2.078
		c0,0.453-0.048,1.13-0.101,1.845c-0.125,1.668-0.183,3.072-0.075,4.264h-0.007c-1.457,0.207-3.044,0.395-4.655,0.496
		c1.556-4.888,1.488-12.165,1.431-17.166v-0.079c-0.075-6.391-2.004-12.767-3.807-18.242c-2.382-7.227-5.457-14.132-8.83-19.947
		c0.84-1.587,1.722-3.155,2.726-4.686c0.628-0.961,0.359-2.252-0.602-2.88c-0.961-0.629-2.249-0.359-2.878,0.602
		c-0.631,0.963-1.194,1.936-1.753,2.909c-0.026-0.039-0.05-0.08-0.077-0.118c-4.37-6.499-7.833-9.413-10.289-8.671
		c-0.854,0.257-1.447,1.033-1.476,1.924c-0.038,1.257,1.24,21.676,2.211,26.954c0.038,0.214,0.082,0.433,0.12,0.647
		c-0.491,1.289-0.958,2.577-1.418,3.843c-1.12,3.097-2.28,6.297-3.725,9.237C39.935,48.362,40.361,49.609,41.392,50.115
		 M55.827,47.955c0.034,0.099,0.068,0.197,0.102,0.296c0.313,0.913,0.63,1.844,0.977,2.769c-0.079,0.111-0.152,0.231-0.209,0.359
		c-0.157,0.344-0.309,0.676-0.451,1.002C56.092,50.958,55.941,49.467,55.827,47.955 M62.671,71.608
		c-0.179,0.337-0.256,0.698-0.241,1.054c-0.214-0.033-0.419-0.072-0.641-0.101c-0.744-3.161-0.963-7.869-1.025-11.967
		c1.24,3.537,2.111,7.142,2.027,10.816C62.748,71.473,62.707,71.538,62.671,71.608 M78.276,150.014
		c-0.226-0.595-0.65-1.578-1.141-2.712c-0.056-0.13-0.116-0.267-0.176-0.412c1.11,0.533,2.256,0.981,3.378,1.231
		c3.441,0.772,7.718,0.899,11.734,0.355c8.815-1.195,13.152-0.135,14.481,1.344c-0.484,3.161-1.888,5.656-4.197,7.443
		c-1.216,0.944-2.839,1.136-4.719,1.36c-0.53,0.062-1.067,0.128-1.606,0.207c-3.174,0.475-6.02,0.289-8.019-0.522
		C83.073,156.305,79.524,153.28,78.276,150.014 M98.943,143.794c-2.189,0-4.666,0.188-7.431,0.562
		c-3.493,0.476-7.332,0.364-10.264-0.293c-1.951-0.436-4.4-1.912-6.201-3.044c0.181-1.264,1.185-2.764,2.827-4.187
		c1.724-1.493,4.06-2.804,5.955-3.335c3.527-0.99,8.753-0.874,12.119-0.348c2.959,0.462,9.696,2.538,10.676,11.818
		C104.674,144.186,102.112,143.794,98.943,143.794 M94.85,168.468c-4.927,0-8.204-4.311-10.015-7.031
		c0.528,0.25,1.057,0.5,1.614,0.728c2.01,0.815,4.221,1.083,6.263,1.083c1.437,0,2.79-0.133,3.929-0.305
		c0.501-0.073,0.997-0.131,1.486-0.188c1.775-0.212,3.595-0.437,5.319-1.296C101.455,165.119,98.608,168.468,94.85,168.468
		 M112.064,32.629c1.172-2.257,6.354-11.431,7.813-13.786l0.487-0.782c1.454-2.336,2.957-4.749,4.146-7.289
		c-0.123,2.198-0.226,4.202-0.262,5.163c-0.222,6.075-1.662,25.323-2.834,31.059c-0.492,2.406-0.87,4.828-1.233,7.171
		c-0.335,2.143-0.679,4.358-1.108,6.518c-0.782,3.956-2.03,8.791-4.674,11.5c-0.979-0.306-2.039-0.539-3.113-0.739
		c2.468-3.436,3.581-7.732,4.57-11.633l0.027-0.106c1.168-4.599,1.818-9.049,1.991-13.604c0.118-3.14,1.69-12.1,1.705-12.191
		c0.178-1.017-0.414-2.009-1.392-2.334c-0.975-0.325-2.047,0.116-2.511,1.036c-0.239,0.472-5.849,11.586-6.807,13.99
		c-1.469,3.686-2.392,7.476-3.285,11.141l-0.139,0.575C105.738,49.467,108.074,40.317,112.064,32.629 M74.046,76.626
		c1.138-0.162,2.277-0.33,3.419-0.499c5.413-0.799,11.011-1.628,16.451-1.628h0.036c2.379,0.003,5.179,0.046,7.924,0.357
		c1.182,0.135,2.355,0.156,3.487,0.178c1.413,0.026,2.747,0.051,3.992,0.284c0.19,0.036,0.4,0.072,0.628,0.113
		c2.825,0.504,4.441,1.004,4.799,1.496c0.207,0.286,0.475,0.5,0.771,0.645c0.031,2.1-0.332,6.292-0.47,7.871
		c-0.12,1.38-0.173,2.006-0.171,2.346c0.02,3.568-0.729,12.47-1.177,17.789c-0.171,2.035-0.296,3.504-0.337,4.18
		c-0.072,1.197-0.59,5.206-1.142,9.449c-0.686,5.288-1.461,11.28-1.68,14.153c-0.164,2.159-0.455,4.396-0.807,6.65
		c-0.775-2.283-1.941-4.288-3.515-5.979c-2.485-2.665-5.825-4.39-9.666-4.991c-3.633-0.569-9.451-0.79-13.881,0.455
		c-2.517,0.705-5.341,2.272-7.556,4.193c-1.216,1.056-2.17,2.155-2.875,3.275c-0.855-2.071-1.404-4.178-1.965-6.4
		c-0.364-1.446-0.742-2.944-1.223-4.467c-2.307-7.314-3.408-15.555-4.469-23.522l-0.183-1.363c-0.576-4.31-0.988-8.897-1.327-14.876
		c-0.157-2.755-0.706-6.357-1.324-9.572c0.231,0.036,0.455,0.07,0.693,0.111c0.595,0.106,1.209,0.214,1.837,0.267
		C67.648,77.43,71.105,77.042,74.046,76.626 M62.48,38.819c1.708,5.18,3.533,11.19,3.6,16.988v0.079
		c0.024,2.158,0.048,4.953-0.079,7.744c-1-4.072-2.639-7.97-4.269-11.789l-0.342-0.797c-0.559-1.312-1.029-2.685-1.527-4.139
		c-0.727-2.124-1.478-4.317-2.545-6.367c-1.284-2.463-3.4-8.882-3.422-8.947c-0.296-0.901-1.165-1.472-2.104-1.414
		c0.344-0.79,0.693-1.579,1.033-2.362c0.842-1.953,1.683-3.855,2.547-5.728C57.783,26.565,60.282,32.147,62.48,38.819
		 M52.844,17.714c-1.36,2.752-2.586,5.557-3.836,8.452c-0.065,0.147-0.132,0.298-0.197,0.45c-0.484-5.16-0.951-11.847-1.204-16.008
		C48.996,12.101,50.833,14.485,52.844,17.714"/>
	<path clip-path="url(#SVGID_2_)" fill="#2E2A25" d="M79.981,137.872c-0.159,0.077-0.306,0.176-0.441,0.291
		c-1.167,1.002-1.11,2.042-0.972,2.574c0.219,0.838,0.907,1.474,1.798,1.656c0.169,0.034,0.373,0.056,0.597,0.056
		c0.802,0,1.862-0.261,2.483-1.064c0.828-1.071,0.616-2.266,0.038-2.976C82.714,137.459,81.272,137.239,79.981,137.872"/>
	<path clip-path="url(#SVGID_2_)" fill="#2E2A25" d="M99.207,138.03c-0.453,0.26-0.771,0.662-0.932,1.12
		c-0.503,0.929-0.375,1.86-0.041,2.481c0.467,0.867,1.433,1.404,2.468,1.404c0.113,0,0.224-0.005,0.337-0.019
		c1.11-0.125,2.013-0.872,2.298-1.902c0.301-1.079-0.056-2.17-0.927-2.849C101.494,137.555,100.209,137.458,99.207,138.03"/>
	<path clip-path="url(#SVGID_2_)" fill="#2E2A25" d="M53.619,116.235c-1.68-35.636-12.923-45.992-33.855-45.006L2.408,72.045
		c-1.589,0.077-2.48,0.915-2.403,2.504l4.166,88.365c0.074,1.591,1.04,2.342,2.629,2.267l17.621-0.831
		C45.221,163.368,55.307,152.004,53.619,116.235 M23.865,152.558l-7.286,0.345l-3.28-69.553l7.022-0.332
		c12.186-0.576,18.885,6.28,20.183,33.836C41.797,144.278,36.054,151.983,23.865,152.558"/>
	<path clip-path="url(#SVGID_2_)" fill="#2E2A25" d="M181.501,169.039l0.547-88.461c0.009-1.592-0.78-2.392-2.372-2.401
		l-7.562-0.048c-1.724-0.01-2.522,0.78-2.532,2.372l-0.389,62.6l-25.208-63.023c-0.652-1.594-1.444-2.131-3.304-2.142l-7.426-0.045
		c-1.591-0.009-2.526,0.781-2.535,2.37l-0.547,88.461c-0.009,1.591,0.915,2.395,2.507,2.403l7.557,0.048
		c1.593,0.01,2.395-0.782,2.404-2.374l0.385-62.598l25.344,63.021c0.52,1.463,1.443,2.132,3.169,2.144l7.56,0.046
		C180.689,171.422,181.49,170.63,181.501,169.039"/>
	<path clip-path="url(#SVGID_2_)" fill="#2E2A25" d="M207.905,69.209c0-1.592-0.795-2.386-2.386-2.386h-7.958
		c-1.592,0-2.521,0.794-2.521,2.386v88.464c0,1.591,0.93,2.386,2.521,2.386h7.958c1.591,0,2.386-0.795,2.386-2.386v-40.585
		l22.945,40.85c0.53,1.194,1.459,2.121,3.051,2.121h9.017c1.989,0,2.521-1.327,1.725-2.918l-26.259-46.816l25.597-40.583
		c0.927-1.459,0.265-2.918-1.592-2.918h-8.224c-1.724,0-2.518,0.794-3.314,1.989l-22.945,35.81V69.209z"/>
	<path clip-path="url(#SVGID_2_)" fill="#2E2A25" d="M259.731,75.829c-1.587-0.111-2.437,0.626-2.55,2.213l-6.208,88.244
		c-0.11,1.59,0.626,2.438,2.216,2.55l7.938,0.559c1.588,0.111,2.436-0.626,2.549-2.214l6.208-88.246
		c0.109-1.587-0.626-2.437-2.213-2.547L259.731,75.829z"/>
	<path clip-path="url(#SVGID_2_)" fill="#00A97A" d="M34.694,187.006c0.315,0.046,0.494-0.084,0.539-0.397
		c0.068-0.458,0.135-0.915,0.2-1.374c0.046-0.309-0.086-0.487-0.399-0.53c-2.276-0.337-4.549-0.685-6.82-1.04
		c-0.313-0.053-0.517,0.072-0.57,0.412c-0.908,5.728-1.816,11.456-2.724,17.185c-0.053,0.332,0.109,0.521,0.431,0.57
		c0.525,0.082,1.05,0.164,1.575,0.246c0.323,0.053,0.53-0.075,0.583-0.412c0.38-2.456,0.761-4.912,1.139-7.368
		c1.56,0.241,3.118,0.477,4.678,0.706c0.318,0.048,0.504-0.114,0.549-0.422c0.065-0.44,0.128-0.879,0.193-1.319
		c0.046-0.312-0.087-0.492-0.405-0.537c-1.555-0.229-3.108-0.465-4.664-0.703c0.296-1.915,0.593-3.829,0.889-5.74
		C31.489,186.527,33.09,186.77,34.694,187.006"/>
	<path clip-path="url(#SVGID_2_)" fill="#00A97A" d="M46.823,192.456c0.564-4.417-0.715-6.203-4.755-6.755
		c-1.173-0.159-2.346-0.322-3.521-0.488c-0.31-0.049-0.515,0.084-0.558,0.395c-0.824,5.758-1.645,11.517-2.468,17.274
		c-0.044,0.311,0.12,0.493,0.44,0.539c0.537,0.077,1.072,0.152,1.609,0.227c0.32,0.046,0.503-0.091,0.544-0.399
		c0.27-1.944,0.539-3.887,0.811-5.83c0.504,0.07,1.007,0.139,1.513,0.207c0.659,2.097,1.326,4.195,2.001,6.29
		c0.096,0.303,0.245,0.428,0.618,0.475c0.545,0.074,1.089,0.146,1.633,0.217c0.402,0.053,0.518-0.198,0.395-0.53
		c-0.72-2.142-1.435-4.284-2.138-6.429C45.003,197.417,46.372,195.983,46.823,192.456 M44.218,192.116
		c-0.366,2.772-1.12,3.6-3.424,3.287c-0.52-0.07-1.04-0.143-1.56-0.215c0.342-2.46,0.686-4.926,1.028-7.386
		c0.479,0.068,0.958,0.134,1.437,0.198C44.054,188.324,44.599,189.236,44.218,192.116"/>
	<path clip-path="url(#SVGID_2_)" fill="#00A97A" d="M57.489,189.975c0.313,0.039,0.489-0.104,0.525-0.414
		c0.05-0.46,0.103-0.92,0.154-1.38c0.036-0.311-0.104-0.483-0.417-0.52c-2.299-0.26-4.599-0.532-6.896-0.816
		c-0.313-0.041-0.513,0.096-0.554,0.407l-2.152,17.315c-0.036,0.314,0.13,0.492,0.452,0.531c2.384,0.294,4.773,0.578,7.161,0.849
		c0.318,0.035,0.499-0.103,0.535-0.415c0.051-0.459,0.101-0.919,0.154-1.377c0.034-0.313-0.108-0.484-0.428-0.522
		c-1.693-0.19-3.386-0.39-5.079-0.594c0.236-1.966,0.475-3.932,0.711-5.896c1.579,0.19,3.161,0.376,4.743,0.558
		c0.318,0.036,0.496-0.104,0.53-0.415c0.051-0.434,0.099-0.866,0.147-1.3c0.036-0.313-0.106-0.487-0.422-0.522
		c-1.577-0.179-3.154-0.364-4.729-0.554c0.222-1.835,0.443-3.672,0.665-5.507C54.221,189.599,55.854,189.79,57.489,189.975"/>
	<path clip-path="url(#SVGID_2_)" fill="#00A97A" d="M65.278,190.55c0.867,0.089,1.712,0.355,2.047,0.467
		c0.383,0.146,0.607,0.031,0.64-0.303c0.044-0.443,0.084-0.886,0.13-1.329c0.032-0.34-0.082-0.509-0.414-0.646
		c-0.537-0.185-1.49-0.408-2.405-0.502c-3.499-0.361-4.905,1.109-5.228,4.05c-0.311,2.837,1.06,4.485,2.579,5.88
		c1.637,1.515,2.456,2.485,2.287,4.154c-0.163,1.64-1.131,2.413-3.062,2.209c-0.937-0.098-1.963-0.362-2.454-0.577
		c-0.364-0.145-0.592-0.036-0.629,0.301c-0.048,0.434-0.093,0.867-0.142,1.301c-0.038,0.366,0.082,0.484,0.472,0.657
		c0.597,0.248,1.845,0.515,2.948,0.628c3.118,0.323,5.174-1.033,5.478-4.183c0.274-2.838-1.058-4.334-2.888-6.069
		c-1.143-1.115-2.193-2.281-2.013-3.998C62.781,191.106,63.47,190.365,65.278,190.55"/>
	<path clip-path="url(#SVGID_2_)" fill="#00A97A" d="M77.839,208.092c0.537,0.043,1.076,0.087,1.613,0.131
		c0.323,0.026,0.496-0.118,0.52-0.434c0.456-5.8,0.908-11.597,1.363-17.396c0.027-0.312-0.12-0.48-0.436-0.507
		c-0.522-0.041-1.047-0.084-1.57-0.125c-0.315-0.023-0.483,0.118-0.51,0.429c-0.2,2.443-0.4,4.885-0.6,7.33
		c-1.625-0.136-3.25-0.272-4.873-0.417c0.217-2.441,0.436-4.884,0.652-7.324c0.027-0.312-0.115-0.48-0.428-0.511
		c-0.523-0.046-1.048-0.095-1.57-0.143c-0.316-0.025-0.513,0.111-0.542,0.421c-0.537,5.794-1.074,11.585-1.613,17.376
		c-0.029,0.315,0.144,0.489,0.467,0.518c0.537,0.05,1.074,0.099,1.613,0.146c0.323,0.028,0.496-0.114,0.525-0.426
		c0.229-2.581,0.46-5.16,0.689-7.739c1.63,0.146,3.26,0.284,4.89,0.417c-0.212,2.581-0.424,5.162-0.635,7.744
		C77.367,207.896,77.516,208.067,77.839,208.092"/>
	<path clip-path="url(#SVGID_2_)" fill="#00A97A" d="M83.411,211.015c0.197,0.014,0.397,0.029,0.595,0.043
		c0.269,0.017,0.385-0.074,0.481-0.279c0.349-0.727,0.701-1.454,1.048-2.182c0.096-0.204,0.103-0.281,0.12-0.544
		c0.043-0.626,0.087-1.252,0.133-1.878c0.021-0.311-0.104-0.481-0.424-0.501c-0.554-0.041-1.108-0.079-1.662-0.12
		c-0.349-0.027-0.493,0.12-0.517,0.433c-0.049,0.68-0.099,1.358-0.15,2.037c-0.024,0.337,0.101,0.48,0.451,0.504
		c0.151,0.013,0.303,0.024,0.457,0.033c-0.248,0.675-0.496,1.346-0.744,2.018C83.1,210.81,83.167,210.996,83.411,211.015"/>
	<path clip-path="url(#SVGID_2_)" fill="#00A97A" d="M102.542,193.583c0.315,0.015,0.482-0.135,0.496-0.448
		c0.022-0.462,0.043-0.924,0.065-1.387c0.012-0.311-0.137-0.478-0.453-0.491c-2.29-0.106-4.579-0.226-6.869-0.356
		c-0.316-0.02-0.506,0.125-0.528,0.468c-0.334,5.788-0.669,11.579-1.004,17.368c-0.019,0.337,0.159,0.506,0.482,0.524
		c0.53,0.031,1.059,0.061,1.589,0.09c0.325,0.017,0.52-0.131,0.539-0.468c0.133-2.483,0.268-4.963,0.402-7.445
		c1.573,0.084,3.143,0.164,4.715,0.238c0.318,0.014,0.486-0.16,0.501-0.474c0.022-0.443,0.041-0.89,0.063-1.332
		c0.014-0.315-0.138-0.482-0.456-0.494c-1.567-0.074-3.132-0.153-4.697-0.238c0.103-1.934,0.207-3.867,0.313-5.801
		C99.313,193.423,100.93,193.505,102.542,193.583"/>
	<path clip-path="url(#SVGID_2_)" fill="#00A97A" d="M110.863,191.595c-0.761-0.029-1.522-0.058-2.283-0.085
		c-0.472-0.02-0.585,0.159-0.677,0.497c-1.514,5.728-3.06,11.447-4.64,17.165c-0.067,0.311,0.085,0.528,0.41,0.542
		c0.537,0.023,1.076,0.048,1.615,0.069c0.352,0.018,0.492-0.135,0.557-0.421c0.373-1.373,0.741-2.746,1.11-4.119
		c1.497,0.062,2.998,0.117,4.495,0.165c0.275,1.396,0.552,2.792,0.831,4.19c0.046,0.289,0.173,0.45,0.498,0.46
		c0.547,0.016,1.096,0.033,1.643,0.05c0.327,0.009,0.491-0.196,0.447-0.51c-1.155-5.818-2.28-11.638-3.368-17.46
		C111.433,191.797,111.308,191.612,110.863,191.595 M107.47,203.013c0.71-2.904,1.413-5.812,2.109-8.717
		c0.02,0.003,0.036,0.003,0.056,0.003c0.489,2.949,0.985,5.898,1.49,8.849C109.907,203.105,108.688,203.061,107.47,203.013"/>
	<path clip-path="url(#SVGID_2_)" fill="#00A97A" d="M120.15,208.184c-0.942-0.021-1.984-0.2-2.492-0.371
		c-0.373-0.113-0.593,0.012-0.6,0.352c-0.009,0.437-0.021,0.872-0.033,1.308c-0.01,0.366,0.122,0.472,0.524,0.614
		c0.617,0.2,1.881,0.36,2.986,0.383c3.128,0.062,5.066-1.459,5.103-4.625c0.036-2.851-1.411-4.231-3.379-5.808
		c-1.228-1.02-2.374-2.089-2.333-3.817c0.034-1.49,0.655-2.285,2.471-2.251c0.869,0.014,1.733,0.212,2.075,0.294
		c0.395,0.112,0.607-0.021,0.612-0.357c0.007-0.445,0.012-0.888,0.019-1.334c0.005-0.342-0.125-0.498-0.465-0.608
		c-0.549-0.137-1.517-0.282-2.436-0.301c-3.514-0.067-4.787,1.517-4.864,4.474c-0.075,2.848,1.425,4.38,3.053,5.642
		c1.758,1.372,2.651,2.275,2.624,3.949C122.986,207.375,122.088,208.223,120.15,208.184"/>
	<path clip-path="url(#SVGID_2_)" fill="#00A97A" d="M130.726,210.392c0.539,0.002,1.079,0.008,1.618,0.008
		c0.323,0.003,0.486-0.154,0.486-0.47c0.015-5.196,0.029-10.395,0.044-15.594c0.869,0.003,1.738,0.005,2.608,0.003
		c0.344,0.002,0.5-0.157,0.5-0.472c-0.002-0.463-0.002-0.923-0.002-1.387c-0.002-0.314-0.159-0.469-0.501-0.469
		c-2.571,0.003-5.146-0.009-7.717-0.036c-0.316-0.004-0.472,0.155-0.477,0.466c-0.005,0.462-0.012,0.925-0.017,1.387
		c-0.002,0.312,0.154,0.474,0.47,0.474c0.869,0.01,1.738,0.018,2.608,0.025c-0.034,5.196-0.068,10.394-0.102,15.59
		C130.242,210.234,130.403,210.39,130.726,210.392"/>
	<path clip-path="url(#SVGID_2_)" fill="#00A97A" d="M143.489,205.039c0.043,3.767,2.304,5.495,5.704,5.429
		c1.94-0.041,3.034-0.644,4.004-1.612c0.224,0.326,0.449,0.651,0.672,0.976c0.14,0.179,0.253,0.311,0.549,0.302
		c0.576-0.018,1.149-0.034,1.725-0.054c0.27-0.007,0.37-0.22,0.201-0.45c-0.546-0.812-1.09-1.622-1.632-2.438
		c0.739-1.384,1.074-2.674,1.033-4.088c-0.017-0.546-0.058-0.992-0.181-1.539c-0.031-0.208-0.147-0.44-0.438-0.43
		c-0.417,0.011-0.833,0.023-1.252,0.032c-0.294,0.011-0.474,0.146-0.467,0.432c0.014,0.548,0.185,0.965,0.2,1.487
		c0.009,0.366-0.022,1.127-0.269,1.971c-1.599-2.409-3.183-4.824-4.75-7.244c-0.547-0.828-0.9-1.576-0.918-2.335
		c-0.021-1.257,0.601-1.766,2.338-1.801c0.629-0.015,1.315,0.074,1.741,0.166c0.344,0.069,0.525-0.066,0.515-0.405
		c-0.007-0.348-0.016-0.697-0.025-1.044c-0.007-0.364-0.146-0.497-0.486-0.566c-0.581-0.14-1.503-0.224-2.313-0.207
		c-2.938,0.063-4.125,1.459-4.095,3.607c0.02,1.1,0.43,2.114,1.14,3.33c0.145,0.226,0.289,0.45,0.436,0.673
		C144.681,200.134,143.457,202.448,143.489,205.039 M148.042,201.042c1.315,2.009,2.645,4.013,3.98,6.011
		c-0.546,0.693-1.42,1.239-2.767,1.266c-2.07,0.041-3.19-1.225-3.227-3.422C146.003,203.33,146.619,201.75,148.042,201.042"/>
	<path clip-path="url(#SVGID_2_)" fill="#00A97A" d="M170.451,204.365c0.268-0.015,0.396-0.149,0.465-0.34
		c0.924-2.501,1.837-5.004,2.74-7.512c0.231,4.104,0.462,8.205,0.692,12.307c0.018,0.312,0.188,0.462,0.511,0.441
		c0.511-0.03,1.023-0.06,1.534-0.088c0.326-0.02,0.503-0.19,0.484-0.501c-0.347-5.808-0.696-11.614-1.045-17.421
		c-0.018-0.312-0.212-0.455-0.527-0.439c-0.49,0.029-0.978,0.059-1.47,0.086c-0.285,0.019-0.438,0.13-0.529,0.369
		c-1.012,2.932-2.037,5.859-3.078,8.786c-1.331-2.804-2.65-5.611-3.956-8.424c-0.114-0.23-0.278-0.328-0.565-0.315
		c-0.487,0.021-0.98,0.044-1.468,0.064c-0.318,0.015-0.492,0.177-0.479,0.491c0.245,5.812,0.491,11.623,0.739,17.435
		c0.013,0.314,0.207,0.463,0.529,0.449c0.513-0.021,1.026-0.046,1.536-0.068c0.325-0.016,0.479-0.178,0.464-0.492
		c-0.189-4.104-0.378-8.206-0.564-12.31c1.153,2.4,2.316,4.795,3.489,7.192C170.044,204.253,170.181,204.378,170.451,204.365"/>
	<path clip-path="url(#SVGID_2_)" fill="#00A97A" d="M180.645,208.908c2.396-0.157,4.792-0.325,7.186-0.507
		c0.322-0.023,0.472-0.191,0.447-0.509c-0.036-0.46-0.07-0.922-0.105-1.381c-0.024-0.315-0.197-0.456-0.519-0.433
		c-1.696,0.13-3.396,0.253-5.095,0.367c-0.135-1.975-0.269-3.948-0.404-5.926c1.587-0.107,3.173-0.221,4.758-0.342
		c0.32-0.024,0.468-0.192,0.443-0.505c-0.034-0.437-0.064-0.87-0.099-1.305c-0.024-0.312-0.195-0.458-0.514-0.436
		c-1.582,0.121-3.16,0.235-4.743,0.343c-0.126-1.845-0.252-3.688-0.377-5.532c1.639-0.113,3.276-0.232,4.917-0.355
		c0.314-0.026,0.459-0.194,0.435-0.505c-0.033-0.462-0.07-0.922-0.106-1.384c-0.023-0.313-0.191-0.458-0.505-0.432
		c-2.307,0.174-4.611,0.334-6.918,0.485c-0.315,0.023-0.488,0.189-0.467,0.501c0.375,5.806,0.749,11.612,1.124,17.415
		C180.122,208.785,180.319,208.928,180.645,208.908"/>
	<path clip-path="url(#SVGID_2_)" fill="#00A97A" d="M190.731,208.175c0.566-0.046,1.129-0.091,1.695-0.137
		c0.376-0.032,0.522-0.228,0.608-0.473c0.718-2.134,1.425-4.267,2.124-6.402c1.058,1.981,2.121,3.964,3.195,5.939
		c0.13,0.225,0.309,0.396,0.684,0.359c0.564-0.054,1.132-0.104,1.693-0.159c0.349-0.031,0.431-0.327,0.299-0.578
		c-1.565-2.788-3.112-5.579-4.647-8.374c0.987-2.943,1.956-5.888,2.912-8.832c0.107-0.274-0.027-0.552-0.367-0.518
		c-0.559,0.053-1.117,0.103-1.675,0.155c-0.366,0.034-0.509,0.206-0.591,0.473c-0.647,2.057-1.308,4.11-1.97,6.165
		c-1.002-1.907-1.994-3.819-2.98-5.734c-0.125-0.25-0.297-0.394-0.662-0.363c-0.568,0.046-1.138,0.095-1.703,0.138
		c-0.341,0.026-0.395,0.322-0.272,0.572c1.46,2.735,2.932,5.467,4.419,8.194c-1.025,3.021-2.068,6.037-3.128,9.051
		C190.249,207.925,190.383,208.201,190.731,208.175"/>
	<path clip-path="url(#SVGID_2_)" fill="#00A97A" d="M203.922,188.512c-0.521,0.054-1.045,0.105-1.569,0.157
		c-0.313,0.03-0.454,0.204-0.424,0.516c0.57,5.787,1.142,11.576,1.71,17.367c0.03,0.312,0.207,0.453,0.529,0.419
		c0.537-0.053,1.074-0.105,1.611-0.16c0.322-0.032,0.469-0.205,0.435-0.519c-0.59-5.786-1.182-11.572-1.772-17.361
		C204.408,188.62,204.235,188.482,203.922,188.512"/>
	<path clip-path="url(#SVGID_2_)" fill="#00A97A" d="M217.443,203.157c-0.34,0.12-1.12,0.396-1.842,0.479
		c-2.863,0.333-3.995-1.075-4.606-6.637c-0.61-5.543,0.139-7.147,2.889-7.466c0.655-0.074,1.459-0.012,1.812,0.027
		c0.376,0.033,0.539-0.146,0.501-0.481c-0.051-0.417-0.102-0.831-0.149-1.247c-0.045-0.364-0.188-0.455-0.54-0.517
		c-0.457-0.074-1.394-0.15-2.309-0.045c-4.067,0.467-5.584,2.854-4.826,10.012c0.759,7.176,2.849,9.177,7.065,8.692
		c0.994-0.115,1.911-0.407,2.353-0.592c0.334-0.147,0.455-0.266,0.411-0.629c-0.048-0.416-0.098-0.833-0.149-1.247
		C218.014,203.167,217.807,203.035,217.443,203.157"/>
	<path clip-path="url(#SVGID_2_)" fill="#00A97A" d="M229.341,203.566c0.091,0.278,0.248,0.417,0.568,0.371
		c0.544-0.071,1.088-0.146,1.633-0.223c0.322-0.043,0.455-0.273,0.356-0.578c-2.109-5.543-4.188-11.096-6.234-16.656
		c-0.123-0.327-0.276-0.49-0.72-0.43c-0.756,0.1-1.513,0.199-2.268,0.298c-0.473,0.058-0.553,0.255-0.589,0.602
		c-0.542,5.9-1.116,11.799-1.726,17.697c-0.016,0.322,0.171,0.507,0.493,0.469c0.536-0.064,1.072-0.134,1.608-0.2
		c0.347-0.044,0.463-0.217,0.479-0.508c0.14-1.416,0.277-2.832,0.408-4.245c1.492-0.192,2.981-0.389,4.473-0.588
		C228.327,200.907,228.833,202.238,229.341,203.566 M223.492,197.875c0.219-2.98,0.431-5.964,0.636-8.944
		c0.018-0.003,0.033-0.005,0.053-0.008c0.973,2.826,1.956,5.651,2.944,8.475C225.914,197.56,224.703,197.718,223.492,197.875"/>
	<path clip-path="url(#SVGID_2_)" fill="#00A97A" d="M242.745,202.065c0.508-0.079,1.014-0.159,1.522-0.238
		c0.319-0.051,0.457-0.229,0.406-0.542c-0.909-5.745-1.817-11.491-2.728-17.235c-0.049-0.311-0.232-0.438-0.545-0.391
		c-0.493,0.077-0.987,0.154-1.481,0.231c-0.337,0.053-0.471,0.233-0.423,0.542c0.628,4.069,1.259,8.136,1.889,12.203
		c-2.34-3.821-4.646-7.652-6.924-11.495c-0.176-0.291-0.349-0.373-0.713-0.318c-0.482,0.07-0.973,0.14-1.457,0.212
		c-0.312,0.043-0.472,0.227-0.428,0.534c0.823,5.76,1.647,11.518,2.473,17.277c0.043,0.311,0.252,0.438,0.575,0.393
		c0.508-0.073,1.017-0.146,1.524-0.222c0.319-0.048,0.458-0.225,0.413-0.537c-0.599-4.072-1.198-8.144-1.794-12.217
		c2.296,3.84,4.627,7.669,6.983,11.487C242.189,202.019,242.398,202.118,242.745,202.065"/>
</g>
</svg>
