<?xml version="1.0" encoding="utf-8"?>
<!-- Generator: Adobe Illustrator 16.0.0, SVG Export Plug-In . SVG Version: 6.00 Build 0)  -->
<!DOCTYPE svg PUBLIC "-//W3C//DTD SVG 1.1//EN" "http://www.w3.org/Graphics/SVG/1.1/DTD/svg11.dtd">
<svg version="1.1" id="Layer_1" xmlns="http://www.w3.org/2000/svg" xmlns:xlink="http://www.w3.org/1999/xlink" x="0px" y="0px"
	 width="61.75px" height="50.75px" viewBox="0 0 61.75 50.75" enable-background="new 0 0 61.75 50.75" xml:space="preserve">
<g>
	<defs>
		
			<rect id="SVGID_1_" x="0.001" y="2.007" transform="matrix(-0.9587 -0.2846 0.2846 -0.9587 49.6754 59.9742)" width="58.386" height="48.742"/>
	</defs>
	<clipPath id="SVGID_2_">
		<use xlink:href="#SVGID_1_"  overflow="visible"/>
	</clipPath>
	<path clip-path="url(#SVGID_2_)" fill="#FCEA00" d="M23.425,50.002c-3-0.891-5.085-3.041-7.372-4.898
		c-2.373-1.923-3.06-4.546-4.492-7.188c-1.434-2.645-4.547-4.517-4.866-7.554c-0.307-2.93-0.478-6.223,0.413-9.221
		c0.891-3.001,3.989-4.728,5.845-7.014c1.925-2.372,3.881-4.133,6.524-5.564c2.642-1.434,5.084-3.082,8.121-3.401
		c2.931-0.307,5.594,0.939,8.594,1.83c3,0.892,7.258-0.355,9.547,1.5c2.369,1.924,2.744,5.984,4.176,8.628
		c1.433,2.643,2.92,5.35,3.238,8.387c0.309,2.931-2.177,5.392-3.066,8.393c-0.89,2.997-0.808,5.886-2.662,8.172
		c-1.925,2.372-3.538,5.202-6.182,6.635c-2.643,1.433-6.004,0.195-9.04,0.514C29.271,49.526,26.424,50.892,23.425,50.002"/>
	<path clip-path="url(#SVGID_2_)" fill="#4DB691" d="M34.27,19.283c0.062-0.003,0.125-0.009,0.183-0.021
		c0.853-0.174,1.337-1.088,1.264-2.381c-0.019-0.321-0.303-0.55-0.616-0.55c-0.32,0.019-0.565,0.294-0.549,0.616
		c0.031,0.536-0.086,1.122-0.326,1.172c-0.111,0.012-0.369-0.081-0.447-0.132c0.001-0.048,0.016-0.118,0.033-0.171
		c0.145-0.109,0.238-0.286,0.231-0.482c-0.009-0.319-0.277-0.574-0.599-0.565c-0.144,0.003-0.402,0.059-0.602,0.38
		c-0.178,0.289-0.338,0.891-0.137,1.321C32.941,18.977,33.707,19.307,34.27,19.283"/>
	<path clip-path="url(#SVGID_2_)" fill="#5DBA93" d="M61.191,19.142c-0.074-0.673-0.244-1.302-0.51-1.872
		c-0.751-1.608-2.309-3.084-4.066-3.849l-0.071-0.032c-0.981-0.428-2.2-0.959-3.269-1.224c-2.496-0.619-4.127-0.914-4.972-0.897
		c-0.007-0.065-0.015-0.137-0.021-0.221c-0.016-0.199-0.035-0.424-0.094-0.676c-0.193-0.803-0.673-1.587-0.937-1.982
		c-0.412-0.608-1.37-1.57-2.33-1.729c-0.438-0.073-0.846,0.021-1.181,0.273c-0.211,0.16-0.334,0.346-0.422,0.507
		c-0.02-0.044-0.033-0.091-0.063-0.129c-0.526-0.682-1.005-1.244-1.464-1.72c-0.707-0.733-1.32-0.674-2.058-0.601
		c-0.483,0.048-0.862,0.206-1.197,0.346c-0.189,0.079-0.37,0.153-0.567,0.212c-0.303,0.086-0.502,0.025-0.891-0.109
		c-0.198-0.069-0.422-0.145-0.688-0.198c-1.428-0.284-2.896,0.679-3.876,1.539c-0.218,0.191-0.399,0.398-0.577,0.6
		c-0.179,0.206-0.347,0.397-0.53,0.548c-0.073,0.06-0.149,0.106-0.225,0.153c-0.077,0.05-0.163,0.105-0.249,0.171
		c-0.032,0-0.064,0.005-0.1,0.01c-0.289,0.057-0.484,0.318-0.469,0.604c-0.227,0.146-0.328,0.435-0.227,0.696
		c0.114,0.301,0.452,0.45,0.752,0.336c1.295-0.495,2.289-0.348,3.326,0.491c0.279,0.226,0.371,0.341,0.4,0.389
		c-0.021,0.034-0.074,0.107-0.205,0.219c-0.377,0.326-1.199,0.854-1.439,0.897c-0.24,0.028-0.43,0.201-0.49,0.424
		c-0.156-0.1-0.319-0.186-0.494-0.253l-0.319-0.125c-0.833-0.326-1.974-0.776-2.855-0.646c-0.318,0.047-0.54,0.343-0.494,0.662
		c0.046,0.317,0.343,0.54,0.662,0.492c0.405-0.058,1.025,0.122,1.593,0.325c0.239,0.221,0.493,0.433,0.704,0.679
		c0.262,0.308,0.762,0.919,0.573,1.355c-0.06,0.136-0.063,0.264-0.036,0.379c-0.162,0.147-0.316,0.279-0.513,0.383
		c-0.267,0.144-0.565,0.146-0.913,0.147c-0.236,0.003-0.481,0.003-0.742,0.049c-0.4,0.07-0.783,0.372-1.19,0.691
		c-0.249,0.196-0.767,0.601-0.925,0.593c0-0.001-0.086-0.064-0.179-0.357c-0.064-0.208-0.243-0.358-0.458-0.396
		c-0.179-0.033-0.365,0.024-0.499,0.146c-0.114-0.009-0.281-0.009-0.471,0.062c-0.002,0.002-0.004,0.002-0.006,0.003
		c-0.147-0.805-0.683-0.968-0.88-1c-0.166-0.028-0.325,0.02-0.449,0.114c0.021-0.06,0.04-0.117,0.059-0.173
		c0.086-0.255,0.154-0.457,0.318-0.645c0.444-0.511,1.003-0.951,1.499-1.179c0.291-0.135,0.42-0.482,0.284-0.774
		c-0.135-0.292-0.48-0.419-0.773-0.284c-0.645,0.298-1.333,0.834-1.887,1.471c-0.317,0.362-0.438,0.725-0.544,1.04
		c-0.065,0.195-0.122,0.364-0.22,0.523c-0.138,0.223-0.458,0.448-0.77,0.667c-0.206,0.145-0.42,0.295-0.607,0.463
		c-0.175,0.154-0.328,0.317-0.475,0.473c-0.335,0.354-0.598,0.635-0.96,0.714c-0.884,0.191-1.197-0.069-1.402-0.521
		c-0.048-0.104-0.097-0.211-0.147-0.314c-0.205-0.436-0.383-0.812-0.347-1.163c0.059-0.587,0.346-0.854,0.892-1.312
		c0.119-0.101,0.241-0.204,0.364-0.314c0.365-0.332,0.572-0.717,0.755-1.057c0.194-0.361,0.349-0.646,0.649-0.812
		c0.321-0.173,0.672-0.287,1.044-0.405c0.384-0.124,0.78-0.252,1.156-0.454c0.497-0.266,1.021-0.388,1.557-0.356
		c0.195,0.01,0.392,0.026,0.588,0.04c1.397,0.109,3.135,0.245,4.167-1.469c0.165-0.275,0.076-0.634-0.198-0.8
		c-0.277-0.165-0.636-0.077-0.802,0.198c-0.614,1.023-1.571,1.025-3.074,0.908c-0.208-0.015-0.415-0.031-0.619-0.043
		c-0.752-0.04-1.482,0.126-2.169,0.495c-0.283,0.151-0.612,0.258-0.962,0.37c-0.409,0.131-0.829,0.267-1.244,0.491
		c-0.607,0.33-0.88,0.836-1.12,1.283c-0.152,0.283-0.294,0.549-0.513,0.746c-0.111,0.102-0.224,0.195-0.333,0.286
		c-0.293,0.246-0.604,0.513-0.851,0.866c-0.108-0.077-0.237-0.12-0.375-0.109c-0.674,0.042-0.984,0.204-1.424,0.555
		c-0.015,0.013-0.03,0.022-0.043,0.034c-0.001-0.003-0.002-0.004-0.004-0.007c-0.065-0.109-0.155-0.259-0.313-0.394
		c-0.166-0.141-0.351-0.174-0.492-0.181c0.006-0.034,0.017-0.079,0.029-0.132c0.114-0.454,0.603-0.741,1.12-1.048
		c0.288-0.169,0.585-0.344,0.838-0.562c1.039-0.895,2.105-1.76,3.107-2.569c0.854-0.688,2.873-0.842,3.727-0.283
		c0.27,0.177,0.629,0.102,0.806-0.168c0.179-0.269,0.102-0.631-0.167-0.807c-0.913-0.599-2.49-0.676-3.771-0.301
		c0.048-0.141,0.092-0.294,0.139-0.463c0.055-0.197,0.149-0.525,0.199-0.606c0.208-0.295,0.544-0.511,0.902-0.74
		c0.41-0.264,0.875-0.563,1.2-1.036c0.104-0.152,0.22-0.358,0.354-0.596c0.318-0.56,0.978-1.725,1.445-1.789
		c0.03-0.002,0.124-0.017,0.296,0.154c0.13,0.13,0.303,0.174,0.472,0.156c0.081,0.606,0.253,1.226,0.414,1.797
		c0.07,0.253,0.14,0.498,0.194,0.724c0.077,0.313,0.39,0.506,0.705,0.431c0.312-0.076,0.504-0.392,0.428-0.704
		c-0.059-0.24-0.129-0.498-0.205-0.767c-0.221-0.791-0.473-1.687-0.405-2.36c0.021-0.212,0.133-0.383,0.342-0.523
		c0.384-0.26,0.997-0.341,1.49-0.197c0.465,0.134,0.776,0.63,1.104,1.153c0.146,0.231,0.296,0.47,0.464,0.682
		c0.618,0.773,0.343,1.396-0.2,2.432c-0.176,0.34-0.359,0.69-0.495,1.065c-0.111,0.302,0.044,0.636,0.347,0.748
		c0.074,0.025,0.148,0.036,0.225,0.033c0.229-0.009,0.44-0.153,0.522-0.382c0.111-0.303,0.268-0.604,0.436-0.926
		c0.535-1.022,1.2-2.294,0.077-3.7c-0.127-0.159-0.254-0.358-0.387-0.57c-0.392-0.622-0.877-1.396-1.768-1.655
		c-0.827-0.24-1.795-0.102-2.466,0.352c-0.417,0.28-0.686,0.677-0.797,1.128c-0.366-0.234-0.708-0.258-0.954-0.224
		c-1.035,0.145-1.764,1.429-2.295,2.368c-0.118,0.209-0.22,0.391-0.304,0.513c-0.19,0.278-0.52,0.49-0.869,0.714
		c-0.332,0.213-0.694,0.454-1.002,0.786c-0.05-0.032-0.104-0.059-0.165-0.072c-0.106-0.026-0.225-0.064-0.346-0.103
		c-0.471-0.149-1.057-0.334-1.604-0.151c-0.59,0.196-0.741,0.577-0.839,0.829c-0.024,0.062-0.05,0.129-0.09,0.204
		c-0.105,0.188-0.116,0.195-0.408,0.358c-0.644,0.357-1.44,0.5-2.283,0.65c-0.602,0.106-1.226,0.218-1.803,0.416
		c-1.665,0.572-2.823,1.621-3.346,3.034c-0.021,0.059-0.042,0.129-0.063,0.194c-2.925,1.012-5.249,2.334-5.917,2.93
		c-0.716,0.637-1.35,1.401-1.94,2.342c-1.707,2.717-1.203,5.494-0.484,7.853c0.225,0.741,0.436,1.485,0.649,2.228
		c0.734,2.586,1.496,5.26,2.838,7.71c1.562,2.846,3.727,5.411,6.261,7.415c1.68,1.331,3.405,2.394,5.126,3.153
		c0.058,0.026,0.118,0.049,0.177,0.073c1.213,2.835,4.899,4.419,10.983,4.7c0.174,0.008,0.3,0.014,0.367,0.022
		c1.678,0.171,3.172,0.23,4.555,0.175c0.928-0.037,1.803-0.128,2.651-0.268c0.401-0.065,0.82-0.117,1.226-0.166
		c0.703-0.085,1.43-0.171,2.144-0.351c3.36-0.834,5.675-1.884,6.768-4.435c3.6-1.451,6.583-3.732,8.866-6.795
		c2.068-2.777,3.281-5.982,4.439-9.298l0.241-0.688c0.474-1.358,0.963-2.763,1.513-4.11C60.694,22.913,61.406,21.164,61.191,19.142
		 M43.888,8.667c0.216-0.193,0.325-0.41,0.403-0.569c0.066-0.129,0.1-0.192,0.154-0.235c0.055-0.041,0.133-0.078,0.286-0.053
		c0.524,0.087,1.251,0.782,1.554,1.23c0.379,0.562,0.66,1.146,0.771,1.604c0.037,0.162,0.051,0.325,0.064,0.495
		c0.033,0.403,0.071,0.906,0.498,1.408c0.372,0.437,0.852,0.646,1.273,0.833c0.283,0.123,0.55,0.242,0.737,0.406
		c0.589,0.523,0.809,1.317,0.648,2.359c-0.042,0.27-0.165,0.542-0.3,0.831c-0.028,0.062-0.059,0.13-0.09,0.195
		c-0.02-0.065-0.039-0.125-0.055-0.176c-0.691-2.057-2.271-2.958-3.57-4.605c-0.187-0.236-0.488-0.29-0.729-0.207
		c-0.004-0.011-0.007-0.018-0.012-0.028c-0.36-1.106-0.875-1.488-1.82-1.882l-0.176-0.075c-0.316-0.137-0.678-0.292-1.067-0.346
		c-0.312-0.043-0.589,0.004-0.835,0.045c-0.167,0.029-0.308,0.045-0.43,0.035c0.012-0.007,0.02-0.011,0.029-0.017
		c0.131-0.07,0.265-0.142,0.393-0.235c0.143-0.104,0.24-0.225,0.311-0.312c0.035-0.046,0.082-0.102,0.097-0.109
		c0.052-0.021,0.202-0.037,0.304-0.05c0.146-0.017,0.295-0.034,0.445-0.073L42.915,9.1C43.219,9.023,43.598,8.929,43.888,8.667
		 M10.627,14.112c0.157-0.133,0.334-0.17,0.63-0.229c0.225-0.043,0.484-0.094,0.747-0.218c0.303,0.377,0.804,0.528,1.179,0.635
		c0.283,0.079,0.602,0.172,0.698,0.306c0.061,0.082,0.138,0.146,0.225,0.187c0.029,0.146,0.087,0.297,0.196,0.445
		c-0.051,0.058-0.089,0.119-0.116,0.19c0-0.005,0.002-0.01,0.002-0.015c0.005-0.322-0.252-0.588-0.574-0.591
		c-0.659-0.011-1.045,0.255-1.356,0.467c-0.097,0.067-0.195,0.13-0.298,0.188c0.041-0.262-0.101-0.528-0.362-0.63
		c-0.359-0.143-0.799-0.163-1.218-0.083C10.326,14.43,10.378,14.317,10.627,14.112 M29.96,20.663
		c-0.027-0.065-0.048-0.149-0.071-0.243c-0.05-0.206-0.112-0.461-0.293-0.711c-0.393-0.542-1.348-0.932-2.04-0.646
		c-0.299,0.124-0.436,0.298-0.497,0.457c-0.024-0.064-0.057-0.123-0.104-0.176c-0.241-0.269-0.497-0.495-0.735-0.688
		c0.114,0.034,0.224,0.061,0.332,0.079c0.313,0.226,0.534,0.381,1.001,0.299c0.304-0.053,0.588-0.199,0.871-0.336
		c0.149,0.001,0.297,0.006,0.444,0.015c0.171,0.009,0.349,0.046,0.519,0.048c0.06-0.001,0.105,0.004,0.141,0.011
		c-0.026-0.035-0.051-0.091-0.065-0.172c0.003,0.005,0.003,0.007,0.006,0.011c0.03,0.067,0.068,0.123,0.109,0.174
		c0.05,0.019,0.055,0.04,0.038,0.045c0.114,0.122,0.258,0.192,0.406,0.224c-0.012,0.028-0.024,0.056-0.036,0.084
		C29.83,19.567,29.83,20.164,29.96,20.663 M24.673,22.135c0.107,0.199,0.313,0.319,0.533,0.311c0.064-0.003,0.127-0.016,0.19-0.039
		c0.299-0.119,0.446-0.458,0.328-0.757c-0.128-0.328,0.276-0.703,0.817-1.159c0.142-0.118,0.274-0.23,0.383-0.336
		c0.06-0.057,0.103-0.125,0.133-0.197c0.047,0.134,0.133,0.254,0.258,0.335c0.267,0.18,0.627,0.105,0.806-0.16
		c0.172,0.019,0.437,0.132,0.53,0.263c0.047,0.063,0.072,0.169,0.105,0.301c0.04,0.161,0.087,0.363,0.201,0.566
		c0.151,0.275,0.4,0.547,0.602,0.766l0.096,0.105c0.441,0.488,0.957,0.653,1.37,0.785c0.308,0.098,0.548,0.175,0.751,0.357
		c0.08,0.074,0.185,0.199,0.297,0.329c0.303,0.36,0.668,0.787,1.157,0.944c-0.214,0.035-0.484,0.043-0.772,0.052
		c-0.093,0.001-0.189,0.005-0.289,0.009c-0.012-0.025-0.018-0.053-0.033-0.078c-0.282-0.468-0.778-0.664-1.289-0.657
		c-0.016-0.051-0.037-0.1-0.066-0.146c-0.565-0.949-1.925-1.375-2.792-1.983c-0.004-0.004-0.008-0.004-0.012-0.007
		c0.008-0.251-0.146-0.489-0.398-0.569c-0.307-0.102-0.634,0.064-0.736,0.372c-0.309,0.944,0.305,1.606,0.752,2.087
		c0.508,0.546,0.498,0.622,0.395,0.782c-0.155,0.236-0.424,0.44-0.709,0.659c-0.307,0.233-0.626,0.475-0.888,0.809l-0.152,0.196
		c-0.07,0.093-0.14,0.183-0.208,0.269c-0.018-0.077-0.033-0.154-0.051-0.228c-0.043-0.22-0.09-0.427-0.141-0.597
		c-0.24-0.803-0.464-1.47-0.964-2.127c-0.195-0.256-0.561-0.305-0.817-0.11c-0.257,0.195-0.305,0.561-0.111,0.817
		c0.382,0.501,0.563,1.044,0.775,1.754c0.043,0.144,0.079,0.319,0.119,0.503c0.037,0.175,0.078,0.357,0.125,0.539
		c-0.395,0.157-0.963,0.604-1.278,0.204c-0.136-0.172-0.171-0.416-0.25-0.631c0.032-0.086,0.071-0.179,0.111-0.274
		c0.119-0.277,0.255-0.592,0.285-0.981c0.026-0.32-0.214-0.602-0.535-0.627c-0.323-0.023-0.602,0.217-0.626,0.536
		c-0.002,0.024-0.008,0.048-0.013,0.072c-0.546-0.007-1.144,0.677-1.38,1.036c-0.064,0.096-0.135,0.182-0.208,0.266
		c0-0.025,0.004-0.048,0.002-0.072c-0.008-0.157-0.079-0.307-0.198-0.41c-0.118-0.106-0.274-0.153-0.433-0.144
		c-0.03,0.003-0.06,0.002-0.092-0.001c0.404-0.512,0.352-1.048,0.142-1.409c-0.316-0.543-1.035-0.83-1.601-0.641
		c-0.404,0.134-0.802,0.551-0.712,1.312c0.008,0.073,0.025,0.143,0.043,0.214c-0.231-0.367-0.635-0.601-1.152-0.645
		c-0.056-0.005-0.116-0.008-0.176-0.008c-0.002-0.133,0.002-0.252,0.008-0.351c0.006-0.087,0.008-0.168,0.008-0.248
		c0.212,0.065,0.417,0.094,0.614,0.086c0.209-0.009,0.41-0.059,0.601-0.148c0.75-0.356,1.101-1.228,1.354-2.037
		c0,0.061-0.007,0.117-0.002,0.182c0.083,1.086,0.902,1.2,1.478,1.28c0.135,0.019,0.3,0.058,0.479,0.099
		c0.445,0.102,0.955,0.217,1.43,0.197c0.334-0.013,0.65-0.093,0.917-0.293c0.173-0.13,0.243-0.34,0.218-0.542
		C24.281,22.724,24.489,22.445,24.673,22.135 M45.469,15.742c0.35,0.244,0.354,0.42,0.365,0.885
		c0.007,0.265,0.015,0.564,0.104,0.911c0.133,0.517,0.476,0.865,0.753,1.146c0.17,0.175,0.332,0.337,0.404,0.5
		c0.039,0.087,0.042,0.207,0.049,0.348c0.01,0.314,0.031,0.901,0.689,1.197c0.453,0.205,0.906,0.105,1.305,0.016
		c0.258-0.058,0.502-0.111,0.673-0.066c0.639,0.175,1.464,1,1.832,1.661c0.054,0.096,0.104,0.166,0.153,0.227
		c-0.003,0.004-0.004,0.011-0.006,0.014c-0.619-0.509-1.607-0.54-2.409-0.563c-0.337-0.01-0.69,0.06-0.962,0.236
		c-0.299-0.472-0.835-0.817-1.33-0.899c-0.533-0.085-1.004,0.122-1.276,0.55c-0.041-0.298-0.065-0.602-0.087-0.903
		c0.039-0.388,0.1-0.776,0.117-1.161c0.041-0.859-0.273-1.765-0.924-2.339c-0.102-0.162-0.207-0.32-0.325-0.48
		c-0.172-0.206-0.341-0.413-0.515-0.621c-0.068-0.127-0.136-0.092-0.201,0.093c-0.023-0.099-0.048-0.195-0.072-0.295
		c0.006-0.03,0.016-0.062,0.026-0.094c0.112-0.303-0.041-0.639-0.341-0.75c-0.126-0.049-0.254-0.048-0.372-0.012
		c0.134-0.072,0.287-0.115,0.477-0.132C44.245,15.144,44.874,15.329,45.469,15.742 M53.906,22.297
		c-0.086,0.048-0.151,0.116-0.201,0.193c-0.24-0.141-0.504-0.242-0.79-0.285c-0.03-0.11-0.083-0.202-0.149-0.289
		c0.203-0.107,0.364-0.238,0.479-0.396c0.119,0.019,0.333,0.085,0.459,0.127c0.209,0.067,0.408,0.132,0.588,0.146
		c0.267,0.024,0.494-0.031,0.676-0.077c0.127-0.032,0.234-0.06,0.295-0.043c0.121,0.033,0.297,0.126,0.443,0.224
		C55.149,21.81,54.525,21.943,53.906,22.297 M43.046,28.191c-0.036,0.109-0.071,0.217-0.104,0.312
		c-0.026,0.006-0.053,0.01-0.08,0.016c-0.033-0.137-0.064-0.283-0.095-0.411c-0.278-1.217-0.398-1.661-0.562-1.896
		c-0.108-0.157-0.237-0.276-0.351-0.382c-0.092-0.084-0.176-0.164-0.207-0.226c-0.06-0.118-0.06-0.118,0.078-0.338
		c0.035-0.058,0.076-0.121,0.117-0.193c0.002,0.002,0.006,0.004,0.008,0.007c0.247,0.203,0.586,0.484,1.139,0.507
		c0.386,0.015,0.74-0.04,1.057-0.091c0.398-0.064,0.748-0.12,1.102-0.027c0.072,0.017,0.143,0.041,0.217,0.065
		c-0.128,0.051-0.252,0.104-0.369,0.162c-0.183,0.087-0.354,0.167-0.518,0.205C43.803,26.053,43.459,26.945,43.046,28.191
		 M27.708,27.083c-0.439,0.396-0.512,0.55-0.52,1.1l-0.003,0.233c-0.181-0.173-0.371-0.349-0.611-0.519
		c-0.032-0.091-0.074-0.205-0.113-0.313c0.281-0.251,0.505-0.538,0.707-0.803l0.144-0.186c0.021-0.027,0.048-0.055,0.072-0.081
		c0.07,0.212,0.22,0.4,0.412,0.49c-0.017,0.016-0.037,0.033-0.053,0.048l0.393,0.432L27.708,27.083z M30.791,26.456
		c0.092-0.554,0.504-0.66,1.699-0.69c0.353-0.01,0.683-0.02,0.992-0.075c0.26-0.045,0.512,0.011,0.804,0.077
		c0.29,0.065,0.616,0.139,0.991,0.119c0.805-0.049,1.092-0.564,1.303-0.941c0.042-0.076,0.089-0.159,0.143-0.244
		c0.223-0.357,0.422-0.359,0.592-0.333c0.1,0.015,0.185,0.041,0.263,0.064c0.008,0.003,0.015,0.005,0.022,0.008
		c0.298,0.204,0.588,0.402,0.776,0.768c0.099,0.194,0.19,0.386,0.286,0.57c-0.092,0.041-0.179,0.076-0.264,0.096
		c-0.148,0.035-0.259,0.041-0.375,0.047c-0.403,0.021-0.746,0.082-1.144,0.67c-0.249,0.366-0.428,0.782-0.604,1.183
		c-0.104,0.243-0.207,0.477-0.315,0.685c-0.065-0.058-0.124-0.122-0.194-0.177c-0.031-0.151-0.098-0.3-0.205-0.433
		c-0.539-0.645-1.539-1.471-2.403-1.585c-0.89-0.116-1.162,0.473-1.495,1.088c-0.085,0.045-0.152,0.098-0.207,0.158
		c-0.213-0.215-0.447-0.435-0.759-0.641c-0.027-0.018-0.063-0.044-0.101-0.068C30.695,26.712,30.771,26.595,30.791,26.456
		 M40.738,24.646c-0.071,0.111-0.159,0.254-0.22,0.425c-0.007-0.012-0.007-0.024-0.013-0.035c-0.066-0.124-0.129-0.267-0.18-0.412
		c0.006-0.439,0.058-0.877,0.129-1.317c0.32-0.043,0.729-0.089,0.99-0.094c0.047,0.163,0.104,0.327,0.162,0.49
		c-0.046-0.004-0.093-0.007-0.141-0.008c-0.162-0.002-0.313,0.063-0.428,0.179c-0.109,0.117-0.167,0.273-0.157,0.434
		C40.885,24.401,40.846,24.475,40.738,24.646 M47.417,23.246c-0.063,0.16-0.142,0.359-0.151,0.618
		c-0.012,0.235,0.035,0.444,0.109,0.634c-0.039,0.024-0.082,0.044-0.121,0.075c-0.315-0.405-0.725-0.732-0.983-1.183
		c-0.095-0.163-0.17-0.336-0.233-0.516c0.29,0.111,0.619-0.024,0.744-0.313c0.019-0.045,0.032-0.056,0.032-0.056
		c0.021-0.013,0.134-0.015,0.299,0.073c0.239,0.13,0.368,0.331,0.376,0.407C47.492,23.05,47.467,23.119,47.417,23.246
		 M53.871,19.842l0.117,0.009c0.383,0.034,1.022,0.233,1.242,0.571c0.018,0.022,0.033,0.052,0.046,0.086
		c-0.23-0.01-0.435,0.038-0.593,0.078c-0.116,0.028-0.217,0.054-0.287,0.047c-0.057-0.005-0.224-0.06-0.336-0.095
		c-0.219-0.071-0.453-0.146-0.684-0.177c-0.064-0.203-0.156-0.402-0.252-0.592C53.418,19.802,53.691,19.826,53.871,19.842
		 M43.193,17.732c0.162,0.233,0.315,0.455,0.36,0.659c0.108,0.491,0.083,0.807,0.028,0.928c-0.056,0.117-0.127,0.229-0.213,0.359
		c-0.149,0.226-0.316,0.479-0.414,0.837c-0.191,0.695-0.178,1.421,0.042,2.279c0.05,0.199,0.174,0.433,0.388,0.827
		c0.098,0.182,0.262,0.483,0.377,0.736c-0.248,0.04-0.487,0.073-0.726,0.063c-0.043-0.002-0.082-0.01-0.119-0.023
		c0.081-0.153,0.095-0.34,0.019-0.512c-0.533-1.184-0.736-2.343-0.639-3.648c0.037-0.481,0.037-0.981,0.035-1.468
		c0-0.75-0.002-1.528,0.14-2.201c0.069-0.321,0.146-0.564,0.237-0.76C42.453,16.648,42.876,17.273,43.193,17.732 M33.843,23.293
		c-0.118,0.127-0.197,0.156-0.224,0.158c-0.154-0.005-0.479-0.39-0.652-0.596c-0.138-0.163-0.268-0.316-0.407-0.443
		c-0.388-0.354-0.81-0.487-1.18-0.605c-0.053-0.017-0.104-0.033-0.153-0.05c0.193-0.025,0.376-0.089,0.523-0.142l0.049-0.018
		c0.219-0.076,0.399-0.175,0.561-0.262c0.24-0.13,0.387-0.202,0.56-0.212c0.284-0.015,0.507,0.105,0.874,0.476
		C34.114,21.924,34.193,22.923,33.843,23.293 M19.49,25.05c0,0.016-0.02,0.065-0.094,0.143c-0.03-0.065-0.051-0.132-0.058-0.201
		c-0.003-0.021-0.004-0.039-0.004-0.055C19.403,24.96,19.48,25.014,19.49,25.05 M8.53,23.388c-0.151-0.065-0.314-0.064-0.456-0.007
		c-0.253-0.003-0.873-0.122-1.071-0.203c-0.106-0.11-0.1-0.204,0.384-0.75c0.222-0.252,0.452-0.512,0.56-0.81
		c0.006-0.015,0.007-0.03,0.011-0.045c0.114,0.027,0.23,0.035,0.33,0.032c0.105-0.004,0.191-0.02,0.244-0.028
		c0.192-0.032,0.398-0.11,0.613-0.219c-0.005,0.156,0.047,0.311,0.164,0.429c0.29,0.294,0.182,0.597-0.555,1.55
		c-0.033,0.045-0.064,0.087-0.098,0.13C8.618,23.436,8.578,23.409,8.53,23.388 M5.639,21.75c-0.104-0.041-0.222-0.054-0.346-0.053
		c0-0.028,0.006-0.059,0.001-0.087c-0.066-0.472,0.184-0.528,0.277-0.549c0.273-0.061,0.718,0.077,0.847,0.494
		c0.016,0.049,0.038,0.093,0.064,0.136c-0.145,0.163-0.331,0.381-0.478,0.635C6.02,22.081,5.879,21.844,5.639,21.75 M7.505,19.73
		c0,0.008-0.003,0.017-0.004,0.023c-0.166-0.01-0.348,0.06-0.41,0.224c-0.039,0.098-0.083,0.188-0.107,0.29
		c-0.006,0.028-0.01,0.057-0.014,0.085c-0.164-0.141-0.35-0.251-0.546-0.327c0.036-0.121,0.067-0.242,0.093-0.362
		c0.075-0.345,0.108-0.421,0.208-0.476c0.099-0.051,0.3-0.053,0.494-0.054c0.126-0.001,0.261-0.003,0.4-0.017
		C7.577,19.323,7.541,19.527,7.505,19.73 M9.381,17.925c0.017-0.021,0.021-0.044,0.035-0.064c0.002,0.001,0.001,0.001,0.002,0.003
		c0.121,0.157,0.305,0.239,0.491,0.231c0.042-0.003,0.083-0.014,0.124-0.024c-0.275,0.322-0.471,0.712-0.458,1.08
		c0.006,0.193,0.047,0.346,0.103,0.473c-0.228,0.168-0.736,0.542-1.095,0.717c0.024-0.139,0.05-0.276,0.072-0.413
		C8.788,19.16,8.902,18.497,9.381,17.925 M10.511,17.315c0.01,0.1,0.053,0.187,0.108,0.264c-0.067,0.038-0.131,0.078-0.195,0.127
		c0.063-0.179,0.05-0.382-0.074-0.544c-0.207-0.276-0.517-0.777-0.256-1.025c0.206-0.197,0.683-0.301,0.99-0.229
		C10.731,16.138,10.425,16.523,10.511,17.315 M13.463,20.287c0.003,0.004,0.007,0.006,0.011,0.01
		c-0.007,0.002-0.013,0.005-0.019,0.006C13.458,20.299,13.461,20.293,13.463,20.287 M14.983,27.22
		c-0.004-0.103-0.011-0.22-0.027-0.343c0.228-0.003,0.443-0.142,0.532-0.367c0.105-0.27,0.895-0.7,1.487-0.65
		c0.254,0.021,0.273,0.11,0.283,0.164c0.057,0.268-0.338,0.543-0.581,0.662c-0.104,0.051-0.336,0.091-0.541,0.124
		C15.737,26.874,15.291,26.95,14.983,27.22 M18.487,21.247c-0.179,0.611-0.45,1.535-0.859,1.729
		c-0.046,0.021-0.188,0.089-0.507-0.045c-0.178-0.075-0.371-0.054-0.526,0.036c-0.09-0.199-0.171-0.414-0.252-0.644
		c-0.092-0.26-0.188-0.529-0.312-0.791c-0.136-0.292-0.482-0.418-0.774-0.282c-0.293,0.136-0.417,0.483-0.282,0.775
		c0.073,0.157,0.137,0.327,0.203,0.503c-0.889,0.141-1.993,0.873-2.795,1.31c-0.53,0.107-1.011,0.468-1.543,0.38
		c-0.104-0.017-0.206-0.015-0.302-0.001c0.433-0.725,1.279-1.552,2.376-2.317c0.439-0.305,0.691-0.403,1.219-0.61
		c0.555-0.217,1.063-0.708,1.427-1.383c0.154-0.282,0.048-0.636-0.236-0.791c-0.226-0.121-0.496-0.076-0.673,0.091
		c-0.178-0.103-0.404-0.107-0.591,0.007c-0.013,0.008-0.025,0.015-0.036,0.021c-0.074-0.052-0.167-0.104-0.284-0.153
		c-0.164-0.065-0.31-0.08-0.407-0.092c-0.025-0.002-0.05-0.002-0.042,0.007c-0.007-0.007-0.012-0.012-0.017-0.018
		c0.042-0.098,0.193-0.277,0.287-0.388c0.213-0.254,0.433-0.515,0.498-0.848c0.061-0.316-0.142-0.629-0.458-0.691
		c-0.318-0.061-0.621,0.139-0.683,0.454c-0.024,0.065-0.16,0.228-0.249,0.333c-0.305,0.363-1.015,1.209-0.187,1.994
		c-0.363,0.21-0.751,0.38-1.065,0.659c-0.237,0.213-0.436,0.459-0.648,0.695c-0.097,0.107-0.193,0.181-0.289,0.246
		c-0.08-0.156-0.188-0.312-0.339-0.465c-0.05-0.05-0.11-0.087-0.173-0.116c0.139-0.097,0.278-0.197,0.413-0.297l0.059-0.043
		c0.107-0.079,0.176-0.185,0.211-0.303c0.003,0,0.008,0.001,0.012,0.001c0.457-0.018,0.886-0.265,1.041-0.364
		c0.27-0.174,0.35-0.535,0.176-0.806c-0.175-0.271-0.536-0.351-0.805-0.177c-0.105,0.068-0.207,0.115-0.287,0.145
		c0.101-0.182,0.333-0.411,0.475-0.456c0.24,0.171,0.573,0.137,0.775-0.086c0.213-0.24,0.192-0.609-0.047-0.823
		c-0.104-0.094-0.223-0.16-0.348-0.204c0.027-0.077,0.038-0.161,0.028-0.249c-0.031-0.294-0.031-0.294,0.352-0.452
		c0.116-0.048,0.24-0.102,0.367-0.163c0.216-0.107,0.383-0.222,0.531-0.322c0.26-0.179,0.391-0.27,0.68-0.264
		c0.254,0,0.47-0.157,0.553-0.381c-0.005,0.129,0.026,0.261,0.112,0.371c0.104,0.137,0.101,0.173-0.021,0.495
		c-0.094,0.251-0.212,0.563-0.162,0.948c0.066,0.503,0.553,0.986,0.985,1.269c0.352,0.229,0.667,0.339,0.943,0.327
		c0.07-0.003,0.136-0.014,0.199-0.03c-0.062,0.19-0.088,0.392-0.049,0.604c0.075,0.396,0.353,0.722,0.826,0.97
		c0.349,0.181,0.691,0.284,0.992,0.375c0.202,0.061,0.382,0.117,0.548,0.188C18.512,21.166,18.5,21.204,18.487,21.247
		 M14.152,12.745c-0.128,0.15-0.315,0.178-0.49,0.252c-0.081,0.032-0.173,0.069-0.241,0.122c-0.007,0.005-0.017,0.016-0.028,0.029
		c-0.271-0.081-0.479-0.156-0.486-0.235c-0.011-0.13,0.101-0.381,0.371-0.625c0.297-0.268,0.624-0.379,0.755-0.355
		c0.032,0.016,0.059,0.038,0.089,0.061c0.085,0.06,0.204,0.134,0.348,0.189C14.37,12.358,14.308,12.563,14.152,12.745 M8.488,17.175
		c-0.209,0.251-0.365,0.509-0.489,0.77c-0.111-0.038-0.231-0.044-0.351-0.01c-0.107,0.03-0.266,0.032-0.436,0.033
		c-0.304,0.002-0.682,0.004-1.035,0.193c-0.044,0.022-0.079,0.048-0.118,0.074c-0.001-0.318,0.039-0.469,0.224-0.648
		c0.273-0.265,0.715-0.591,1.152-0.854c0.445-0.268,0.623-0.233,0.948,0.179c0.062,0.078,0.144,0.129,0.228,0.167
		C8.567,17.106,8.524,17.133,8.488,17.175 M5.265,22.853h0.002c0.208,0.059,0.422-0.006,0.568-0.151
		c-0.113,0.358-0.095,0.756,0.222,1.157c-0.203,0.129-0.446,0.307-0.665,0.516c-0.368-0.38-0.689-0.784-0.957-1.211
		C4.669,23.028,5.093,22.859,5.265,22.853 M6.985,24.662c0.103-0.054,0.182-0.134,0.235-0.227c0.283,0.059,0.57,0.093,0.798,0.102
		c-0.016,0.046-0.037,0.089-0.049,0.134c-0.078,0.314-0.084,0.574-0.027,0.788c-0.076,0.016-0.117,0.028-0.107,0.033
		c-0.058-0.034-0.126,0.041-0.088,0.096c0.386,0.561,0.918,0.709,1.477,1.114C9.359,26.8,9.48,26.888,9.6,26.962
		c-1.267-0.444-2.402-1.059-3.342-1.803C6.484,24.959,6.781,24.767,6.985,24.662 M10.264,27.136
		c-0.006,0.014-0.009,0.024-0.013,0.036c-0.032-0.008-0.063-0.019-0.095-0.028C10.191,27.143,10.227,27.141,10.264,27.136
		 M11.818,26.525c0.142-0.063,0.18-0.049,0.402,0.042c0.143,0.057,0.324,0.129,0.554,0.174c0.23,0.045,0.445,0.013,0.619-0.014
		c0.074-0.011,0.188-0.028,0.213-0.024c0.148,0.053,0.188,0.067,0.217,0.601l0.001,0.048c0.016,0.322,0.275,0.576,0.611,0.553
		c0.115-0.007,0.219-0.045,0.307-0.107c0.009,0.081,0.038,0.154,0.079,0.227c-1.291-0.185-2.446-0.371-3.359-0.553
		c-0.024-0.003-0.048-0.011-0.073-0.016C11.491,27.186,11.688,26.668,11.818,26.525 M15.75,28.097
		c0.081-0.056,0.393-0.106,0.578-0.14c0.298-0.048,0.608-0.101,0.867-0.227c0.897-0.445,1.358-1.185,1.206-1.936
		c0.25,0.46,0.675,0.848,1.165,1.062c-0.013,0.009-0.025,0.018-0.038,0.026c-0.23,0.155-0.313,0.447-0.216,0.697
		c-0.187,0.082-0.375,0.165-0.559,0.26c-0.469,0.081-0.924,0.261-1.335,0.491c-0.013,0.009-0.02,0.021-0.031,0.029
		c-0.575-0.071-1.137-0.145-1.683-0.216C15.72,28.128,15.735,28.115,15.75,28.097 M22.271,28.603
		c0.196,0.039,0.47,0.281,0.621,0.364c-0.379-0.035-0.761-0.073-1.145-0.114C21.925,28.78,22.1,28.695,22.271,28.603 M28.348,28.521
		l0.006-0.32c0-0.054,0-0.095,0.001-0.131c0.033-0.031,0.077-0.068,0.134-0.121l0.036-0.03c0.387-0.351,0.649-0.538,0.784-0.561
		c0.141,0.062,0.453,0.28,0.576,0.367c0.064,0.048,0.123,0.087,0.168,0.118c0.302,0.199,0.512,0.423,0.758,0.682
		c0.129,0.136,0.26,0.273,0.409,0.415c0.498,0.478,0.86,0.559,1.382,0.307c0.075-0.037,0.148-0.072,0.246-0.099
		c0.228-0.059,1.102-0.021,1.44,0.304c0.021,0.021,0.042,0.044,0.062,0.072c-1.182,0.045-2.385,0.062-3.615,0.038
		c-0.56-0.009-1.411-0.054-2.452-0.127C28.334,29.119,28.344,28.823,28.348,28.521 M39.639,28.078c0-0.004,0.002-0.011,0.001-0.015
		c0.138-0.27,0.237-0.568,0.407-0.811c0.14-0.2,0.315-0.272,0.382-0.525c0.011-0.046,0.009-0.097-0.003-0.144
		c0.138-0.015,0.266-0.078,0.364-0.181c0.091,0.111,0.187,0.201,0.271,0.281c0.076,0.072,0.148,0.138,0.173,0.169
		c0.09,0.179,0.29,1.049,0.397,1.515c0.031,0.139,0.059,0.261,0.084,0.373c-0.825,0.148-1.662,0.278-2.512,0.386
		C39.421,28.819,39.562,28.452,39.639,28.078 M44.797,27.022c0.266-0.068,0.494-0.178,0.699-0.274
		c0.152-0.072,0.297-0.142,0.43-0.181c0.061-0.018,0.186,0.001,0.307,0.021c0.156,0.024,0.33,0.051,0.525,0.037
		c0.274-0.021,0.482-0.116,0.65-0.191c0-0.001,0-0.001,0-0.001c0.186,0.07,0.369,0.137,0.564,0.187
		c0.059,0.016,0.128,0.031,0.202,0.05c0.132,0.03,0.399,0.093,0.563,0.161c-0.008,0.024-0.008,0.052-0.014,0.078
		c-1.45,0.506-2.934,0.94-4.455,1.301C44.422,27.768,44.637,27.19,44.797,27.022 M49.928,26.469
		c-0.008-0.027-0.018-0.053-0.027-0.074c-0.149-0.367-0.492-0.566-0.854-0.695c0.01-0.008,0.021-0.011,0.033-0.02
		c0.029-0.028,0.047-0.064,0.07-0.096c0.228,0.043,0.467-0.049,0.6-0.256c0.078-0.12,0.149-0.25,0.222-0.38
		c0.288-0.517,0.411-0.665,0.661-0.669c0.116-0.001,0.154-0.001,0.345,0.472c0.073,0.179,0.155,0.385,0.273,0.575
		c0.115,0.185,0.315,0.28,0.519,0.273c0.098-0.004,0.195-0.032,0.284-0.087c0.138-0.084,0.226-0.218,0.258-0.362
		c0.199-0.02,0.382-0.138,0.472-0.33c0.202-0.433,0.117-0.86,0.053-1.173c-0.021-0.097-0.035-0.188-0.043-0.268
		c0.552,0.132,1,0.695,1.166,1.275c-0.573,0.318-1.217,0.636-1.965,0.966C51.313,25.922,50.623,26.203,49.928,26.469 M54.981,24.037
		c-0.104-0.269-0.245-0.529-0.419-0.767c0.421-0.218,0.82-0.293,1.106-0.189c0.126,0.045,0.233,0.13,0.326,0.246
		C55.697,23.559,55.359,23.79,54.981,24.037 M50.787,19.003c0.175,0.092,0.389,0.095,0.568-0.013
		c0.09-0.053,0.155-0.084,0.201-0.103c0.036,0.097,0.076,0.243,0.102,0.343c0.049,0.185,0.098,0.376,0.18,0.559
		c0.061,0.136,0.131,0.272,0.198,0.406c0.103,0.208,0.278,0.557,0.276,0.643c0,0-0.051,0.053-0.234,0.113
		c-0.342-0.399-0.771-0.799-1.25-1.082C50.859,19.552,50.824,19.265,50.787,19.003 M32.818,8.146c0.159-0.179,0.308-0.35,0.467-0.49
		c1.09-0.957,2.139-1.421,2.878-1.272c0.188,0.037,0.356,0.096,0.536,0.158c0.434,0.15,0.925,0.318,1.594,0.127
		c0.262-0.075,0.492-0.171,0.695-0.257c0.297-0.123,0.551-0.229,0.889-0.263c0.645-0.065,0.763-0.075,1.076,0.25
		c0.428,0.444,0.881,0.977,1.381,1.625c0.003,0.003,0.006,0.003,0.007,0.007c-0.05,0.005-0.095,0.016-0.146,0.021
		C42,8.074,41.779,8.101,41.578,8.184c-0.291,0.122-0.453,0.322-0.561,0.455c-0.033,0.042-0.071,0.089-0.091,0.104
		c-0.071,0.053-0.162,0.097-0.251,0.146c-0.203,0.109-0.48,0.261-0.691,0.5c-0.219-0.139-0.45-0.299-0.689-0.482
		c-0.217-0.166-0.521-0.158-0.73,0.019c-0.072,0.062-0.146,0.131-0.22,0.201c-0.095,0.089-0.273,0.258-0.339,0.271
		c-0.105-0.001-0.37-0.062-0.947-0.478c-0.594-0.431-0.9-0.53-1.576-0.634c-0.094-0.014-0.197-0.047-0.307-0.081
		c-0.361-0.111-0.965-0.3-1.519,0.249c-0.063,0.062-0.105,0.138-0.134,0.215C33.2,8.557,32.87,8.489,32.531,8.466
		C32.631,8.36,32.726,8.254,32.818,8.146 M31.857,16.597c0.354-0.188,0.602-0.415,0.822-0.616c0.254-0.231,0.457-0.414,0.785-0.526
		c0.213-0.072,0.365-0.263,0.391-0.487c0.074-0.687-0.163-1.384-0.598-1.944c0.688-0.173,1.727-0.979,1.918-1.141
		c0.133-0.117,0.502-0.438,0.597-0.893c0.093,0.148,0.247,0.258,0.431,0.273c0.135,0.058,0.419,0.288,0.845,0.686l0.079,0.073
		c0.057,0.053,0.113,0.101,0.17,0.147c-0.16,0.078-0.283,0.228-0.318,0.418c-0.053,0.296-0.211,0.613-0.379,0.948
		c-0.278,0.562-0.596,1.199-0.521,1.946c0.031,0.31,0.297,0.538,0.604,0.524c0.013,0.001,0.022,0,0.035-0.002
		c0.32-0.031,0.555-0.317,0.521-0.639c-0.04-0.413,0.176-0.849,0.406-1.311c0.196-0.393,0.399-0.801,0.48-1.26
		c0.003-0.005,0.002-0.011,0.002-0.015c0.166,0.111,0.33,0.225,0.495,0.354c0.366,0.284,0.394,0.377,0.241,0.824
		c-0.133,0.393-0.281,0.771-0.43,1.151c-0.147,0.38-0.295,0.761-0.434,1.157c-0.104,0.305,0.058,0.637,0.361,0.742
		c0.07,0.024,0.143,0.035,0.214,0.031c0.231-0.009,0.446-0.158,0.526-0.393c0.133-0.382,0.277-0.749,0.418-1.115
		c0.15-0.386,0.308-0.785,0.447-1.197c0.312-0.917,0.131-1.531-0.629-2.122c-0.205-0.159-0.411-0.3-0.616-0.439
		c-0.284-0.194-0.554-0.377-0.803-0.607l-0.075-0.068c-0.701-0.655-1.162-1.006-1.6-0.999c-0.232,0.007-0.422,0.141-0.513,0.33
		c-0.126-0.371-0.44-0.675-0.779-0.945c-0.099-0.083-0.2-0.147-0.298-0.218c0.058,0.015,0.125,0.037,0.175,0.052
		c0.14,0.043,0.297,0.092,0.476,0.12c0.518,0.078,0.643,0.118,1.072,0.427c0.452,0.325,1.045,0.698,1.629,0.698
		c0.412-0.001,0.732-0.223,0.977-0.439c0.699,0.49,1.316,0.805,1.844,0.938c0.372,0.091,0.716,0.033,0.993-0.013
		c0.185-0.032,0.347-0.059,0.483-0.04c0.231,0.032,0.504,0.149,0.764,0.263l0.188,0.079c0.77,0.319,0.941,0.495,1.16,1.166
		c0.087,0.267,0.191,0.456,0.292,0.64c0.038,0.066,0.075,0.139,0.118,0.221c0.057,0.113,0.102,0.513,0.128,0.778
		c0.002,0.018,0.003,0.035,0.007,0.053c-0.477-0.148-0.973-0.205-1.466-0.16c-1.509,0.136-1.938,1.229-2.161,2.281
		c-0.166,0.793-0.165,1.632-0.166,2.443c0.002,0.483,0.003,0.94-0.031,1.38c-0.018,0.22-0.022,0.437-0.025,0.65
		c-0.301-0.242-0.644-0.453-0.998-0.538c0.014-0.026,0.025-0.056,0.038-0.082c0.028-0.051,0.042-0.101,0.053-0.152
		c0.062-0.047,0.128-0.088,0.187-0.141c0.332-0.3,0.48-0.712,0.42-1.162c-0.096-0.703-0.68-1.342-1.208-1.606
		c-0.287-0.144-0.638-0.029-0.78,0.258c-0.146,0.288-0.03,0.64,0.258,0.783c0.264,0.133,0.544,0.484,0.574,0.723
		c0.012,0.075-0.006,0.104-0.046,0.141c-0.632,0.572-1.716,0.614-2.274,0.088c-0.234-0.222-0.604-0.21-0.826,0.023
		c-0.221,0.235-0.208,0.604,0.025,0.824c0.143,0.134,0.301,0.247,0.47,0.342c-0.063,0.023-0.126,0.053-0.181,0.099
		c-0.246,0.209-0.279,0.576-0.07,0.823c0.092,0.108,0.213,0.227,0.34,0.348c0.146,0.141,0.348,0.334,0.398,0.443
		c0.004,0.013,0.009,0.024,0.015,0.035c-0.001,0-0.002,0-0.003,0.003c-0.04,0.036-0.086,0.076-0.132,0.121l-0.085,0.084
		c-0.199,0.198-0.199,0.198-0.385,0.214c-0.396,0.029-0.887-0.087-1.312-0.211c-0.124-0.034-0.249-0.025-0.36,0.016
		c-0.049-0.591-0.264-1.153-0.605-1.498c-0.42-0.425-0.955-0.852-1.741-0.82c-0.006,0-0.012,0-0.02,0
		c-0.444,0.022-0.768,0.195-1.054,0.351c-0.137,0.074-0.266,0.143-0.398,0.189l-0.047,0.019c-0.063,0.021-0.135,0.046-0.191,0.065
		c-0.004-0.009-0.01-0.019-0.016-0.028c-0.127-0.261-0.164-0.77-0.07-1.028c0.032-0.091,0.103-0.179,0.19-0.292
		c0.167-0.213,0.397-0.504,0.428-0.958c0.05-0.746-0.421-1.129-0.73-1.383c-0.013-0.009-0.024-0.021-0.037-0.031
		C31.227,16.834,31.541,16.768,31.857,16.597 M20.125,19.144c0.197-0.008,0.41-0.036,0.639-0.086
		c0.715-0.156,1.164-0.632,1.56-1.051c0.128-0.139,0.26-0.277,0.401-0.403c0.138-0.123,0.316-0.248,0.504-0.381
		c0.387-0.273,0.826-0.581,1.09-1.008c0.02-0.032,0.037-0.064,0.054-0.098c0.014,0.234,0.159,0.439,0.382,0.518
		c0.028,0.091,0.054,0.299,0.019,0.613c-0.008,0.066-0.001,0.134,0.013,0.2c-0.007-0.003-0.012-0.009-0.019-0.012
		c-0.298-0.124-0.638,0.021-0.76,0.317c-0.121,0.298,0.02,0.639,0.318,0.762c0.152,0.062,0.329,0.253,0.501,0.438
		c0.145,0.157,0.294,0.319,0.472,0.458c0.073,0.059,0.147,0.123,0.222,0.183c-0.033,0.011-0.067,0.018-0.099,0.035
		c-0.334,0.192-0.574,0.495-0.784,0.827c-0.511,0.348-1.189,0.561-1.715,0.696c-0.348,0.087-0.745,0.161-1.1,0.205
		c-0.188,0.022-0.547,0.15-0.695-0.07c-0.023-0.033-0.012-0.308-0.008-0.493c0.095-0.126,0.2-0.251,0.313-0.381
		c0.072-0.042,0.136-0.101,0.185-0.175c0.038-0.055,0.098-0.146,0.122-0.188c0.14-0.259,0.066-0.583-0.174-0.754
		c-0.24-0.171-0.57-0.138-0.769,0.082c-0.312,0.341-0.683,0.75-0.954,1.242c-0.492-0.482-1.043-0.652-1.534-0.8
		c-0.277-0.083-0.538-0.162-0.789-0.293c-0.168-0.088-0.216-0.15-0.218-0.148c0.006-0.142,0.33-0.516,0.487-0.696
		c0.146-0.168,0.294-0.341,0.414-0.52C18.532,18.698,19.104,19.184,20.125,19.144 M16.017,16.438c0.016,0.002,0.029,0.002,0.043,0
		c0.254-0.01,0.415-0.166,0.512-0.263c0.052-0.053,0.134-0.131,0.264-0.235c0.263-0.21,0.359-0.266,0.65-0.295
		c-0.008,0.054-0.02,0.1-0.025,0.157c-0.039,0.39,0.037,0.747,0.155,1.081c-0.022,0.011-0.048,0.016-0.067,0.029
		c-0.295-0.025-0.567,0.018-0.851,0.127c-0.244,0.093-0.393,0.258-0.647,0.184c-0.057-0.017-0.118,0.006-0.166,0.044
		c-0.061-0.021-0.118-0.048-0.16-0.093c-0.112-0.119-0.279-0.163-0.439-0.154c0.015-0.042,0.031-0.086,0.049-0.133
		c0.069-0.184,0.16-0.428,0.167-0.713C15.602,16.281,15.758,16.433,16.017,16.438 M13.393,9.841
		c0.495-0.168,1.045-0.269,1.629-0.372c0.901-0.16,1.833-0.327,2.645-0.778c0.383-0.213,0.613-0.355,0.865-0.821
		c0.067-0.121,0.111-0.231,0.15-0.334c0.019-0.045,0.043-0.11,0.046-0.116c0,0,0.019-0.014,0.078-0.034
		c0.186-0.062,0.589,0.065,0.884,0.159c0.116,0.036,0.223,0.067,0.328,0.095C20,7.701,19.982,7.764,19.964,7.829
		c-0.046,0.162-0.118,0.418-0.168,0.535c-0.175,0.153-0.247,0.405-0.162,0.637c0.025,0.066,0.062,0.124,0.104,0.176
		c-0.04,0.027-0.082,0.056-0.119,0.086c-1.01,0.815-2.084,1.688-3.135,2.593c-0.037,0.033-0.079,0.063-0.121,0.095
		c-0.234-0.315-0.549-0.698-1.042-0.866c-0.188-0.064-0.36-0.031-0.474-0.008c-0.001-0.002-0.003-0.002-0.004,0
		c-0.015-0.012-0.029-0.021-0.044-0.033c-0.112-0.079-0.283-0.201-0.517-0.247c-0.659-0.13-1.354,0.239-1.784,0.626
		c-0.335,0.301-0.564,0.646-0.678,0.997c-0.042,0.022-0.087,0.039-0.126,0.072c-0.167,0.147-0.349,0.188-0.658,0.248
		c-0.125,0.024-0.261,0.055-0.401,0.095c-0.004-0.192,0.039-0.415,0.127-0.656C11.164,11.089,12.05,10.301,13.393,9.841 M3.034,27
		c-0.213-0.751-0.427-1.5-0.655-2.248c-0.674-2.213-1.097-4.58,0.356-6.893c0.531-0.846,1.096-1.529,1.729-2.093
		c0.487-0.435,2.415-1.568,5.043-2.527c0.021,0.104,0.054,0.185,0.092,0.256c-0.439,0.509-0.458,1.036-0.333,1.651
		c0.01,0.044,0.033,0.083,0.051,0.125c-0.009,0.007-0.02,0.015-0.028,0.022c-0.111,0.105-0.256,0.279-0.355,0.518
		c-0.61-0.517-1.312-0.548-2.097-0.078c-0.516,0.309-1.025,0.689-1.362,1.016c-0.622,0.601-0.594,1.252-0.57,1.826l0.006,0.14
		c0.003,0.104,0.035,0.196,0.085,0.278c-0.112,0.156-0.208,0.325-0.344,0.479c-0.241,0.271-0.576,0.417-0.785,0.725
		c-0.088,0.126-0.145,0.257-0.188,0.393c0.008-1.024,0.338-2.072,0.978-2.974c0.187-0.263,0.124-0.626-0.139-0.813
		c-0.262-0.186-0.626-0.124-0.812,0.139c-1.393,1.961-1.581,4.506-0.476,6.48c1.417,2.536,4.411,4.478,8.008,5.195
		c4.731,0.939,16.071,2.049,19.479,2.111c1.283,0.023,2.542,0.01,3.775-0.039c0.164-0.007,0.325-0.018,0.488-0.025
		c0.002,0.001,0.004,0.001,0.01,0.003c0.002-0.001,0.004-0.003,0.008-0.003c6.4-0.312,12.149-1.622,17.469-3.976
		c1.201-0.532,2.148-1.028,2.979-1.561c1.765-1.13,3.149-2.19,3.597-4.637c0.254-1.396-0.23-3.438-3.994-5.239
		c-0.292-0.139-0.64-0.016-0.777,0.274c-0.14,0.29-0.018,0.639,0.272,0.777c1.711,0.819,3.682,2.174,3.353,3.978
		c-0.003,0.012-0.005,0.021-0.006,0.033c-0.15-0.545-0.598-1.011-1.188-1.017c-0.367-1.075-1.276-1.654-2.256-2.152
		c-0.924-0.474-1.928-1.264-2.958-1.486c0.031-1.135-0.333-2.076-1.083-2.742c-0.127-0.111-0.261-0.2-0.396-0.281
		c0.71,0.13,1.674,0.336,2.988,0.662c0.971,0.241,2.092,0.729,3.08,1.16l0.074,0.032c1.484,0.646,2.849,1.931,3.475,3.272
		c0.211,0.454,0.35,0.961,0.406,1.503c0.129,1.211-0.139,2.325-0.52,3.394c-0.795,1.246-1.938,2.54-3.918,3.793
		c-1.449,0.914-2.975,2.049-5.51,2.886c-3.455,1.14-5.355,1.689-8.199,2.232c-2.539,0.484-4.049,1.047-5.686,1.271
		c-2.896,0.394-1.697,3.743-4.254,7.66c-1.191,1.825-3.518,3.079-5.511,3.236c-2.654,0.21-5.551,0.236-7.884-0.336
		c-3.009-0.737-6.283-1.972-8.889-3.74c-1.524-1.541-2.848-3.299-3.888-5.192C4.494,32.133,3.752,29.524,3.034,27 M37.959,48.652
		c-0.643,0.159-1.305,0.24-2.001,0.325c-0.418,0.048-0.851,0.101-1.276,0.173c-2.01,0.334-4.201,0.36-6.897,0.082
		c-0.079-0.01-0.227-0.016-0.432-0.027c-5.334-0.246-7.946-1.491-9.194-2.823c3.046,1.061,6.384,1.624,9.965,1.655
		c1.127,0.013,2.223-0.003,3.287-0.045c4.479-0.183,8.4-0.846,11.881-2.008C42.221,47.343,40.449,48.033,37.959,48.652"/>
	<path clip-path="url(#SVGID_2_)" fill="#4DB691" d="M29.615,18.828c-0.013-0.014-0.025-0.029-0.039-0.045
		c-0.013-0.005-0.029-0.009-0.049-0.013C29.564,18.82,29.6,18.833,29.615,18.828"/>
</g>
</svg>
