<?xml version="1.0" encoding="utf-8"?>
<!-- Generator: Adobe Illustrator 16.0.0, SVG Export Plug-In . SVG Version: 6.00 Build 0)  -->
<!DOCTYPE svg PUBLIC "-//W3C//DTD SVG 1.1//EN" "http://www.w3.org/Graphics/SVG/1.1/DTD/svg11.dtd">
<svg version="1.1" id="Layer_1" xmlns="http://www.w3.org/2000/svg" xmlns:xlink="http://www.w3.org/1999/xlink" x="0px" y="0px"
	 width="70.308px" height="64.125px" viewBox="0 0 70.308 64.125" enable-background="new 0 0 70.308 64.125" xml:space="preserve">
<polygon fill="#FCEA00" points="47.762,0.521 0.589,56.934 69.156,56.654 "/>
<g>
	<defs>
		
			<rect id="SVGID_1_" x="-4.001" y="7.688" transform="matrix(-0.9406 0.3395 -0.3395 -0.9406 77.1424 61.9435)" width="74.308" height="60.061"/>
	</defs>
	<clipPath id="SVGID_2_">
		<use xlink:href="#SVGID_1_"  overflow="visible"/>
	</clipPath>
	<path clip-path="url(#SVGID_2_)" fill="#5DBA93" d="M17.165,33.375c0.167,0.093,0.338,0.147,0.505,0.166
		c0.415,0.047,0.809-0.124,1.068-0.49c0.187-0.262,0.133-0.623-0.13-0.81c-0.264-0.188-0.619-0.123-0.807,0.14
		c-0.029,0.001-0.133-0.042-0.205-0.147c-0.01-0.015-0.059-0.091-0.04-0.138c0.124-0.297-0.019-0.639-0.314-0.762
		c-0.298-0.124-0.639,0.018-0.763,0.315C16.184,32.36,16.612,33.07,17.165,33.375"/>
	<path clip-path="url(#SVGID_2_)" fill="#5DBA93" d="M19.979,33.25c0.019,0.002,0.038,0.003,0.058,0.004
		c0.399,0.025,0.795-0.172,1.036-0.514c0.186-0.263,0.108-0.617-0.155-0.8c-0.246-0.173-0.59-0.12-0.785,0.1
		c-0.176-0.194-0.468-0.25-0.709-0.122c-0.284,0.152-0.391,0.505-0.238,0.791C19.352,33.015,19.638,33.211,19.979,33.25"/>
	<path clip-path="url(#SVGID_2_)" fill="#5DBA93" d="M69.321,40.518c0.101-1.221,0.226-2.738-0.278-3.834
		c-0.032-0.069-0.077-0.129-0.131-0.179l0.01-0.013c1.069-1.524,0.999-3.246,0.933-4.914l-0.01-0.229
		c-0.048-1.217-0.121-3.058-1.428-3.549c-0.123-0.046-0.247-0.096-0.373-0.147c-0.861-0.347-1.936-0.779-3.1-0.262
		c-0.041,0.018-0.077,0.04-0.111,0.066c-0.195,0.015-0.396,0.055-0.608,0.138c-0.431,0.169-0.784,0.487-1.095,0.845
		c-1.227-1.174-3.145-2.606-4.374-3.242c-0.038-0.02-0.075-0.035-0.115-0.044c-0.001-0.083,0.003-0.156,0.017-0.209
		c0.053-0.188,0.143-0.385,0.238-0.594c0.084-0.187,0.173-0.379,0.244-0.587l0.029-0.084c0.156-0.429,0.3-0.906,0.196-1.312
		c0.231-0.113,0.453-0.253,0.65-0.443c0.219-0.21,0.239-0.552,0.048-0.786c-0.187-0.229-0.402-0.319-0.544-0.378
		c-0.069-0.03-0.108-0.047-0.132-0.067c-0.047-0.041-0.115-0.152-0.176-0.253c-0.151-0.249-0.357-0.59-0.757-0.748
		c-0.601-0.236-1.105,0.069-1.442,0.272c-0.156,0.095-0.321,0.193-0.438,0.211c-0.332,0.048-1.039-0.161-1.124-0.307
		c0.057-0.22-0.019-0.452-0.191-0.596c-0.174-0.145-0.416-0.177-0.621-0.081c-0.093,0.044-0.188,0.046-0.377,0.047
		c-0.101,0-0.206-0.001-0.313,0.008c-0.101,0.008-0.188,0.016-0.262,0.023c-0.043,0.005-0.081,0.009-0.114,0.012
		c-0.017-0.02-0.037-0.047-0.065-0.086c-0.019-0.03-0.046-0.125-0.064-0.188c-0.066-0.237-0.168-0.596-0.523-0.787
		c-0.015-0.006-0.027-0.015-0.041-0.02c-0.035-0.254-0.143-0.451-0.324-0.592c-0.534-0.415-1.246-0.047-1.938,0.307
		c-0.177,0.092-0.443,0.23-0.509,0.246c-0.054,0.004-0.102-0.003-0.153-0.006c0.386-0.18,0.75-0.458,0.833-0.924
		c0.075-0.422-0.12-0.723-0.272-0.906c0.067-0.116,0.096-0.252,0.074-0.389c-0.031-0.201-0.166-0.371-0.354-0.449
		c-0.066-0.026-0.141-0.062-0.222-0.102c-0.262-0.123-0.559-0.263-0.848-0.3c-0.348-0.034-0.647,0.069-0.866,0.151
		c-0.071,0.028-0.182,0.069-0.211,0.072c-0.037-0.009-0.169-0.149-0.233-0.219c-0.279-0.311-0.748-0.829-1.66-0.642
		c-0.109,0.022-0.207,0.075-0.284,0.148c-0.38-0.562-0.845-1.142-1.492-1.162c-0.268-0.011-0.662,0.076-1.023,0.55
		c-0.072,0.094-0.125,0.186-0.166,0.275c-0.186-0.139-0.36-0.333-0.538-0.534c-0.245-0.273-0.497-0.556-0.832-0.765
		c-0.859-0.537-1.414-0.081-1.613,0.139c-0.686,0.761-0.066,1.884,0.266,2.488c0.041,0.073,0.077,0.14,0.107,0.198
		c0.116,0.226,0.257,0.425,0.38,0.601c0.35,0.495,0.416,0.64,0.271,0.932c-0.055,0.108-0.074,0.23-0.057,0.35
		c0.039,0.244,0.167,0.377,0.268,0.447c0.009,0.006,0.02,0.009,0.028,0.014c-0.148,0.074-0.294,0.153-0.43,0.228
		c-0.105,0.058-0.209,0.116-0.309,0.167c-0.628,0.32-0.938,0.405-1.418,0.244c-0.057-0.018-0.125-0.049-0.203-0.083
		c-0.227-0.098-0.498-0.211-0.778-0.252c0.338-0.726,0.421-1.532,0.473-2.361c0.017-0.278-0.167-0.531-0.438-0.601
		c-0.653-0.166-1.039,0.234-1.224,0.428c-0.147,0.154-0.194,0.344-0.228,0.483c-0.007,0.024-0.012,0.05-0.018,0.074
		c-0.053-0.003-0.112-0.004-0.18,0c-0.23-0.076-0.516-0.12-0.895,0.131c-0.286,0.19-0.455,0.526-0.619,0.852
		c-0.061,0.122-0.138,0.274-0.182,0.33l-0.041,0.051c-0.147,0.189-0.495,0.632-0.668,0.625c-0.157-0.012-0.641-0.256-0.901-0.392
		c-0.272-0.141-0.53-0.272-0.753-0.352c-0.081-0.029-0.269-0.173-0.404-0.278c-0.396-0.307-0.846-0.653-1.379-0.569
		c-0.143,0.023-0.33,0.088-0.51,0.247c-1.581-1.063-2.332-1.509-2.859-1.519c-0.403-0.007-0.802,0.195-1.121,0.355
		c-0.072,0.036-0.139,0.071-0.2,0.098c-2.005,0.903-3.625,2.201-4.563,3.654c-0.121,0.188-0.24,0.37-0.358,0.549
		c-0.243,0.369-0.478,0.729-0.706,1.102c-1.469-0.119-3.178,0.16-3.988,1.1c-0.065-0.092-0.158-0.167-0.272-0.21
		c-0.305-0.113-0.608-0.254-0.932-0.403c-0.345-0.161-0.702-0.326-1.075-0.463c-0.391-0.143-0.771-0.229-1.141-0.312
		c-0.395-0.089-0.769-0.173-1.117-0.32c-0.075-0.032-0.164-0.078-0.262-0.129c-0.392-0.203-0.837-0.434-1.271-0.369
		c-0.182,0.027-0.66,0.101-0.848,0.514c-0.142,0.311-0.025,0.59,0.077,0.771c-0.038,0.016-0.077,0.031-0.111,0.044
		c-0.292,0.114-0.897,0.352-0.912,1.083c-0.003,0.22,0.048,0.42,0.089,0.581c0.002,0.009,0.005,0.021,0.008,0.032
		c-0.022,0.003-0.047,0.006-0.075,0.008c-0.279,0.024-0.501,0.246-0.527,0.525c-0.052,0.542,0.155,0.963,0.321,1.301
		c0.099,0.202,0.186,0.376,0.195,0.527c0.004,0.063-0.002,0.096,0.002,0.102c-0.079,0.049-0.347,0.077-0.51,0.094
		c-0.084,0.009-0.168,0.018-0.249,0.03c-0.249,0.033-0.448,0.222-0.495,0.468c-0.082,0.433,0.139,0.839,0.373,1.271
		c0.104,0.194,0.18,0.343,0.232,0.463c-0.186-0.013-0.375,0.063-0.497,0.221c-1.374,1.746-2.204,3.288-2.105,5.582
		c0.144,3.315,1.95,6.187,3.542,8.718c0.531,0.842,1.043,1.738,1.539,2.602c1.201,2.096,2.443,4.262,4.131,6.078
		c2.635,2.834,9.305,9.068,12.129,10.381c0.656,0.305,1.336,0.575,2.034,0.818c1.435,0.562,3.103,0.988,5.13,1.218
		c0.441,0.05,0.901,0.09,1.377,0.122c0.502,0.031,0.987,0.051,1.461,0.062c0.011,0.001,0.021,0.002,0.03,0.002
		c0.399,0.011,0.792,0.016,1.173,0.014c0.183,0,0.368-0.008,0.552-0.01c0.118-0.002,0.237-0.005,0.353-0.01
		c0.172-0.006,0.339-0.004,0.51-0.012c0.563-0.025,1.119-0.075,1.672-0.143c6.119-0.678,9.6-3.188,12.75-5.461l0.302-0.217
		c0.008-0.006,0.017-0.013,0.026-0.018c1.215-0.803,2.311-1.576,3.332-2.354c1.371-1.046,5.96-5.013,6.746-6.084
		c0.402-0.55,0.86-1.085,1.302-1.603c0.765-0.895,1.552-1.818,2.147-2.896c0.78-1.418,1.437-2.713,1.55-4.186L69.321,40.518z
		 M68.006,28.89c0.585,0.221,0.646,1.764,0.675,2.505l0.009,0.229c0.063,1.542,0.121,2.998-0.723,4.198
		c-0.087,0.124-0.179,0.248-0.272,0.37c0.105-0.226,0.209-0.456,0.309-0.692c0.578-1.37,0.726-3.217,0.387-4.818
		c-0.096-0.448-0.199-0.925-0.322-1.36c-0.055-0.199-0.11-0.35-0.172-0.475C67.931,28.86,67.969,28.875,68.006,28.89 M58.122,48.361
		c-0.104-0.182-0.304-0.305-0.53-0.293c-0.619,0.026-1.27,0.281-1.898,0.529c-0.288,0.111-0.562,0.219-0.799,0.29
		c-0.643,0.192-1.134,0.556-1.565,0.878c-0.541,0.4-1.008,0.748-1.709,0.753c-0.733,0.003-1.364-0.38-2.034-0.786
		c-0.697-0.422-1.422-0.863-2.334-0.928c-0.128-0.01-0.259-0.016-0.392-0.018c0.049-0.086,0.123-0.168,0.211-0.25
		c0.293-0.1,0.569-0.246,0.838-0.389c0.443-0.236,0.863-0.461,1.202-0.387c0.249,0.053,0.511-0.057,0.637-0.281
		c0.124-0.225,0.092-0.497-0.085-0.682c-0.035-0.057-0.065-0.256-0.086-0.389c-0.024-0.17-0.053-0.359-0.111-0.547
		c0.057-0.049,0.115-0.094,0.176-0.143c0.401-0.316,0.859-0.674,1.041-1.504c0.04-0.184,0.046-0.359,0.049-0.514
		c0.007-0.164,0.011-0.305,0.054-0.387c0.051-0.094,0.151-0.189,0.269-0.301c0.145-0.137,0.309-0.291,0.446-0.508
		c0.13-0.201,0.211-0.42,0.283-0.617c0.048-0.129,0.128-0.346,0.155-0.381c0,0,0.021-0.004,0.068,0.005
		c0.068,0.011,0.243,0.161,0.347,0.249c0.276,0.232,0.621,0.525,1.101,0.547c0.523,0.027,0.893-0.213,1.136-0.372
		c0.072-0.048,0.18-0.116,0.196-0.126c0.001,0,0.017,0.004,0.048,0.024c0.007,0.013,0.011,0.024,0.018,0.036
		c0.062,0.129,0.154,0.325,0.357,0.471c0.229,0.163,0.464,0.164,0.589,0.164h0.012c0.148,0.07,0.366,0.18,0.479,0.281
		c0.462,0.426,0.723,1.035,0.998,1.68c0.295,0.691,0.602,1.407,1.186,1.965c0.596,0.572,1.303,0.724,1.992,0.428
		c0.727-0.312,1.258-1.082,1.407-1.725c0.035,0.055,0.073,0.107,0.111,0.154c-0.086,0.162-0.094,0.361-0.005,0.537
		c0.085,0.168,0.242,0.273,0.416,0.307C61.053,47.047,59.55,47.787,58.122,48.361 M8.104,29.547c0.066,0.04,0.141,0.063,0.218,0.076
		c-0.122,0.137-0.256,0.269-0.412,0.417c-0.104,0.102-0.215,0.207-0.327,0.322c-0.031,0.032-0.054,0.074-0.084,0.108
		C7.675,30.167,7.874,29.861,8.104,29.547 M9.264,36.521c-0.061,0.107-0.09,0.234-0.066,0.375c0.005,0.037,0.015,0.07,0.021,0.105
		c-0.121-0.229-0.24-0.46-0.36-0.694c0.081,0.017,0.16,0.03,0.239,0.04c0.058,0.006,0.111,0.001,0.168,0.003
		C9.258,36.407,9.256,36.464,9.264,36.521 M12.162,37.282c-0.065-0.096-0.139-0.194-0.211-0.294
		c-0.708-0.974-0.873-1.372-0.454-1.812c0.222-0.232,0.213-0.602-0.021-0.823c-0.232-0.222-0.602-0.214-0.823,0.019
		c-0.274,0.288-0.428,0.582-0.499,0.871c-0.143-0.1-0.325-0.138-0.503-0.083c-0.291,0.088-0.678,0.024-1.035-0.172
		c-0.342-0.185-0.601-0.465-0.675-0.728c-0.272-0.949-0.126-2.468,0.474-3.081c0.104-0.106,0.206-0.202,0.303-0.297
		c0.373-0.359,0.725-0.697,1.02-1.287c0.051-0.102,0.102-0.211,0.151-0.321c0.149-0.322,0.302-0.656,0.507-0.844
		c0.98-0.904,3.15-1.234,4.79-1.093c0.346,0.03,0.7,0.082,1.075,0.137c1.317,0.194,2.799,0.412,4.089-0.405
		c0.045,0.017,0.092,0.031,0.14,0.036c0.082,0.009,0.167,0.002,0.25-0.026c0.268-0.088,0.428-0.356,0.395-0.626
		c0.133-0.118,0.339-0.31,0.416-0.646c0.078-0.342-0.062-0.612-0.145-0.771c-0.013-0.023-0.024-0.045-0.035-0.067
		c0.001-0.022,0.003-0.04,0.009-0.06c0.025-0.052,0.059-0.125,0.089-0.231c0.08-0.098,0.229-0.289,0.239-0.623
		c0.009-0.246-0.096-0.436-0.19-0.564c0.048-0.004,0.113-0.003,0.196,0.003c0.12,0.01,0.213,0.039,0.33,0.078
		c0.205,0.068,0.485,0.162,0.862,0.082c0.188-0.038,0.297-0.146,0.368-0.242c0.074,0.011,0.16,0.018,0.254,0.008l0.224-0.026
		c0.252-0.03,0.92-0.11,1.093-0.045c0.006,0.004,0.015,0.005,0.021,0.008c-0.17,0.357-0.278,0.725-0.37,1.062
		c-0.054,0.191-0.104,0.383-0.17,0.571l-0.142,0.403c-0.049,0.141-0.098,0.281-0.148,0.423c-1.085,0.339-1.612,0.929-2.222,1.61
		c-0.056,0.063-0.157,0.126-0.265,0.192c-0.19,0.12-0.426,0.269-0.605,0.527c-0.191,0.277-0.264,0.605-0.322,0.868
		c-0.018,0.081-0.034,0.159-0.055,0.23c-0.088,0.311,0.091,0.632,0.401,0.721c0.03,0.009,0.063,0.016,0.095,0.019
		c0.277,0.032,0.546-0.141,0.625-0.418c0.027-0.093,0.049-0.197,0.072-0.3c0.038-0.172,0.082-0.368,0.144-0.46
		c0.042-0.059,0.149-0.125,0.263-0.196c0.155-0.098,0.35-0.218,0.517-0.404c0.327-0.367,0.591-0.657,0.909-0.886
		c-0.201,0.903-0.26,1.844,0.034,2.852c0.06,0.203,0.222,0.345,0.414,0.394c-0.198,0.643-0.276,1.429-0.238,2.366
		c-0.122,0.026-0.24,0.055-0.354,0.086c-0.08,0.022-0.163,0.042-0.248,0.064c-0.533,0.136-1.198,0.305-1.612,0.868
		c-0.166,0.223-0.29,0.487-0.385,0.766c-0.113-0.084-0.258-0.129-0.409-0.113c-0.369,0.041-0.741,0.036-1.137,0.03
		c-0.245-0.003-0.49-0.005-0.738,0.002c-0.387,0.011-0.755,0.047-1.11,0.083c-0.618,0.063-1.199,0.121-1.808,0.037
		c-0.704-0.097-1.433-0.469-2.204-0.861c-1.422-0.726-3.036-1.55-4.748-0.584c-0.281,0.157-0.381,0.512-0.223,0.793
		s0.514,0.381,0.794,0.223c1.168-0.658,2.317-0.071,3.647,0.607c0.824,0.419,1.676,0.854,2.574,0.977
		c0.042,0.007,0.086,0.014,0.129,0.017c0.694,0.079,1.334,0.016,1.953-0.047c0.352-0.035,0.683-0.069,1.027-0.078
		c0.232-0.006,0.463-0.003,0.691,0c0.412,0.005,0.839,0.01,1.276-0.038c0.012-0.001,0.022-0.005,0.034-0.007
		c-0.022,0.125-0.044,0.248-0.062,0.366l-0.032,0.19c-0.137,0.813-0.086,1.631,0.034,2.438c-0.009-0.001-0.016-0.004-0.025-0.004
		c-0.625-0.037-1.058,0.377-1.406,0.708c-0.172,0.164-0.367,0.349-0.505,0.39c-0.725,0.216-1.932,0.367-2.583,0.324
		c-0.443-0.025-1.034-0.619-1.519-1.488c-0.019-0.039-0.042-0.107-0.072-0.188c-0.218-0.594-0.488-1.333-1.118-1.384
		c-0.191-0.017-0.555,0.027-0.832,0.505c-0.161,0.279-0.056,0.623,0.223,0.784c0.143,0.082,0.308,0.094,0.455,0.048
		c0.073,0.164,0.144,0.354,0.179,0.449c0.058,0.154,0.094,0.256,0.141,0.34c0.406,0.732,1.249,1.961,2.386,2.09
		c0.028,0.002,0.054,0.005,0.081,0.006c0.302,0.021,0.66,0.008,1.031-0.023c-0.108,0.234-0.221,0.492-0.299,0.678
		c-1.155,0.065-1.7,0.309-1.908,0.781c-0.043,0.1-0.075,0.219-0.073,0.356c-0.74-0.435-1.382-0.872-1.943-1.312
		c0.082-0.062,0.153-0.141,0.194-0.244C13.973,39.875,12.927,38.376,12.162,37.282 M37.054,21.241
		c1.879,0.448,3.686,0.643,5.599,0.849c1.108,0.117,2.263,0.242,3.394,0.339c2.319,0.202,4.712,0.41,6.805,1.156
		c-0.227,0.326-0.396,0.671-0.555,0.991c-0.396,0.807-0.679,1.312-1.412,1.521c-0.133,0.038-0.239,0.12-0.313,0.225
		c-0.294,0.034-0.601,0.116-0.887,0.201c-0.146,0.042-0.304,0.112-0.473,0.187c-0.165,0.074-0.464,0.206-0.598,0.22
		c-0.126-0.091-0.366-0.417-0.514-0.616c-0.425-0.574-0.862-1.167-1.501-1.039c-0.354,0.071-0.567,0.344-0.702,0.625
		c-0.085-0.012-0.166-0.021-0.238-0.027c-0.145-0.012-0.28-0.022-0.425-0.063c-0.339-0.097-0.703-0.394-0.984-0.63
		c0-0.001,0.001-0.003,0.002-0.004c0.194-0.874-0.158-1.71-0.819-1.944c-0.438-0.155-1.097-0.042-1.511,0.791
		c-0.477,0.958-1.104,1.695-1.959,2.293c-0.179-0.339-0.477-0.611-0.719-0.826c-0.054-0.049-0.104-0.094-0.151-0.139l-0.077-0.073
		c-0.423-0.397-0.727-0.686-0.995-1.155c-0.104-0.181-0.198-0.37-0.291-0.562c-0.303-0.613-0.662-1.337-1.354-1.757
		c-0.065-0.271-0.321-0.464-0.609-0.445c-0.104,0.007-0.411-0.229-0.561-0.341c-0.075-0.059-0.153-0.115-0.231-0.17
		c0.215,0.039,0.432,0.08,0.646,0.117C36.114,21.048,36.581,21.126,37.054,21.241 M51.627,31.256
		c0.31,0.062,0.617-0.151,0.683-0.462c0.059-0.276,0.828-1.191,1.647-1.958c0.413-0.387,0.991-0.768,1.435-0.945
		c0.269-0.106,0.53-0.233,0.784-0.354c0.321-0.154,0.626-0.301,0.931-0.405c0.072-0.025,0.139-0.042,0.203-0.056
		c0.103,0.337,0.395,0.578,0.624,0.765c0.087,0.07,0.207,0.168,0.244,0.219c0.098,0.133,0.101,0.165,0.116,0.299
		c0.016,0.136,0.037,0.32,0.138,0.574c0.097,0.244,0.236,0.466,0.37,0.684c0.413,0.667,0.474,0.857,0.122,1.201
		c-0.027,0.027-0.04,0.061-0.062,0.092c-0.109,0.004-0.214,0.004-0.33,0.018c-2.602,0.292-6.185,1.371-7.722,3.453
		c-0.13,0.175-0.149,0.409-0.053,0.605c0.323,0.654,0.903,1.095,1.416,1.483c0.182,0.137,0.358,0.272,0.518,0.412
		c0.452,0.401,0.899,0.708,1.375,0.943c-0.583,0.068-1.168,0.354-1.663,0.6c-0.119,0.058-0.229,0.113-0.33,0.16
		c-0.252,0.115-0.507,0.229-0.763,0.344c-0.909,0.406-1.849,0.826-2.719,1.344c-0.169,0.1-0.333,0.209-0.497,0.314
		c0.53-0.715,0.957-1.531,1.359-2.604c0.096-0.252,0.203-0.509,0.312-0.77c0.348-0.828,0.706-1.681,0.771-2.593
		c0.016-0.207-0.081-0.396-0.234-0.51c-0.018-0.141-0.051-0.275-0.108-0.397c0.017-0.03,0.031-0.062,0.042-0.097
		c0.151-0.462-0.052-1.088-0.441-1.438c0.001-0.024,0-0.046,0-0.068c0.248-0.059,0.438-0.273,0.448-0.541
		c0.014-0.328-0.093-0.591-0.178-0.8c-0.056-0.139-0.1-0.249-0.104-0.35c-0.02-0.533,0.188-0.738,0.346-0.846
		c0.229-0.156,0.501-0.221,0.788-0.291c0.604-0.146,1.435-0.345,1.795-1.536c0.032-0.107,0.062-0.214,0.089-0.318
		c0.19-0.7,0.221-0.699,0.61-0.649c0.202,0.024,0.39,0.059,0.562,0.091c0.158,0.03,0.324,0.064,0.494,0.08
		c-0.504,0.252-1.061,0.636-1.488,1.036c-0.555,0.521-1.859,1.813-1.998,2.608C51.107,30.906,51.314,31.196,51.627,31.256
		 M57.479,25.381c0.006,0.136,0.013,0.29-0.012,0.36c-0.022,0.074-0.042,0.102-0.04,0.103c-0.031,0.019-0.147,0.042-0.232,0.061
		c-0.127,0.028-0.286,0.061-0.464,0.122c-0.165,0.056-0.323,0.12-0.479,0.188c0.113-0.184,0.218-0.41,0.309-0.687
		c0.06-0.183,0.096-0.366,0.128-0.527c0.042-0.216,0.081-0.419,0.164-0.539c0.052-0.075,0.089-0.091,0.311-0.138
		c0.158-0.033,0.352-0.073,0.548-0.186c-0.067,0.156-0.13,0.32-0.178,0.493C57.46,24.899,57.471,25.155,57.479,25.381
		 M61.538,41.084c-0.23,0.646,0.15,1.057,0.335,1.254c0.002,0.002,0.004,0.004,0.005,0.006c-0.177,0.072-0.415,0.205-0.567,0.508
		c-0.227,0.443-0.121,0.798,0.034,1.055c-0.289-0.099-0.609,0.039-0.729,0.326c-0.094,0.225-0.035,0.477,0.129,0.639
		c-0.049,0.233-0.325,0.719-0.713,0.906c-0.174,0.083-0.418,0.139-0.754-0.184c-0.414-0.395-0.659-0.971-0.92-1.582
		c-0.141-0.326-0.283-0.658-0.455-0.978c0.219-0.063,0.391-0.255,0.418-0.495l0.002-0.02c0.301,0.098,0.727,0.176,1.177-0.182
		c0.325-0.26,0.415-0.561,0.434-0.812c0.235,0.006,0.487-0.033,0.708-0.201c0.147-0.113,0.335-0.326,0.385-0.713
		c0.076-0.597-0.317-0.945-0.553-1.154c-0.019-0.014-0.037-0.033-0.058-0.051c0.071-0.021,0.155-0.043,0.217-0.061
		c0.284-0.071,0.636-0.163,0.886-0.438c0.184-0.2,0.248-0.434,0.293-0.605c0.229,0.096,0.614,0.432,0.754,0.555
		c0.119,0.104,0.224,0.195,0.305,0.256c0.153,0.111,0.328,0.193,0.481,0.266c0.108,0.052,0.259,0.121,0.306,0.166
		c0.031,0.029,0.061,0.07,0.093,0.123c-0.157,0.066-0.341,0.123-0.521,0.178C62.603,40.041,61.823,40.284,61.538,41.084
		 M48.311,46.119c0.054,0.062,0.092,0.312,0.114,0.465c0.004,0.021,0.007,0.047,0.01,0.068c-0.064,0.017-0.129,0.039-0.193,0.061
		c-0.012-0.146-0.045-0.307-0.108-0.478c-0.095-0.255-0.354-0.411-0.622-0.374c-0.083,0.011-0.156,0.006-0.245-0.002
		c-0.187-0.014-0.438-0.034-0.758,0.1c-0.216,0.09-0.335,0.262-0.43,0.402c-0.015,0.021-0.028,0.041-0.042,0.062
		c-0.022,0-0.061-0.01-0.143-0.031c-0.109-0.029-0.246-0.062-0.413-0.072c-0.109-0.006-0.214,0.009-0.309,0.029
		c-0.038-0.102-0.103-0.218-0.21-0.334c-0.032-0.033-0.063-0.061-0.096-0.092c0.545-0.141,1.159-0.365,1.851-0.676
		c0.312-0.141,0.581-0.303,0.843-0.461c0.279-0.166,0.545-0.325,0.833-0.439c0.271-0.107,0.714-0.292,1.169-0.514
		c-0.004,0.049-0.009,0.094-0.018,0.133c-0.092,0.421-0.281,0.568-0.623,0.838c-0.186,0.146-0.396,0.311-0.604,0.542
		C48.119,45.564,48.116,45.898,48.311,46.119 M42.189,44.92c-0.071-0.137-0.195-0.248-0.355-0.293
		c-0.067-0.018-0.169-0.16-0.261-0.303c0.594-0.029,1.191-0.104,1.794-0.221c-0.074,0.18,0.015,0.377,0.186,0.445
		c0.052,0.215,0.249,0.344,0.46,0.357c-0.227,0.031-0.406,0.037-0.542,0.027c-0.094-0.01-0.183,0.01-0.265,0.042
		c-0.143-0.05-0.311-0.082-0.511-0.093C42.543,44.875,42.372,44.889,42.189,44.92 M33.798,47.303
		c-0.296-0.418-0.75-0.545-1.092-0.636c-0.115-0.03-0.29-0.078-0.314-0.087c-0.027-0.051-0.029-0.081-0.004-0.136
		c0.118-0.269,0.647-0.595,1.008-0.687c0.195-0.05,0.343-0.193,0.404-0.371c0.447,0.09,0.898,0.176,1.355,0.229
		c0.162,0.018,0.326,0.03,0.488,0.039c-0.129,0.094-0.277,0.164-0.461,0.248c-0.227,0.104-0.484,0.221-0.743,0.415
		C34.054,46.607,33.907,46.986,33.798,47.303 M31.362,47.127c0.117,0.223,0.29,0.365,0.474,0.463
		c-0.146,0.016-0.298,0.027-0.451,0.041c-0.638,0.053-1.342,0.114-1.942,0.459c-0.015-0.21-0.039-0.465-0.068-0.778
		c-0.11-1.151-0.277-2.308-0.48-3.345c-0.064-0.33-0.14-0.66-0.218-0.99c0.042-0.023,0.083-0.049,0.12-0.076
		c0.047,1.312,1.971,1.871,3.361,2.162c-0.348,0.229-0.67,0.535-0.836,0.911C31.153,46.352,31.168,46.762,31.362,47.127
		 M21.089,39.844c0.024,0.122,0.049,0.244,0.073,0.365c0.031,0.153,0.06,0.301,0.088,0.449c-0.303-0.057-0.652,0.021-0.952,0.225
		c-0.233,0.156-0.42,0.377-0.675,0.494c-0.355,0.162-0.767,0.121-1.139,0.244c-0.015,0.006-0.021,0.018-0.033,0.023
		c0.026-0.055,0.05-0.105,0.072-0.15c0.06-0.119,0.071-0.248,0.048-0.369c0.269-0.051,0.516-0.109,0.717-0.17
		c0.405-0.119,0.708-0.408,0.977-0.662c0.186-0.176,0.415-0.396,0.536-0.389C20.903,39.911,21.003,39.887,21.089,39.844
		 M25.583,30.087c0.229-0.254,0.499-0.495,0.783-0.751c0.238-0.212,0.478-0.437,0.708-0.673c-0.007,0.03-0.015,0.059-0.017,0.091
		c-0.043,0.558,0.231,1.021,0.713,1.208c0.101,0.04,0.203,0.064,0.308,0.075c0.461,0.052,0.946-0.15,1.259-0.549
		c0.199-0.254,0.154-0.62-0.1-0.817c-0.255-0.199-0.62-0.154-0.818,0.1c-0.066,0.084-0.152,0.109-0.2,0.109
		c-0.001-0.01,0-0.021,0.002-0.037c0.024-0.321-0.22-0.61-0.537-0.625c-0.081-0.007-0.159,0.004-0.231,0.029
		c0.046-0.056,0.089-0.106,0.136-0.165c0.278-0.349,0.626-0.785,0.937-0.859c0.062-0.015,0.064-0.015,0.222,0.106
		c0.122,0.095,0.275,0.212,0.486,0.293c0.327,0.126,0.673,0.156,0.979,0.185c0.192,0.017,0.372,0.034,0.521,0.071l0.141,0.033
		c0.176,0.04,0.64,0.147,0.729,0.216c0.106,0.185,0.142,1.003,0.085,1.438c-0.021,0.175,0.037,0.339,0.145,0.459
		c-1.009,0.295-2.072,0.697-2.8,1.7c-0.369,0.508-0.662,1.259-0.374,1.844c0.178,0.359,0.521,0.509,0.771,0.62
		c0.005,0.001,0.011,0.004,0.018,0.006c-0.04,0.049-0.084,0.101-0.117,0.14c-0.127,0.15-0.259,0.305-0.341,0.496
		c-0.309,0.719-0.091,1.076,0.16,1.38c0.073,0.09,0.125,0.153,0.169,0.261c0.051,0.132,0.051,0.132-0.077,0.329
		c-0.06,0.096-0.132,0.218-0.2,0.36c-0.05,0.013-0.102,0.023-0.148,0.05c-0.31,0.178-0.63,0.433-0.926,0.675
		c0.042-0.553-0.07-1.066-0.178-1.546c-0.076-0.342-0.155-0.697-0.181-1.064l-0.003-0.047c-0.098-1.397-0.221-3.136,0.492-4.192
		c0.182-0.268,0.111-0.63-0.156-0.811s-0.629-0.109-0.81,0.158c-0.938,1.389-0.8,3.351-0.688,4.928l0.002,0.044
		c0.015,0.197,0.042,0.383,0.072,0.564c-0.027-0.119-0.058-0.25-0.087-0.386c-0.202-0.899-0.431-1.918-1.005-2.365
		c-0.143-0.112-0.298-0.188-0.459-0.237C24.903,31.555,25.103,30.62,25.583,30.087 M35.372,22.65c0.637,0.12,0.912,0.62,1.311,1.427
		c0.104,0.211,0.209,0.423,0.325,0.624c0.354,0.62,0.749,0.992,1.208,1.424l0.076,0.072c0.054,0.051,0.113,0.104,0.176,0.159
		c0.142,0.128,0.475,0.425,0.482,0.547c-0.001,0.002,0,0.004,0,0.007c-0.035,0.018-0.068,0.037-0.104,0.054
		c-0.574,0.275-1.145,0.564-1.715,0.854c-1.181,0.598-2.402,1.216-3.645,1.7c-0.207,0.081-0.425,0.151-0.648,0.217
		c0.001-0.007,0.004-0.014,0.005-0.022c0.002-0.016,0.204-1.725-0.361-2.347c-0.299-0.33-0.808-0.467-1.348-0.591l-0.128-0.031
		c-0.232-0.055-0.465-0.078-0.688-0.098c-0.253-0.023-0.491-0.044-0.668-0.113c-0.052-0.02-0.117-0.07-0.192-0.129
		c-0.225-0.171-0.6-0.461-1.206-0.315c-0.374,0.09-0.687,0.306-0.956,0.562c0.011-0.039,0.024-0.075,0.033-0.115
		c0.138-0.62,0.287-0.959,0.615-1.395c0.757-1.01,1.817-1.359,3.046-1.764c0.424-0.14,0.862-0.285,1.301-0.463
		C33.051,22.607,34.489,22.483,35.372,22.65 M40.58,29.916c0.244,0.21,0.613,0.184,0.823-0.06c1.161-1.344,1.959-2.502,2.43-3.513
		c0.308,0.236,0.671,0.471,1.083,0.588c0.254,0.072,0.472,0.09,0.647,0.105c0.092,0.007,0.217,0.017,0.247,0.03
		c0,0,0.027,0.025,0.065,0.122c0.134,0.326,0.136,0.42-0.658,0.851c-0.498,0.269-1.117,0.605-1.302,1.274
		c-0.12,0.433,0.024,0.805,0.132,1.077c0.026,0.07,0.065,0.169,0.08,0.229c-0.053,0.031-0.144,0.07-0.208,0.097
		c-0.267,0.115-0.671,0.29-0.792,0.729c-0.127,0.455,0.156,0.851,0.25,0.98c0.361,0.504,0.969,0.596,1.457,0.669
		c0.172,0.025,0.333,0.051,0.438,0.085c0.402,0.138,0.437,0.224,0.604,0.631c0.064,0.158,0.137,0.332,0.238,0.529
		c0.047,0.09,0.113,0.163,0.191,0.215c-0.075,0.127-0.152,0.239-0.248,0.314c-0.176,0.138-0.359,0.243-0.554,0.354
		c-0.364,0.208-0.775,0.445-1.138,0.912c-0.52,0.669-1.676,1.4-2.475,1.565c-0.314,0.064-0.518,0.372-0.453,0.688
		c0.064,0.314,0.373,0.518,0.688,0.453c1.078-0.221,2.467-1.096,3.161-1.992c0.222-0.284,0.476-0.432,0.798-0.616
		c0.211-0.121,0.448-0.257,0.689-0.446c0.35-0.273,0.533-0.621,0.694-0.931c0.082-0.153,0.158-0.298,0.245-0.411
		c0.237-0.31,0.972-0.488,1.33-0.322c0.072,0.033,0.141,0.064,0.092,0.298c-0.271,1.237-1.932,2.406-3.145,3.26
		c-0.266,0.187-0.518,0.364-0.74,0.531c-2.525,1.886-5.994,2.962-9.054,3.764c-1.716,0.452-3.354,0.495-5.177,0.126
		c0.201-0.119,0.401-0.242,0.586-0.384c0.279-0.212,0.506-0.438,0.706-0.637c0.331-0.325,0.591-0.583,0.994-0.737
		c0.696-0.271,1.561-0.367,2.397-0.457c0.281-0.03,0.558-0.061,0.824-0.098c1.693-0.229,3.156-0.799,4.483-1.381
		c0.294-0.129,0.429-0.473,0.301-0.767c-0.071-0.164-0.21-0.274-0.368-0.322c-0.002-0.01-0.002-0.018-0.003-0.028
		c-0.151-0.647-0.235-1.478-0.845-1.818c0.1-0.206,0.126-0.418,0.146-0.581c0.006-0.055,0.016-0.129,0.026-0.182
		c0.033,0.015,0.07,0.033,0.101,0.048c0.201,0.098,0.538,0.263,0.957,0.152c0.312-0.083,0.506-0.403,0.424-0.714
		c-0.084-0.312-0.392-0.498-0.703-0.414c-0.029-0.004-0.111-0.043-0.166-0.071c-0.223-0.109-0.594-0.292-1.053-0.108
		c-0.607,0.242-0.698,0.788-0.739,1.108c-0.019-0.026-0.035-0.053-0.048-0.075c-0.204-0.315-0.485-0.746-0.998-0.721
		c-0.553,0.028-0.852,0.614-0.965,0.833c-0.015,0.029-0.027,0.058-0.039,0.09c-0.092-0.232-0.252-0.47-0.527-0.586
		c-0.176-0.073-0.533-0.147-0.965,0.173c-0.398,0.298-0.486,0.804-0.527,1.292c-0.092-0.024-0.191-0.032-0.298-0.018
		c-0.583,0.082-0.722,0.69-0.856,1.28c-0.031,0.135-0.075,0.332-0.121,0.477c-0.169-0.13-0.352-0.174-0.543-0.129
		c-0.379,0.088-0.499,0.439-0.617,0.778c-0.076,0.225-0.093,0.441-0.106,0.613c-0.009,0.137-0.018,0.258-0.052,0.338
		c-0.062,0.141-0.062,0.295-0.012,0.43c-0.371,0.225-0.65,0.5-0.921,0.767c-0.192,0.19-0.375,0.368-0.595,0.536
		c-0.209,0.162-0.469,0.31-0.744,0.467c-0.299,0.171-0.605,0.35-0.871,0.557c0.019-0.125,0.04-0.262,0.069-0.329
		c0.032-0.071,0.073-0.144,0.112-0.22c0.155-0.287,0.469-0.875,0.229-1.428c0.229-0.266,0.417-0.588,0.407-1.131
		c-0.004-0.223-0.036-0.396-0.061-0.533c-0.038-0.21-0.052-0.281,0.02-0.454c0.043-0.105,0.101-0.197,0.162-0.292
		c0.179-0.277,0.445-0.698,0.179-1.382c-0.109-0.281-0.256-0.459-0.353-0.575c-0.014-0.017-0.027-0.032-0.039-0.048
		c0.007-0.026,0.021-0.069,0.047-0.13c0.02-0.038,0.104-0.137,0.16-0.204c0.235-0.277,0.674-0.793,0.378-1.408
		c-0.153-0.324-0.469-0.461-0.7-0.562c-0.059-0.026-0.141-0.063-0.19-0.09c0.005-0.108,0.084-0.366,0.27-0.621
		c0.601-0.827,1.586-1.101,2.63-1.392c0.433-0.12,0.879-0.243,1.308-0.411c1.294-0.505,2.541-1.136,3.747-1.747
		c0.563-0.285,1.126-0.571,1.693-0.843c1.689-0.81,2.836-1.915,3.613-3.474c0.038-0.08,0.076-0.133,0.105-0.166
		c0.049,0.086,0.103,0.272,0.041,0.545c-0.354,1.583-2.038,3.532-2.592,4.173C40.311,29.337,40.338,29.706,40.58,29.916
		 M50.866,27.474c0.304,0.081,0.609-0.095,0.702-0.389c0.126-0.053,0.24-0.115,0.348-0.179c-0.021,0.075-0.043,0.149-0.06,0.215
		c-0.025,0.093-0.052,0.189-0.081,0.286c-0.167,0.55-0.413,0.61-0.952,0.739c-0.34,0.083-0.766,0.186-1.17,0.461
		c-0.412,0.279-0.895,0.828-0.856,1.854c0.012,0.305,0.11,0.546,0.188,0.741c0.027,0.064,0.051,0.125,0.069,0.18
		c-0.371-0.166-0.759-0.245-1.204-0.245c-0.424-0.001-0.664,0.101-1.08-0.192c-0.266-0.187-0.445-0.455-0.725-0.639
		c-0.012-0.022-0.025-0.043-0.035-0.064c-0.176-0.356-0.533-0.419-0.81-0.298c-0.026-0.008-0.056-0.012-0.083-0.019
		c-0.046-0.117-0.093-0.248-0.079-0.303c0.054-0.189,0.415-0.385,0.733-0.558c0.61-0.33,1.744-0.946,1.183-2.318
		c-0.006-0.014-0.012-0.023-0.018-0.035c0.081,0.102,0.161,0.209,0.225,0.294c0.354,0.48,0.688,0.936,1.151,1.058
		c0.049,0.012,0.098,0.021,0.146,0.026c0.412,0.047,0.842-0.143,1.224-0.314c0.125-0.056,0.255-0.113,0.327-0.134
		C50.607,27.466,50.806,27.462,50.866,27.474 M44.383,31.786c0.005-0.001,0.009-0.004,0.013-0.005
		c0.005,0.007,0.01,0.016,0.014,0.023c-0.011-0.005-0.025-0.009-0.035-0.015L44.383,31.786 M33.643,38.806
		c0.003-0.038,0.005-0.073,0.008-0.105c0.009,0.001,0.019-0.001,0.026-0.001c0.005,0.107,0.048,0.215,0.117,0.297
		c-0.058,0.014-0.117,0.023-0.174,0.037C33.631,38.953,33.637,38.875,33.643,38.806 M38.084,35.682
		c0.008-0.105,0.018-0.253,0.026-0.337c0.123,0.189,0.277,0.405,0.488,0.554c-0.021,0.036-0.041,0.069-0.062,0.107
		c-0.07,0.125-0.116,0.208-0.142,0.261c-0.151,0.018-0.294,0.083-0.412,0.202C38.046,36.196,38.067,35.911,38.084,35.682
		 M36.647,38.406c0.007,0.008,0.013,0.012,0.021,0.018c0.051,0.049,0.107,0.097,0.168,0.137c-0.153,0.027-0.307,0.054-0.464,0.075
		c-0.034,0.005-0.072,0.009-0.107,0.013C36.4,38.574,36.532,38.492,36.647,38.406 M38.827,37.875
		c0.259-0.01,0.502-0.125,0.708-0.389c-0.001-0.001,0.001-0.001,0.001-0.003c0.002,0.003,0.004,0.01,0.004,0.013
		c0.021,0.086,0.058,0.16,0.101,0.227c-0.367,0.148-0.745,0.288-1.136,0.413C38.617,38.057,38.726,37.971,38.827,37.875
		 M36.036,36.923c0.006-0.017,0.013-0.035,0.018-0.053c0.004,0.008,0.009,0.017,0.013,0.023
		C36.056,36.905,36.046,36.914,36.036,36.923 M34.864,37.779c0.045-0.143,0.082-0.291,0.115-0.437
		c0.104,0.106,0.244,0.169,0.396,0.176C35.214,37.612,35.043,37.697,34.864,37.779 M28.937,38.728
		c0.005,0.218-0.021,0.25-0.293,0.528l-0.135,0.141c-0.114,0.12-0.173,0.282-0.159,0.447c0.013,0.165,0.096,0.316,0.226,0.416
		c0.029,0.021,0.041,0.037,0.046,0.039c-0.003,0.08-0.115,0.29-0.184,0.416c-0.052,0.098-0.101,0.193-0.144,0.287
		c-0.036,0.076-0.06,0.152-0.082,0.229c-0.173-0.594-0.358-1.188-0.549-1.775c0.107-0.004,0.217-0.027,0.312-0.092
		c0.173-0.119,0.376-0.286,0.592-0.463c0.115-0.096,0.238-0.195,0.359-0.293C28.931,38.646,28.937,38.684,28.937,38.728
		 M25.622,46.071c0.004,0.002,0.007,0.005,0.01,0.007l0.008,0.004c0.005,0.01,0.01,0.02,0.016,0.031
		c0.008,0.128,0.055,0.248,0.139,0.342c-0.031,0.045-0.055,0.096-0.076,0.146C25.683,46.426,25.648,46.252,25.622,46.071
		 M25.952,43.834c0.039,0.035,0.08,0.066,0.121,0.1c-0.044,0.024-0.091,0.047-0.134,0.074c-0.103,0.057-0.189,0.148-0.248,0.256
		c-0.206,0.184-0.216,0.453-0.101,0.66c-0.031,0.029-0.059,0.064-0.087,0.096c-0.014-0.154-0.028-0.305-0.042-0.461
		c-0.059-0.672-0.117-1.365-0.244-2.03c-0.004-0.023-0.008-0.046-0.014-0.069c0.054,0.043,0.115,0.08,0.184,0.103
		c-0.033,0.212,0.024,0.429,0.24,0.554c0.054,0.031,0.1,0.057,0.147,0.084C25.687,43.413,25.768,43.664,25.952,43.834
		 M27.567,43.348c0.02,0.084,0.038,0.168,0.057,0.252c-0.079-0.035-0.163-0.066-0.249-0.084
		C27.461,43.474,27.522,43.414,27.567,43.348 M23.76,34.136c0.615-0.171,0.855-0.122,0.948-0.048c0.244,0.19,0.474,1.21,0.583,1.701
		c0.067,0.296,0.13,0.575,0.198,0.792c0.188,0.59,0.388,1.186,0.587,1.785c0.112,0.338,0.226,0.677,0.337,1.02
		c-0.023,0.006-0.046,0.012-0.069,0.017c-0.114-0.44-0.472-0.784-0.501-1.262c-0.039-0.603-1.012-0.717-1.181-0.135
		c-0.208,0.72,0.331,1.472,0.013,1.966c-0.125-0.57-0.248-1.146-0.352-1.723c-0.087-0.482-0.239-0.92-0.389-1.343
		c-0.142-0.406-0.274-0.788-0.343-1.187c-0.017-0.093-0.028-0.188-0.04-0.282c-0.049-0.362-0.113-0.769-0.345-1.155
		c0.092-0.025,0.187-0.049,0.279-0.074C23.579,34.183,23.672,34.16,23.76,34.136 M18.323,41.926c0.002,0.016,0.006,0.027,0.01,0.042
		c-0.01-0.001-0.02-0.001-0.029,0C18.312,41.953,18.316,41.939,18.323,41.926 M22.605,41.683c-0.07-0.565-0.188-1.144-0.301-1.704
		c-0.235-1.172-0.481-2.381-0.296-3.479l0.031-0.197c0.061-0.371,0.138-0.831,0.265-1.206c0.04,0.145,0.065,0.309,0.09,0.492
		c0.015,0.109,0.03,0.219,0.048,0.327c0.086,0.495,0.24,0.941,0.393,1.374c0.139,0.397,0.271,0.775,0.34,1.166
		c0.142,0.783,0.314,1.562,0.481,2.316c0.144,0.646,0.29,1.314,0.417,1.975c0.01,0.053,0.014,0.107,0.023,0.161
		c-0.095-0.28-0.206-0.558-0.336-0.825c-0.106-0.217-0.337-0.348-0.577-0.324c-0.187,0.018-0.381,0.04-0.579,0.066
		C22.609,41.777,22.611,41.73,22.605,41.683 M36.44,44.451c-0.014,0.011-0.021,0.023-0.035,0.035
		c-0.894,0.064-1.847-0.129-2.77-0.32l-0.285-0.059c-0.081-0.016-0.181-0.035-0.299-0.059c-1.911-0.357-2.65-0.709-2.93-0.955
		c0.648,0.162,1.275,0.277,1.887,0.348c1.532,0.172,2.979,0.061,4.485-0.336c3.167-0.831,6.769-1.951,9.454-3.957
		c0.214-0.16,0.457-0.33,0.714-0.513c0.593-0.417,1.243-0.878,1.832-1.388c-0.044,0.107-0.092,0.217-0.13,0.322
		c-0.414,1.098-0.826,1.86-1.379,2.543c-0.202,0.25-0.163,0.618,0.087,0.818c0.09,0.074,0.193,0.115,0.301,0.129
		c0.005,0,0.01-0.002,0.015-0.001c-0.021,0.015-0.045,0.03-0.066,0.046c-0.799,0.551-1.555,1.072-2.405,1.371
		c-1.362,0.479-2.718,0.713-4.031,0.698c-0.106-0.001-0.206,0.028-0.291,0.079c-0.015-0.008-0.026-0.02-0.041-0.024
		c-0.11-0.046-0.446-0.185-1.653-0.081c-0.768,0.066-1.057,0.557-1.229,0.848c-0.111,0.189-0.148,0.236-0.237,0.268
		C37.087,44.119,36.781,44.176,36.44,44.451 M49.813,42.416c0.002-0.006,0.004-0.01,0.005-0.014c0.004-0.026,0.01-0.053,0.015-0.078
		c0.035-0.031,0.068-0.064,0.099-0.1c0.109,0.006,0.22-0.012,0.322-0.057c-0.001,0-0.002,0.001-0.001,0.002
		c-0.082,0.077-0.17,0.158-0.254,0.254C49.938,42.414,49.876,42.406,49.813,42.416 M52.515,40.443
		c0.264-0.219,0.252-0.578,0.095-0.826c0.097-0.045,0.199-0.094,0.312-0.148c0.46-0.23,1.156-0.577,1.538-0.484
		c0.123,0.03,0.351,0.18,0.765,0.674c-0.616,0.391-1.305,0.834-1.611,1.336c-0.029,0.047-0.047,0.098-0.061,0.15
		c-0.014,0-0.025,0.004-0.039,0.002c-0.084-0.007-0.271-0.16-0.404-0.273c-0.179-0.15-0.373-0.312-0.611-0.416
		C52.504,40.451,52.51,40.447,52.515,40.443 M58.662,32.084c1.332-0.149,1.854,0.421,2.149,2.352l0.027,0.173
		c0.084,0.54,0.342,2.181,0.083,2.633c-0.061,0.105-0.085,0.223-0.075,0.336c-0.088,0.148-0.129,0.305-0.16,0.418
		c-0.01,0.039-0.023,0.094-0.037,0.126c-0.062,0.032-0.208,0.069-0.307,0.095c-0.247,0.064-0.633,0.169-0.896,0.447
		c-0.829-0.684-1.983-0.997-3.1-1.301c-0.511-0.138-0.994-0.27-1.404-0.427c-0.528-0.204-0.984-0.489-1.478-0.928
		c-0.186-0.166-0.39-0.32-0.587-0.47c-0.319-0.242-0.647-0.492-0.877-0.772C53.367,33.28,56.267,32.354,58.662,32.084 M56.54,39.449
		c-0.297-0.398-0.609-0.785-0.939-1.084c0.147,0.041,0.289,0.083,0.44,0.124c0.999,0.271,2.032,0.552,2.666,1.077
		c0.091,0.074,0.196,0.117,0.306,0.129c0.066,0.008,0.136,0,0.201-0.016c0.103,0.307,0.338,0.518,0.487,0.65L59.7,40.331
		c-0.11-0.017-0.219-0.03-0.32-0.038c-0.294-0.018-0.555,0.189-0.607,0.479c-0.037,0.205-0.022,0.379-0.01,0.521
		c0.005,0.047,0.01,0.109,0.009,0.143c-0.038-0.006-0.127-0.039-0.193-0.062c-0.15-0.057-0.337-0.137-0.562-0.15
		c-0.233-0.026-0.46,0.09-0.573,0.296c-0.098,0.177-0.162,0.368-0.212,0.568c-0.051-0.052-0.099-0.104-0.153-0.155
		c-0.237-0.217-0.551-0.375-0.825-0.505c-0.134-0.062-0.264-0.081-0.361-0.084c-0.057-0.116-0.141-0.278-0.306-0.401
		c-0.033-0.027-0.066-0.043-0.1-0.064c0.137-0.091,0.272-0.178,0.391-0.254c0.203-0.129,0.389-0.248,0.535-0.352
		c0.127-0.092,0.213-0.229,0.237-0.385C56.674,39.732,56.634,39.575,56.54,39.449 M60.951,31.649
		c-0.042-0.045-0.081-0.088-0.126-0.127c0.062,0.009,0.121,0.007,0.181-0.005C60.987,31.561,60.967,31.604,60.951,31.649
		 M60.173,31.061c0.008,0.021,0.015,0.041,0.021,0.062c-0.014-0.008-0.029-0.011-0.044-0.017
		C60.157,31.09,60.166,31.076,60.173,31.061 M32.707,21.214c0.244,0.044,0.551,0.135,0.854,0.243
		c-0.612,0.061-1.224,0.181-1.709,0.378c-0.402,0.163-0.821,0.301-1.228,0.436c-1.296,0.428-2.636,0.87-3.613,2.169
		c-0.487,0.65-0.675,1.187-0.82,1.843c-0.066,0.301-0.187,0.6-0.313,0.915c-0.133,0.33-0.269,0.67-0.354,1.04
		c-0.023,0.097-0.018,0.191,0.008,0.281c-0.278,0.25-0.562,0.506-0.816,0.788c-0.024,0.028-0.046,0.061-0.069,0.09
		c-0.206-1.21,0.186-2.337,0.636-3.62l0.144-0.41c0.073-0.211,0.132-0.426,0.191-0.642c0.126-0.457,0.243-0.887,0.503-1.215
		c0.304-0.388,0.904-0.626,1.484-0.855c0.116-0.045,0.231-0.092,0.341-0.136c0.253-0.107,0.515-0.221,0.784-0.341
		C29.997,21.617,31.436,20.985,32.707,21.214 M28.604,18.583c0.16-0.134,0.312-0.257,0.446-0.323
		c0.255-0.121,0.672-0.183,0.77-0.152c0.085,0.079,0.193,0.403-0.018,1.718c-0.023,0.138-0.041,0.255-0.051,0.34
		c-0.012,0.11,0.009,0.214,0.051,0.307c-0.534,0.192-1.051,0.42-1.545,0.64c-0.26,0.114-0.513,0.227-0.758,0.328
		c-0.104,0.044-0.214,0.087-0.324,0.131c-0.548,0.216-1.152,0.459-1.628,0.866c-0.042-0.044-0.089-0.085-0.146-0.117
		c-0.192-0.104-0.43-0.147-0.699-0.159c0.686-0.938,1.391-1.871,2.113-2.776c0.053-0.01,0.102-0.026,0.149-0.05
		c0.075-0.038,0.186-0.059,0.312-0.085c0.16-0.03,0.362-0.071,0.569-0.162C28.144,18.96,28.389,18.758,28.604,18.583 M20.425,23.979
		c0.018,0.026,0.035,0.053,0.052,0.074c-0.047,0.072-0.099,0.167-0.126,0.291c-0.007,0.027-0.012,0.036-0.028,0.071
		c-0.067,0.148-0.129,0.308-0.116,0.633c0.009,0.225,0.099,0.396,0.164,0.524c-0.009,0.007-0.015,0.014-0.022,0.02
		c-0.062,0.054-0.163,0.149-0.249,0.279c-0.071,0.02-0.139,0.049-0.201,0.097c-0.156,0.117-0.321,0.204-0.49,0.278
		c0.036-0.064,0.061-0.139,0.07-0.216C19.548,25.439,19.989,24.699,20.425,23.979 M16.375,43.225
		c0.326-0.074,1.027-0.139,2.532-0.07c0.121,0.006,0.214,0.009,0.271,0.01c0.198,0.005,0.389,0.012,0.575,0.018
		c0.74,0.023,1.439,0.047,2.235-0.088c0.319-0.054,0.612-0.098,0.888-0.131c0.306,0.762,0.465,1.604,0.63,2.487
		c0.083,0.433,0.167,0.873,0.27,1.312c-0.794-0.273-1.634-0.566-2.531-0.881c-1.935-0.684-3.528-1.359-4.861-2.035
		C16.497,43.652,16.499,43.413,16.375,43.225 M31.481,48.793c0.242-0.021,0.498-0.043,0.755-0.08l0,0
		c-0.121,0.008-0.241,0.054-0.342,0.139c-0.104,0.094-0.161,0.215-0.183,0.342c-0.368-0.09-0.745-0.189-1.13-0.292
		C30.853,48.846,31.155,48.818,31.481,48.793 M33.167,49.414c0.078-0.108,0.151-0.211,0.219-0.262
		c0.036-0.024,0.125-0.051,0.211-0.076c0.17-0.049,0.382-0.111,0.59-0.264c0.433-0.317,0.583-0.755,0.693-1.075
		c0.087-0.253,0.143-0.399,0.26-0.487c0.157-0.119,0.338-0.201,0.527-0.289c0.399-0.182,0.896-0.408,1.271-1.022
		c0.086-0.14,0.135-0.282,0.178-0.407c0.013-0.039,0.031-0.092,0.043-0.131c0.16,0.046,0.356,0.059,0.613-0.02
		c0.529-0.16,0.754-0.541,0.902-0.795c0.141-0.235,0.161-0.262,0.326-0.275c0.643-0.057,1.023-0.031,1.106-0.004
		c0.109,0.045,0.258,0.285,0.377,0.477c0.102,0.165,0.217,0.348,0.359,0.514c-0.183,0.064-0.364,0.131-0.543,0.197
		c-1.156,0.436-2.243,1.131-3.06,1.689c-0.229,0.158-0.516,0.326-0.819,0.506c-0.812,0.48-1.732,1.024-2.242,1.721
		c-0.068,0.092-0.103,0.196-0.11,0.302c-0.322-0.062-0.646-0.128-0.974-0.198C33.121,49.48,33.145,49.447,33.167,49.414
		 M37.015,48.693c0.321-0.189,0.624-0.369,0.885-0.547c0.763-0.521,1.772-1.17,2.822-1.564c0.403-0.152,1.478-0.557,1.916-0.535
		c0.01,0.002,0.02,0.002,0.028,0.003c0.027,0.165,0.087,0.388,0.253,0.634c0.161,0.24,0.473,0.325,0.733,0.203l0.072-0.035
		c0.103-0.051,0.218-0.104,0.29-0.133c0.016,0.014,0.035,0.031,0.06,0.057c0.029,0.219,0.124,0.516,0.549,0.713
		c0.258,0.121,0.523,0.061,0.716,0.018c0.039-0.009,0.077-0.018,0.074-0.021c0.055,0.004,0.118,0.019,0.192,0.037
		c0.136,0.035,0.315,0.074,0.526,0.061c-0.352,0.098-0.656,0.213-0.923,0.344c-0.013-0.004-0.024-0.005-0.038-0.01
		c-0.148-0.031-0.388,0.022-0.529,0.037c-0.471,0.042-0.93,0.126-1.381,0.27c-1.005,0.324-2.265,0.637-3.032,1.393
		c-0.06,0.057-0.103,0.125-0.136,0.195c-0.232,0.02-0.467,0.039-0.702,0.051c-0.279,0.014-0.347,0.318-0.235,0.52
		c-1.383-0.115-2.641-0.259-3.887-0.459C35.679,49.484,36.384,49.066,37.015,48.693 M44.957,50.635
		c0.161-0.014,0.281-0.086,0.365-0.188c0.148-0.055,0.271-0.133,0.368-0.197c0.061-0.037,0.124-0.08,0.2-0.117
		c0.392-0.189,0.737-0.205,1.278-0.166c0.52,0.037,0.997,0.279,1.488,0.568c-0.888,0.07-2.196,0.135-3.967,0.115
		C44.778,50.646,44.864,50.643,44.957,50.635 M65.376,40.182c-0.262,0.514-0.717,0.832-1.377,1.258
		c-0.145,0.094-0.306,0.217-0.475,0.348c-0.137,0.107-0.293,0.227-0.438,0.324c-0.081-0.264-0.254-0.455-0.36-0.568
		c-0.025-0.027-0.058-0.061-0.08-0.088c0.097-0.221,0.419-0.336,0.929-0.496c0.503-0.156,1.073-0.333,1.444-0.793
		c0.065-0.08,0.097-0.173,0.112-0.268c0.107-0.027,0.21-0.082,0.289-0.17c0.122-0.136,0.243-0.277,0.362-0.422
		C65.648,39.611,65.52,39.9,65.376,40.182 M64.649,28.68c0.438-0.172,0.788-0.005,1.37,0.306c0.161,0.086,0.322,0.171,0.487,0.247
		c0.094,0.043,0.172,0.077,0.24,0.105c0.048,0.02,0.086,0.033,0.12,0.05c0.014,0.034,0.038,0.104,0.077,0.245
		c0.113,0.406,0.212,0.86,0.305,1.291c0.292,1.38,0.17,2.96-0.321,4.123c-0.652,1.549-1.431,2.836-2.311,3.828
		c-0.048-0.061-0.1-0.123-0.165-0.184c-0.18-0.168-0.405-0.273-0.604-0.367c-0.111-0.052-0.226-0.105-0.288-0.152
		c-0.061-0.044-0.139-0.113-0.228-0.191c-0.303-0.264-0.726-0.633-1.188-0.793c0.132-0.756,0-1.765-0.154-2.758l-0.025-0.169
		c-0.044-0.287-0.102-0.65-0.201-1.029c0.031-0.065,0.052-0.138,0.057-0.214c0.055-0.844,0.488-1.73,1.325-2.713
		c0.13-0.149,0.263-0.327,0.402-0.513C63.888,29.339,64.271,28.828,64.649,28.68 M62.411,29.362
		c-0.052,0.065-0.102,0.129-0.15,0.186c-0.364,0.427-0.664,0.846-0.904,1.259c-0.015-0.08-0.034-0.16-0.066-0.238
		c0.045-0.124,0.046-0.263,0.002-0.396c-0.11-0.328-0.334-0.568-0.623-0.748c-0.072-0.045-0.155-0.06-0.238-0.057
		c-0.047-0.029-0.09-0.061-0.141-0.084c-0.126-0.058-0.241-0.057-0.337-0.018c-0.056-0.095-0.109-0.184-0.16-0.265
		c-0.112-0.183-0.22-0.354-0.28-0.505c-0.042-0.106-0.049-0.173-0.061-0.271c-0.029-0.249-0.076-0.502-0.334-0.854
		c-0.125-0.172-0.29-0.306-0.449-0.436c-0.07-0.057-0.179-0.146-0.233-0.204c-0.007-0.076-0.032-0.146-0.066-0.21
		c0.034-0.048,0.067-0.099,0.099-0.155C59.634,27.024,61.353,28.333,62.411,29.362 M57.317,22.762
		c-0.064,0.134-0.164,0.336-0.184,0.364c-0.035,0.021-0.127,0.04-0.209,0.057c-0.266,0.056-0.71,0.148-1.034,0.62
		c-0.219,0.318-0.286,0.667-0.347,0.974c-0.027,0.141-0.054,0.273-0.091,0.387c-0.235,0.718-0.284,0.71-1.086,0.559
		c-0.196-0.036-0.407-0.076-0.637-0.103c-0.007-0.002-0.015-0.003-0.021-0.003c-0.25-0.028-0.464-0.018-0.649,0.022
		c0.102-0.183,0.193-0.366,0.282-0.546c0.246-0.498,0.478-0.967,0.87-1.293c0.155-0.128,0.233-0.329,0.205-0.53
		c-0.028-0.2-0.158-0.372-0.342-0.453c-0.101-0.044-0.203-0.078-0.304-0.119c0.529,0.029,1.033,0.01,1.555-0.013l0.454-0.017
		c0.264-0.009,0.562,0.005,0.88,0.02c0.22,0.01,0.448,0.019,0.683,0.021C57.335,22.727,57.326,22.747,57.317,22.762 M38.69,19.755
		c0.109,0.047,0.21,0.088,0.292,0.117c0.949,0.317,1.638,0.035,2.315-0.31c0.112-0.058,0.229-0.123,0.347-0.188
		c0.294-0.164,0.599-0.334,0.858-0.385c0.079-0.016,0.224-0.005,0.365,0.006c0.434,0.033,1.16,0.087,1.6-0.611
		c0.171-0.272,0.089-0.633-0.184-0.804s-0.632-0.088-0.803,0.184c-0.052,0.079-0.127,0.099-0.526,0.069
		c-0.151-0.012-0.318-0.024-0.487-0.012c0.039-0.126,0.038-0.26-0.008-0.381c0.187-0.741-0.209-1.301-0.51-1.728
		c-0.11-0.158-0.216-0.309-0.295-0.461c-0.034-0.067-0.076-0.144-0.123-0.227c-0.451-0.823-0.459-1.061-0.416-1.143
		c0.025,0.01,0.067,0.029,0.123,0.065c0.195,0.122,0.383,0.332,0.581,0.554c0.312,0.347,0.663,0.742,1.185,0.967
		c0.285,0.123,0.643,0.276,0.972,0.061c0.298-0.196,0.299-0.523,0.299-0.647c0.001-0.104,0.003-0.136,0.045-0.191
		c0.032-0.041,0.057-0.067,0.073-0.081c0.203,0.104,0.564,0.656,0.724,0.9c0.158,0.241,0.294,0.451,0.435,0.594
		c0.194,0.199,0.502,0.233,0.734,0.082c0.227-0.147,0.363-0.356,0.45-0.562c0.071,0.047,0.145,0.125,0.253,0.246
		c0.217,0.241,0.513,0.572,1.027,0.603c0.27,0.016,0.504-0.073,0.693-0.145c0.11-0.042,0.246-0.091,0.308-0.085
		c0.052,0.006,0.135,0.037,0.224,0.073c-0.004,0.337,0.201,0.559,0.323,0.695c0.008,0.008,0.017,0.018,0.025,0.027
		c-0.167,0.105-0.54,0.211-0.677,0.25l-0.101,0.029c-0.291,0.084-0.463,0.373-0.41,0.664c-0.568,0.047-1.161,0.192-1.808,0.45
		c-0.301,0.118-0.447,0.457-0.328,0.756c0.118,0.3,0.457,0.446,0.756,0.328c0.562-0.223,1.062-0.346,1.533-0.377
		c0.252-0.019,0.449,0.028,0.677,0.083c0.269,0.064,0.573,0.135,0.966,0.105c0.259-0.021,0.53-0.155,0.951-0.37
		c0.141-0.073,0.35-0.181,0.53-0.26c-0.013,0.175,0.055,0.35,0.187,0.471c0.122,0.115,0.288,0.168,0.453,0.152
		c0.002,0.002,0.002,0.006,0.003,0.01c0.047,0.166,0.105,0.374,0.247,0.562c0.395,0.53,0.652,0.601,1.233,0.542
		c0.066-0.007,0.142-0.014,0.231-0.021c0.08-0.006,0.154-0.006,0.227-0.006c0.052,0.001,0.105,0.001,0.16,0
		c0.047,0.082,0.101,0.159,0.167,0.233c0.515,0.573,1.603,0.774,2.156,0.692c0.351-0.052,0.64-0.227,0.872-0.367
		c0.146-0.089,0.347-0.208,0.405-0.188c0.046,0.027,0.138,0.18,0.194,0.271c0.078,0.131,0.165,0.274,0.284,0.406
		c-0.521,0.132-1.16,0.103-1.785,0.074c-0.342-0.016-0.665-0.031-0.974-0.021l-0.463,0.02c-0.717,0.029-1.395,0.059-2.118-0.059
		c-0.179-0.028-0.366-0.065-0.557-0.104c-0.094-0.019-0.191-0.036-0.288-0.055c-0.036-0.054-0.082-0.102-0.15-0.143
		c-1.181-0.694-2.965-0.636-4.301-0.809c-1.484-0.19-3.572-0.096-4.914,0.582c-0.006,0.003-0.01,0.009-0.016,0.013
		c-0.053-0.005-0.105-0.012-0.158-0.018c-1.875-0.2-3.644-0.391-5.451-0.823c-0.054-0.013-0.107-0.021-0.162-0.034
		c0.051-0.078,0.116-0.167,0.189-0.259c0.09,0.086,0.205,0.146,0.34,0.162c0.003,0.001,0.004,0.001,0.005,0.001
		c0.264,0.029,0.51-0.133,0.607-0.37C38.43,19.644,38.597,19.715,38.69,19.755 M35.938,18.539l0.039-0.05
		c0.118-0.149,0.21-0.333,0.309-0.527c0.055-0.109,0.139-0.279,0.203-0.369c0.098,0.025,0.236,0.049,0.422,0.033
		c0.226,0.042,0.402,0.001,0.551-0.081c-0.096,0.323-0.237,0.617-0.448,0.875c-0.056,0.068-0.127,0.147-0.201,0.232
		c-0.328,0.369-0.681,0.775-0.823,1.193c-0.058-0.009-0.117-0.021-0.173-0.03c-0.337-0.057-0.674-0.114-1.013-0.184
		c-0.057-0.01-0.122-0.029-0.189-0.05C35.216,19.456,35.643,18.916,35.938,18.539 M31.581,18.343
		c0.232,0.181,0.474,0.368,0.731,0.457c0.146,0.05,0.378,0.171,0.603,0.288c0.186,0.094,0.364,0.185,0.54,0.266
		c-0.3,0.009-0.591,0.102-0.813,0.37c-0.072,0.086-0.112,0.188-0.127,0.292c-0.533-0.044-1.062,0.008-1.583,0.122
		c0.007-0.04,0.013-0.082,0.021-0.128c0.085-0.533,0.203-1.28,0.086-1.908c0.031-0.022,0.065-0.042,0.092-0.072
		C31.255,18.091,31.453,18.246,31.581,18.343 M26.704,17.097c0.074-0.034,0.157-0.076,0.245-0.12
		c0.161-0.081,0.461-0.232,0.567-0.23c0.158,0.018,0.547,0.233,0.974,0.497c-0.239,0.124-0.447,0.289-0.628,0.439
		c-0.172,0.14-0.334,0.274-0.481,0.338c-0.093,0.041-0.204,0.062-0.331,0.088c-0.046,0.009-0.093,0.019-0.141,0.028
		c-0.241-0.118-0.538-0.057-0.711,0.157c-0.558,0.689-1.104,1.397-1.644,2.11c-0.061-0.156-0.173-0.292-0.345-0.353
		c-0.393-0.142-0.816-0.023-1.22-0.156c-0.015-0.004-0.028-0.002-0.042-0.006C23.796,18.796,25.108,17.815,26.704,17.097
		 M17.486,23.205c0.385-0.456,1.372-0.729,2.464-0.729c-0.141,0.266-0.309,0.547-0.489,0.845c-0.422,0.696-0.852,1.411-1.046,2.122
		c-0.004-0.003-0.008-0.007-0.012-0.01c-0.111-0.122-0.212-0.232-0.285-0.301c-0.41-0.386-0.63-0.712-0.755-1.125
		C17.23,23.574,17.37,23.341,17.486,23.205 M17.318,25.98c0.059,0.056,0.138,0.142,0.226,0.239c0.084,0.091,0.163,0.179,0.24,0.259
		c-0.436-0.023-0.89-0.088-1.354-0.156c-0.289-0.044-0.584-0.083-0.877-0.116c0.283-0.465,0.579-0.963,0.842-1.471
		C16.594,25.176,16.887,25.573,17.318,25.98 M9.918,25.542c-0.025-0.383-0.178-0.692-0.312-0.967
		c-0.055-0.109-0.101-0.205-0.135-0.29c0.152-0.068,0.296-0.171,0.404-0.323c0.257-0.362,0.153-0.763,0.086-1.028
		c-0.02-0.073-0.039-0.155-0.049-0.218c0.049-0.023,0.118-0.051,0.17-0.07c0.275-0.107,0.738-0.29,0.91-0.81
		c0.037-0.115,0.045-0.224,0.034-0.325c0.093,0.045,0.183,0.092,0.246,0.125c0.128,0.065,0.245,0.127,0.346,0.167
		c0.444,0.188,0.885,0.288,1.312,0.385c0.349,0.078,0.678,0.153,0.998,0.27c0.326,0.12,0.646,0.268,0.985,0.426
		c0.287,0.133,0.582,0.267,0.883,0.385c-0.016,0.026-0.031,0.054-0.042,0.084c-0.297,0.774-0.793,1.586-1.273,2.372
		c-0.087,0.143-0.173,0.284-0.256,0.423c-1.479,0.028-3.457,0.353-4.621,1.426c-0.119,0.11-0.218,0.234-0.309,0.362
		c-0.097-0.356-0.271-0.681-0.396-0.909c-0.02-0.039-0.043-0.08-0.066-0.123C9.356,26.789,9.979,26.483,9.918,25.542 M66.722,44.494
		c-0.15,0.271-0.316,0.531-0.491,0.787c-0.098,0.021-0.193,0.059-0.272,0.13c-2.424,2.235-6.952,5.204-11.736,6.22
		c-5.434,1.152-14.693,1.395-21.876-0.374c-5.573-1.372-10.976-2.745-12.745-3.497c-0.562-0.238-0.854-0.01-0.976,0.147
		c-0.409,0.521,0.032,1.106,1.339,2.841c0.688,0.91,1.945,2.577,2.04,3.123c-0.145,0.172-0.372,0.287-0.663,0.337
		c-0.74,0.128-1.719-0.179-2.743-0.846c-0.153-0.11-0.312-0.222-0.471-0.331c-1.007-0.971-1.896-1.869-2.557-2.58
		c-1.596-1.717-2.805-3.824-3.971-5.861c-0.503-0.875-1.021-1.781-1.565-2.645c-1.516-2.41-3.232-5.141-3.363-8.147
		c-0.001-0.032,0.001-0.061,0.001-0.091c0.026,0.309,0.072,0.607,0.147,0.872c0.086,0.301,0.256,0.588,0.486,0.844
		c-0.053,0.146-0.048,0.312,0.028,0.462l0.298,0.583c1.864,3.666,3.627,7.13,13.227,10.511c1.238,0.436,2.374,0.828,3.427,1.186
		c0.089,0.078,0.199,0.133,0.319,0.146c0.037,0.004,0.074,0.002,0.113-0.002c5.449,1.828,8.639,2.617,12.478,3.051
		c1.095,0.125,2.245,0.221,3.516,0.302c6.591,0.427,9.494-0.126,9.614-0.149c0.041-0.01,0.08-0.021,0.117-0.039
		c0.252,0.088,0.515,0.156,0.795,0.188c0.126,0.016,0.256,0.023,0.389,0.023c0.916-0.007,1.555-0.379,2.104-0.769
		c1.866-0.36,4.947-1.303,7.706-2.831c3.522-1.953,5.674-4.393,6.221-7.055c0.063-0.314-0.139-0.623-0.454-0.688
		c-0.072-0.014-0.144-0.012-0.209-0.002c0.002-0.039,0.007-0.076,0.008-0.115c0.006-0.168-0.069-0.303-0.176-0.398
		c0.023-0.053,0.047-0.105,0.068-0.155c0.162-0.37,0.316-0.72,0.492-1.054c0.191-0.366,0.448-0.714,0.728-1.072
		c0.215,0.828,0.119,1.99,0.046,2.873l-0.029,0.359C68.035,42.023,67.435,43.197,66.722,44.494"/>
</g>
</svg>
