<?xml version="1.0" encoding="utf-8"?>
<!-- Generator: Adobe Illustrator 16.0.0, SVG Export Plug-In . SVG Version: 6.00 Build 0)  -->
<!DOCTYPE svg PUBLIC "-//W3C//DTD SVG 1.1//EN" "http://www.w3.org/Graphics/SVG/1.1/DTD/svg11.dtd">
<svg version="1.1" id="Layer_1" xmlns="http://www.w3.org/2000/svg" xmlns:xlink="http://www.w3.org/1999/xlink" x="0px" y="0px"
	 width="89.967px" height="91.285px" viewBox="0 0 89.967 91.285" enable-background="new 0 0 89.967 91.285" xml:space="preserve">
<g>
	<g>
		<defs>
			<rect id="SVGID_1_" width="89.967" height="91.285"/>
		</defs>
		<clipPath id="SVGID_2_">
			<use xlink:href="#SVGID_1_"  overflow="visible"/>
		</clipPath>
		<path clip-path="url(#SVGID_2_)" fill="#F9ED20" d="M46.89,91.285c-6.149,0-11.282-2.886-16.63-5.104
			c-5.544-2.3-8.307-6.856-12.485-11.035C13.596,70.968,6.68,69.182,4.381,63.638C2.164,58.289,0,52.181,0,46.03
			c0-6.151,4.874-11.135,7.092-16.483c2.299-5.544,5.001-9.956,9.179-14.134c4.178-4.178,7.857-8.651,13.401-10.95
			c5.348-2.217,11.067-1.36,17.218-1.36c6.148,0,13.473-4.729,18.821-2.511c5.544,2.299,8.519,9.742,12.696,13.92
			c4.177,4.178,8.494,8.448,10.793,13.992c2.217,5.348-1.085,11.376-1.085,17.526c0,6.15,1.771,11.543-0.448,16.892
			c-2.298,5.545-3.756,11.777-7.934,15.955c-4.178,4.179-11.202,3.727-16.746,6.024C57.642,87.119,53.039,91.285,46.89,91.285"/>
	</g>
</g>
</svg>
