<?xml version="1.0" encoding="utf-8"?>
<!-- Generator: Adobe Illustrator 16.0.0, SVG Export Plug-In . SVG Version: 6.00 Build 0)  -->
<!DOCTYPE svg PUBLIC "-//W3C//DTD SVG 1.1//EN" "http://www.w3.org/Graphics/SVG/1.1/DTD/svg11.dtd">
<svg version="1.1" id="Layer_1" xmlns="http://www.w3.org/2000/svg" xmlns:xlink="http://www.w3.org/1999/xlink" x="0px" y="0px"
	 width="47.436px" height="28.789px" viewBox="0 0 47.436 28.789" enable-background="new 0 0 47.436 28.789" xml:space="preserve">
<g>
	<defs>
		<rect id="SVGID_1_" width="47.436" height="28.789"/>
	</defs>
	<clipPath id="SVGID_2_">
		<use xlink:href="#SVGID_1_"  overflow="visible"/>
	</clipPath>
	<path clip-path="url(#SVGID_2_)" fill="#5DBA93" d="M44.775,23.147c1.336-0.809,1.697-2.257,2.047-3.659
		c0.051-0.203,0.117-0.415,0.187-0.636c0.288-0.928,0.646-2.079,0.254-3.475c-0.241-0.859-0.828-1.6-1.447-2.383
		c-0.3-0.378-0.608-0.768-0.879-1.176c-0.675-1.017-1.525-2.05-2.602-3.16c-0.146-0.15-0.292-0.302-0.438-0.454
		c-0.783-0.817-1.593-1.661-2.551-2.359c-1.338-0.975-2.465-1.651-3.546-2.128c-0.284-0.124-0.615,0.004-0.74,0.287
		c-0.125,0.284,0.003,0.615,0.287,0.74c1.005,0.444,2.066,1.082,3.339,2.008c0.878,0.639,1.617,1.411,2.4,2.228
		c0.147,0.154,0.295,0.308,0.443,0.46c1.026,1.059,1.835,2.04,2.472,2.999c0.296,0.446,0.62,0.856,0.933,1.251
		c0.549,0.694,1.067,1.348,1.248,1.991c0.245,0.87,0.108,1.626-0.096,2.341c0.052-0.436,0.036-0.901-0.063-1.394
		c-0.062-0.304-0.357-0.5-0.66-0.438c-0.303,0.06-0.502,0.357-0.439,0.662c0.351,1.738-0.709,3.028-1.885,3.359
		c-0.15,0.042-0.306,0.094-0.466,0.146c-0.742,0.246-1.444,0.477-2.312,0.039c-0.654-0.331-1.314-1.002-2.142-2.177
		c-0.447-0.635-1.069-1.172-1.727-1.74c-0.5-0.434-1.016-0.879-1.479-1.392c-0.226-0.249-0.448-0.504-0.675-0.763
		c-0.72-0.822-1.464-1.673-2.381-2.448c-0.22-0.187-0.438-0.377-0.658-0.567c-0.881-0.763-1.789-1.552-2.854-2.193
		c-1.331-0.802-2.695-1.456-4.053-1.943c-0.394-0.142-0.785-0.308-1.201-0.483c-0.99-0.418-2.014-0.851-3.14-0.979
		c-1.042-0.118-2.113,0.083-3.15,0.279c-0.461,0.087-0.939,0.177-1.406,0.237c-1.517,0.195-2.947,0.583-4.369,1.189
		C9.422,8.103,8.131,8.744,7.051,9.653c-1.103,0.926-2.13,2.068-3.057,3.393c-1.089,1.56-1.817,2.809-2.292,3.932
		c-0.885,2.088-1.279,3.723-1.408,4.329c-0.357,1.685-0.241,3.53,0.304,4.816c0.393,0.928,1.48,2.444,4.343,2.17
		c1.148-0.114,1.646-0.262,2.128-0.403c0.499-0.148,1.017-0.301,2.402-0.446c0.618-0.064,1.288-0.119,1.997-0.177
		c0.825-0.069,1.677-0.14,2.578-0.234c0.665-0.069,1.373-0.034,2.123,0.003c0.808,0.04,1.645,0.082,2.493-0.008
		c0.775-0.081,1.556-0.216,2.311-0.347c0.736-0.129,1.497-0.261,2.236-0.34c0.813-0.086,1.621-0.189,2.401-0.29
		c0.75-0.097,1.458-0.188,2.159-0.263c0.817-0.088,1.608-0.167,2.362-0.242c0.779-0.078,1.519-0.151,2.208-0.228
		c1.214-0.132,2.27-0.199,3.117-0.252c0.62-0.039,1.108-0.069,1.47-0.114c0.689-0.085,1.375-0.311,2.101-0.551
		c0.558-0.185,1.134-0.375,1.706-0.493c0.438-0.091,0.923-0.124,1.392-0.157c0.605-0.042,1.226-0.085,1.805-0.247
		C44.225,23.422,44.509,23.309,44.775,23.147 M38.676,23.337c-0.672,0.222-1.307,0.433-1.886,0.503
		c-0.328,0.04-0.802,0.07-1.403,0.107c-0.859,0.054-1.928,0.121-3.169,0.256c-0.686,0.075-1.422,0.149-2.198,0.227
		c-0.756,0.076-1.55,0.155-2.37,0.243c-0.713,0.076-1.427,0.168-2.182,0.267c-0.775,0.099-1.576,0.203-2.377,0.288
		c-0.776,0.082-1.555,0.217-2.31,0.348c-0.737,0.127-1.499,0.26-2.236,0.338c-0.762,0.08-1.555,0.04-2.321,0.003
		c-0.759-0.038-1.544-0.077-2.296,0.001c-0.888,0.094-1.733,0.163-2.551,0.231c-0.716,0.059-1.392,0.114-2.022,0.18
		c-1.488,0.156-2.082,0.331-2.605,0.486c-0.471,0.139-0.878,0.259-1.918,0.363c-1.638,0.156-2.716-0.345-3.201-1.49
		c-0.459-1.086-0.551-2.676-0.239-4.148c0.095-0.447,0.473-2.068,1.343-4.125c0.444-1.049,1.136-2.231,2.18-3.725
		c0.869-1.245,1.831-2.314,2.858-3.177c0.973-0.82,2.181-1.416,3.695-2.062c1.326-0.564,2.658-0.927,4.072-1.108
		c0.499-0.065,0.993-0.157,1.471-0.248c0.999-0.188,1.942-0.365,2.816-0.266c0.964,0.11,1.912,0.51,2.829,0.898
		c0.412,0.173,0.837,0.353,1.259,0.505c1.288,0.462,2.585,1.084,3.853,1.848c0.981,0.591,1.854,1.348,2.697,2.079
		c0.223,0.194,0.445,0.387,0.669,0.575c0.853,0.723,1.569,1.541,2.261,2.333c0.231,0.263,0.458,0.522,0.688,0.775
		c0.509,0.562,1.052,1.032,1.576,1.486c0.604,0.523,1.176,1.017,1.544,1.54c0.938,1.331,1.726,2.112,2.552,2.53
		c1.283,0.648,2.373,0.289,3.17,0.026c0.144-0.048,0.283-0.094,0.418-0.132c0.963-0.27,1.875-0.988,2.375-2.012
		c-0.302,1.211-0.599,2.347-1.522,2.905c-0.557,0.337-1.33,0.39-2.148,0.446c-0.506,0.035-1.03,0.071-1.54,0.179
		c-0.242,0.049-0.479,0.108-0.711,0.174C39.413,23.093,39.041,23.216,38.676,23.337"/>
	<path clip-path="url(#SVGID_2_)" fill="#5DBA93" d="M34.46,21.862c0.084,0.283-0.076,0.581-0.359,0.666
		c-0.284,0.084-0.582-0.077-0.666-0.359c-0.085-0.284,0.076-0.582,0.359-0.666C34.078,21.418,34.376,21.578,34.46,21.862"/>
	<path clip-path="url(#SVGID_2_)" fill="#5DBA93" d="M41.666,14.953c0.084,0.283-0.077,0.582-0.36,0.666s-0.582-0.077-0.666-0.359
		c-0.085-0.284,0.076-0.583,0.36-0.667S41.582,14.67,41.666,14.953"/>
	<path clip-path="url(#SVGID_2_)" fill="#5DBA93" d="M22.678,6.25c0.08,0.285-0.085,0.581-0.371,0.661
		c-0.284,0.08-0.58-0.086-0.66-0.371c-0.08-0.284,0.086-0.58,0.371-0.66C22.303,5.8,22.598,5.966,22.678,6.25"/>
	<path clip-path="url(#SVGID_2_)" fill="#5DBA93" d="M27.245,4.532c0.08,0.284-0.086,0.58-0.371,0.66
		c-0.284,0.08-0.58-0.086-0.66-0.37c-0.08-0.285,0.086-0.581,0.37-0.661C26.87,4.081,27.165,4.247,27.245,4.532"/>
	<path clip-path="url(#SVGID_2_)" fill="#5DBA93" d="M31.653,7.978c0.084,0.283-0.077,0.581-0.36,0.666
		c-0.283,0.084-0.582-0.077-0.666-0.36C30.542,8,30.704,7.702,30.987,7.618C31.271,7.533,31.569,7.694,31.653,7.978"/>
	<path clip-path="url(#SVGID_2_)" fill="#5DBA93" d="M6.746,11.456c-0.288,0.08-0.591-0.079-0.685-0.366
		c-0.274-0.84-0.569-2.069,0.025-3.028c0.385-0.62,1.064-1.003,2.017-1.144C8.3,6.89,8.642,6.644,8.943,6.428
		c0.636-0.454,1.428-1.019,2.337-0.821c0.637,0.138,1.184,0.618,1.674,1.466c0.155,0.268,0.063,0.611-0.206,0.767
		c-0.268,0.154-0.611,0.062-0.766-0.206c-0.318-0.551-0.634-0.865-0.941-0.931c-0.423-0.092-0.943,0.279-1.446,0.638
		c-0.446,0.318-0.867,0.618-1.33,0.686c-0.611,0.09-1.024,0.3-1.226,0.625C6.65,9.28,7.01,10.379,7.127,10.74
		c0.096,0.295-0.065,0.611-0.36,0.708C6.761,11.45,6.752,11.452,6.746,11.456"/>
	<path clip-path="url(#SVGID_2_)" fill="#5DBA93" d="M4.916,13.565c-0.261,0.073-0.542-0.052-0.66-0.304
		c-0.57-1.227-0.551-2.534,0.051-3.495C4.755,9.051,5.482,8.633,6.3,8.621c0.31-0.005,0.566,0.242,0.571,0.551
		c0.004,0.31-0.241,0.565-0.553,0.57c-0.437,0.008-0.814,0.227-1.06,0.621c-0.394,0.629-0.388,1.557,0.015,2.426
		c0.131,0.281,0.009,0.614-0.272,0.745C4.973,13.546,4.945,13.557,4.916,13.565"/>
	<path clip-path="url(#SVGID_2_)" fill="#5DBA93" d="M13.096,7.749c-0.077,0.021-0.159,0.027-0.243,0.014
		c-0.305-0.051-0.513-0.339-0.463-0.645c0.166-1.013,0.448-2.124,1.286-2.693c0.465-0.315,1.021-0.405,1.655-0.265l0.14,0.031
		c1.709,0.377,2.332,0.457,2.965-0.52c0.168-0.261,0.515-0.335,0.775-0.167c0.26,0.169,0.335,0.516,0.167,0.776
		c-1.088,1.682-2.506,1.369-4.148,1.007l-0.14-0.031c-0.325-0.071-0.581-0.039-0.784,0.097c-0.551,0.375-0.738,1.516-0.808,1.946
		C13.462,7.521,13.299,7.69,13.096,7.749"/>
	<path clip-path="url(#SVGID_2_)" fill="#5DBA93" d="M26.227,5.525c-0.298,0.084-0.608-0.091-0.692-0.389
		c-0.171-0.608-0.554-0.668-1.778-0.557c-0.429,0.039-0.872,0.079-1.293,0.033c-0.846-0.094-1.294-0.728-1.688-1.287
		c-0.44-0.623-0.74-1.008-1.357-1.049c-1.282-0.087-2.324,1.493-2.973,2.833c-0.135,0.279-0.47,0.396-0.749,0.261
		c-0.28-0.135-0.396-0.471-0.261-0.749c1.163-2.403,2.528-3.568,4.059-3.464c1.18,0.079,1.745,0.879,2.198,1.521
		c0.341,0.484,0.567,0.783,0.894,0.818c0.31,0.034,0.679,0.001,1.069-0.034c1.06-0.096,2.51-0.228,2.96,1.371
		C26.698,5.131,26.524,5.44,26.227,5.525"/>
	<path clip-path="url(#SVGID_2_)" fill="#5DBA93" d="M10.309,6.863c-0.063,0.019-0.131,0.025-0.201,0.019
		C9.8,6.854,9.571,6.583,9.599,6.273c0.156-1.797,1.412-2.366,2.329-2.781c0.472-0.214,0.917-0.415,1.146-0.727
		c1.052-1.432,2.425-0.978,4.014-0.452l0.24,0.079c0.294,0.097,0.454,0.414,0.358,0.709c-0.097,0.294-0.414,0.454-0.709,0.358
		l-0.242-0.08c-1.625-0.538-2.215-0.688-2.757,0.051c-0.403,0.547-1.005,0.821-1.587,1.084c-0.977,0.443-1.58,0.769-1.675,1.857
		C10.695,6.61,10.527,6.801,10.309,6.863"/>
	<path clip-path="url(#SVGID_2_)" fill="#5DBA93" d="M33.009,10.88c-0.247,0.069-0.49,0.08-0.732,0.032
		c-1.008-0.201-1.619-1.346-2.209-2.455c-0.126-0.235-0.25-0.47-0.377-0.689c-0.722-1.254-1.723-1.719-2.722-1.997
		c-0.565,0.305-1.059,0.478-1.465,0.619c-0.806,0.281-1.174,0.409-1.48,1.251c-0.106,0.29-0.43,0.44-0.721,0.334
		c-0.291-0.107-0.439-0.429-0.333-0.72c0.49-1.341,1.304-1.624,2.166-1.925c0.431-0.149,0.917-0.319,1.478-0.644
		c0.127-0.075,0.278-0.096,0.42-0.06c1.172,0.3,2.644,0.863,3.631,2.582c0.132,0.231,0.263,0.476,0.395,0.722
		c0.424,0.795,0.95,1.784,1.438,1.882c0.175,0.035,0.396-0.056,0.655-0.27c0.239-0.196,0.593-0.163,0.79,0.077
		c0.196,0.24,0.162,0.593-0.077,0.789C33.578,10.643,33.293,10.801,33.009,10.88"/>
	<path clip-path="url(#SVGID_2_)" fill="#5DBA93" d="M26.969,9.379C26.967,9.38,26.964,9.38,26.962,9.38
		c-0.299,0.081-0.604-0.087-0.684-0.386c-0.246-0.92,0.561-1.39,1.151-1.734c0.466-0.271,0.947-0.552,1.19-1.005
		c0.146-0.274,0.486-0.377,0.759-0.231c0.274,0.145,0.377,0.486,0.231,0.759c-0.394,0.736-1.071,1.129-1.616,1.447
		c-0.224,0.13-0.597,0.347-0.638,0.454C27.437,8.981,27.265,9.296,26.969,9.379"/>
	<path clip-path="url(#SVGID_2_)" fill="#5DBA93" d="M35.854,9.66c-0.235,0.07-0.498-0.021-0.635-0.239
		c-0.405-0.643-0.942-0.97-1.597-0.973c-0.861-0.004-1.685,0.551-2.021,1.074c-0.168,0.261-0.515,0.336-0.776,0.169
		c-0.261-0.168-0.336-0.514-0.169-0.775c0.605-0.942,1.826-1.596,2.972-1.591c1.032,0.005,1.935,0.537,2.54,1.498
		c0.166,0.262,0.087,0.608-0.176,0.774C35.948,9.625,35.901,9.645,35.854,9.66"/>
	<path clip-path="url(#SVGID_2_)" fill="#5DBA93" d="M33.847,8.578c-0.193,0.054-0.41,0.003-0.559-0.152
		c-0.545-0.571-1.139-1.577-1.02-2.536c0.04-0.324,0.155-0.617,0.343-0.873c-0.504-0.229-1.086-0.266-1.48-0.059
		c-0.693,0.364-2.463,1.022-3.597,0.969C27.225,5.913,26.986,5.649,27,5.34c0.016-0.31,0.277-0.549,0.587-0.534
		c0.794,0.038,2.321-0.474,3.023-0.842c0.957-0.502,2.365-0.262,3.278,0.559c0.13,0.117,0.197,0.289,0.183,0.464
		c-0.015,0.176-0.111,0.334-0.26,0.428c-0.262,0.165-0.398,0.359-0.43,0.612C33.316,6.557,33.708,7.24,34.1,7.65
		c0.214,0.224,0.206,0.579-0.019,0.793C34.014,8.51,33.932,8.554,33.847,8.578"/>
	<path clip-path="url(#SVGID_2_)" fill="#5DBA93" d="M31.62,4.822c-0.031,0.009-0.062,0.015-0.096,0.018
		c-0.309,0.031-0.583-0.194-0.614-0.501c-0.109-1.068-0.49-1.849-1.045-2.145c-0.315-0.167-0.663-0.158-1.006,0.025
		c-1.021,0.548-2.918,1.567-4.072,0.389c-0.218-0.221-0.214-0.576,0.007-0.794c0.222-0.217,0.576-0.213,0.794,0.008
		c0.497,0.509,1.664-0.014,2.74-0.591c0.669-0.359,1.421-0.369,2.062-0.028c0.905,0.481,1.485,1.555,1.636,3.022
		C32.054,4.5,31.877,4.75,31.62,4.822"/>
	<path clip-path="url(#SVGID_2_)" fill="#5DBA93" d="M27.778,2.746c-0.252,0.07-0.526-0.044-0.65-0.286
		c-0.38-0.743-0.802-1.182-1.257-1.302c-0.372-0.098-0.806,0.014-1.286,0.331c-0.909,0.601-1.752,0.468-2.429,0.361
		c-0.716-0.112-1.234-0.194-1.906,0.375c-0.236,0.2-0.591,0.169-0.791-0.067c-0.2-0.236-0.17-0.591,0.067-0.791
		c1.064-0.898,2.029-0.747,2.805-0.625c0.609,0.096,1.089,0.171,1.635-0.188c0.76-0.502,1.498-0.663,2.191-0.481
		c0.776,0.205,1.439,0.837,1.971,1.878c0.14,0.275,0.03,0.613-0.246,0.754C27.849,2.722,27.813,2.735,27.778,2.746"/>
	<path clip-path="url(#SVGID_2_)" fill="#5DBA93" d="M36.586,8.28c-0.105,0.031-0.223,0.032-0.336-0.006
		c-1.726-0.571-1.507-2.451-1.332-3.963c0.047-0.396-0.311-0.729-0.618-0.939c-0.94-0.641-2.532-0.868-3.279-0.471
		c-0.274,0.145-0.614,0.043-0.76-0.231c-0.146-0.273-0.042-0.614,0.23-0.759c1.227-0.654,3.286-0.253,4.44,0.534
		c0.797,0.542,1.188,1.251,1.102,1.996c-0.203,1.752-0.169,2.524,0.57,2.768c0.294,0.097,0.453,0.415,0.355,0.709
		C36.899,8.099,36.756,8.229,36.586,8.28"/>
	<path clip-path="url(#SVGID_2_)" fill="#5DBA93" d="M38.403,11.1c-0.202,0.061-0.43,0.004-0.58-0.165
		c-0.545-0.614-0.428-1.334-0.315-2.031c0.062-0.371,0.123-0.754,0.119-1.195c-0.002-0.25-0.009-1.013-2.295-1.152
		c-0.31-0.019-0.546-0.284-0.526-0.594c0.019-0.309,0.284-0.545,0.594-0.526c2.212,0.134,3.338,0.895,3.35,2.264
		c0.005,0.534-0.067,0.985-0.133,1.382c-0.104,0.647-0.129,0.911,0.046,1.107c0.206,0.232,0.186,0.586-0.047,0.792
		C38.553,11.038,38.479,11.078,38.403,11.1"/>
	<path clip-path="url(#SVGID_2_)" fill="#5DBA93" d="M34.928,15.519c-0.257,0.076-0.539-0.041-0.661-0.289
		c-0.655-1.323-0.652-2.576,0.009-3.437c0.477-0.62,1.229-0.914,1.965-0.766c0.911,0.183,0.971,0.138,1.978-0.617l0.049-0.037
		c0.247-0.185,0.6-0.136,0.785,0.112c0.187,0.248,0.137,0.599-0.111,0.786l-0.048,0.035c-1.069,0.803-1.47,1.104-2.873,0.821
		c-0.313-0.063-0.641,0.072-0.854,0.35c-0.384,0.501-0.344,1.344,0.106,2.256c0.138,0.277,0.023,0.613-0.254,0.75
		C34.988,15.498,34.958,15.51,34.928,15.519"/>
	<path clip-path="url(#SVGID_2_)" fill="#5DBA93" d="M41.794,16.462c-0.214,0.063-0.453-0.005-0.601-0.188
		c-0.192-0.244-0.151-0.598,0.092-0.79c0.759-0.6,1.222-1.259,1.208-1.724c-0.005-0.144-0.05-0.36-0.389-0.599
		c-1.176-0.823-1.967-0.107-2.334,0.394c-0.832,1.131-1.963,1.477-3.46,1.057c-0.299-0.083-0.474-0.392-0.389-0.691
		c0.084-0.298,0.394-0.473,0.691-0.389c1.049,0.294,1.701,0.108,2.252-0.642c0.992-1.351,2.517-1.606,3.882-0.648
		c0.695,0.487,0.855,1.076,0.867,1.485c0.025,0.849-0.555,1.786-1.633,2.638C41.925,16.409,41.86,16.442,41.794,16.462"/>
	<path clip-path="url(#SVGID_2_)" fill="#5DBA93" d="M37.177,17.62c-0.148,0.044-0.3,0.076-0.453,0.097
		c-0.307,0.038-0.588-0.18-0.627-0.487c-0.039-0.306,0.178-0.588,0.486-0.627c0.677-0.086,1.344-0.6,1.582-1.22
		c0.148-0.389,0.098-0.731-0.15-1.02c-0.202-0.234-0.176-0.589,0.059-0.791c0.235-0.202,0.59-0.177,0.791,0.059
		c0.518,0.598,0.645,1.383,0.349,2.153C38.883,16.644,38.082,17.351,37.177,17.62"/>
	<path clip-path="url(#SVGID_2_)" fill="#5DBA93" d="M41.491,12.694c-0.071,0.021-0.147,0.028-0.226,0.02
		c-0.308-0.038-0.527-0.316-0.491-0.624c0.149-1.27-0.386-1.894-0.861-2.194c-0.615-0.388-1.329-0.366-1.587-0.202
		c-0.263,0.165-0.608,0.087-0.774-0.175c-0.165-0.262-0.087-0.608,0.176-0.773c0.7-0.445,1.897-0.358,2.784,0.201
		c0.613,0.386,1.607,1.325,1.377,3.275C41.861,12.451,41.699,12.632,41.491,12.694"/>
	<path clip-path="url(#SVGID_2_)" fill="#5DBA93" d="M43.782,18.962c-0.262,0.078-0.542,0.072-0.809-0.021
		c-0.402-0.141-0.957-0.542-1.317-1.662c-0.106-0.332-0.433-1.342-2.936-1.07c-0.308,0.034-0.585-0.188-0.619-0.496
		c-0.033-0.309,0.19-0.585,0.497-0.619c2.821-0.308,3.801,0.832,4.126,1.843c0.195,0.605,0.448,0.886,0.62,0.945
		c0.039,0.016,0.101,0.026,0.174-0.022c0.258-0.171,0.607-0.101,0.778,0.158c0.172,0.258,0.101,0.605-0.157,0.776
		C44.027,18.869,43.907,18.925,43.782,18.962"/>
	<path clip-path="url(#SVGID_2_)" fill="#5DBA93" d="M44.071,21.121c-0.122,0.036-0.256,0.031-0.381-0.021
		c-0.285-0.124-0.416-0.453-0.294-0.738c0.872-2.029-0.266-4.392-1.094-5.038c-0.245-0.189-0.289-0.542-0.099-0.787
		c0.19-0.244,0.543-0.288,0.787-0.098c1.122,0.873,2.562,3.747,1.436,6.367C44.358,20.965,44.226,21.075,44.071,21.121"/>
	<path clip-path="url(#SVGID_2_)" fill="#5DBA93" d="M0.565,23.415c0.124,2.829,3.041,2.626,6.467,2.29
		c3.427-0.336,7.248-1.016,10.479-1.768c3.919-0.912,7.1-1.071,10.955-1.558c3.374-0.425,6.756-0.516,7.993-0.659
		c2.037-0.24,1.474-2.248,0.803-3.45c1.976,2.172,2.319,3.697,4.607,3.29c2.288-0.408,2.788-1.05,3.244-1.742
		c-1.034,2.422-1.95,3.268-3.591,3.745c-1.641,0.479-4.815,1.395-7.549,1.086c-2.735-0.307-7.145,0.014-10.205,0.906
		c-3.061,0.891-8.059,1.545-9.703,1.467c-1.645-0.078-9.445,1.866-10.97,0.969C1.571,27.095,0.484,25.659,0.565,23.415"/>
	<path clip-path="url(#SVGID_2_)" fill="#5DBA93" d="M41.68,24.103c1.89-0.55,2.887-1.574,3.95-4.062
		c0.114-0.268,0.006-0.577-0.25-0.714c-0.256-0.139-0.574-0.059-0.734,0.184c-0.363,0.549-0.739,1.118-2.875,1.497
		c-1.393,0.248-1.82-0.298-2.854-1.617c-0.348-0.443-0.742-0.948-1.241-1.497c-0.192-0.211-0.511-0.244-0.743-0.077
		c-0.23,0.166-0.301,0.479-0.162,0.729c0.49,0.877,0.672,1.755,0.452,2.186c-0.046,0.09-0.183,0.356-0.829,0.433
		c-0.43,0.05-1.139,0.095-2.037,0.15c-1.597,0.1-3.783,0.236-5.961,0.512c-1.054,0.132-2.063,0.241-3.041,0.347
		c-2.62,0.283-5.095,0.551-7.971,1.22c-3.473,0.81-7.266,1.448-10.406,1.756c-2.039,0.2-4.349,0.428-5.306-0.403
		c-0.341-0.295-0.519-0.738-0.546-1.353c-0.014-0.301-0.262-0.538-0.563-0.537c-0.301,0.002-0.548,0.24-0.558,0.541
		c-0.079,2.197,0.892,3.953,2.806,5.08c1.074,0.632,3.914,0.221,7.807-0.433c1.489-0.249,2.895-0.483,3.421-0.459
		c1.792,0.085,6.909-0.628,9.886-1.49c2.833-0.827,7.13-1.207,9.985-0.885c2.49,0.281,5.317-0.411,7.06-0.901
		C41.232,24.232,41.471,24.163,41.68,24.103 M23.611,25.016c-3.043,0.884-8.007,1.519-9.521,1.446
		c-0.645-0.03-1.975,0.193-3.658,0.474c-2.337,0.393-6.247,1.046-7.052,0.572c-0.652-0.384-1.164-0.846-1.534-1.385
		c1.252,0.475,3.021,0.357,5.241,0.141c3.186-0.312,7.031-0.961,10.55-1.78c2.811-0.654,5.252-0.917,7.837-1.196
		c0.982-0.106,1.998-0.215,3.062-0.35c2.143-0.271,4.309-0.405,5.891-0.505c0.915-0.057,1.637-0.102,2.098-0.155
		c1.027-0.12,1.49-0.631,1.697-1.036c0.109-0.213,0.172-0.439,0.2-0.669c0.888,1.092,1.747,1.859,3.546,1.541
		c0.557-0.101,1.021-0.216,1.41-0.343c-0.585,0.71-1.205,1.02-2.012,1.255c-1.521,0.443-4.688,1.364-7.33,1.066
		c-2.934-0.33-7.315,0.049-10.275,0.881C23.712,24.988,23.661,25.001,23.611,25.016"/>
	<path clip-path="url(#SVGID_2_)" fill="#5DBA93" d="M8.89,20.551c-0.305,0.086-0.649,0.106-1.038,0.038
		c-0.38-0.065-0.635-0.43-0.568-0.809c0.066-0.381,0.429-0.636,0.81-0.57c0.75,0.132,1.143-0.488,1.743-1.927
		c0.316-0.758,0.59-1.414,1.139-1.665c0.35-0.162,0.766-0.006,0.927,0.345c0.155,0.34,0.016,0.738-0.31,0.91
		c-0.121,0.126-0.327,0.619-0.464,0.949C10.739,18.758,10.138,20.2,8.89,20.551"/>
	<path clip-path="url(#SVGID_2_)" fill="#5DBA93" d="M28.442,18.662c-0.319,0.09-0.667-0.059-0.817-0.367
		c-0.241-0.493-1.205-0.59-2.137-0.683c-1.28-0.128-2.874-0.286-3.224-1.761c-0.09-0.376,0.137-0.751,0.518-0.842
		c0.376-0.091,0.754,0.142,0.843,0.518c0.111,0.47,0.865,0.579,2.002,0.692c1.253,0.125,2.672,0.266,3.256,1.462
		c0.17,0.347,0.025,0.766-0.322,0.936C28.522,18.637,28.482,18.65,28.442,18.662"/>
	<path clip-path="url(#SVGID_2_)" fill="#5DBA93" d="M18.154,13.444c-0.156,0.044-0.329,0.034-0.486-0.04
		c-0.35-0.164-0.5-0.581-0.336-0.932c0.5-1.063,1.017-1.822,1.626-2.387c0.282-0.262,0.725-0.246,0.988,0.037
		s0.247,0.726-0.036,0.989c-0.467,0.434-0.896,1.073-1.312,1.957C18.508,13.26,18.343,13.392,18.154,13.444"/>
</g>
</svg>
