<?xml version="1.0" encoding="utf-8"?>
<!-- Generator: Adobe Illustrator 16.0.0, SVG Export Plug-In . SVG Version: 6.00 Build 0)  -->
<!DOCTYPE svg PUBLIC "-//W3C//DTD SVG 1.1//EN" "http://www.w3.org/Graphics/SVG/1.1/DTD/svg11.dtd">
<svg version="1.1" id="Layer_1" xmlns="http://www.w3.org/2000/svg" xmlns:xlink="http://www.w3.org/1999/xlink" x="0px" y="0px"
	 width="28.801px" height="30.268px" viewBox="0 0 28.801 30.268" enable-background="new 0 0 28.801 30.268" xml:space="preserve">
<g>
	<g>
		<defs>
			<polyline id="SVGID_1_" points="28.801,30.267 0,30.267 0,0 28.801,0 			"/>
		</defs>
		<clipPath id="SVGID_2_">
			<use xlink:href="#SVGID_1_"  overflow="visible"/>
		</clipPath>
		<path clip-path="url(#SVGID_2_)" fill="#FCEA00" d="M9.208,17.364c-0.162,0.174-0.424,0.23-0.65,0.124
			c-2.267-1.067-4.436-2.368-6.448-3.863c-0.201-0.148-0.279-0.414-0.19-0.648c0.088-0.234,0.322-0.383,0.571-0.36
			c1.479,0.124,2.935,0.405,4.349,0.837c-1.308-1.715-2.647-3.425-3.993-5.1C2.033,7.342,1.341,6.516,0.476,5.872
			c-0.211-0.158-0.285-0.44-0.177-0.68c0.108-0.24,0.368-0.373,0.626-0.32c2.301,0.476,4.267,1.88,6.002,3.119l3.578,2.556
			C9.944,9.134,9.567,7.641,9.397,6.143c-0.023-0.209,0.072-0.414,0.247-0.53c0.174-0.116,0.399-0.126,0.583-0.023
			c0.613,0.34,1.048,0.847,1.47,1.337c0.08,0.094,0.16,0.187,0.241,0.278c0.534,0.602,1.14,1.154,1.762,1.683
			c0.004-2.825-0.656-2.521-0.133-5.295c0.057-0.304,0.43-0.523,0.734-0.466c0.305,0.058,0.449,0.578,0.391,0.882
			c-0.327,2.916,0.062,2.921,0.142,6.071c0.006,0.22-0.116,0.422-0.313,0.519c-0.197,0.097-0.434,0.069-0.603-0.07
			c-0.966-0.792-1.964-1.611-2.821-2.579c-0.085-0.096-0.169-0.193-0.254-0.292c-0.026-0.03-0.052-0.061-0.078-0.091
			c0.333,1.544,0.896,3.048,1.659,4.419c0.128,0.229,0.079,0.517-0.116,0.691c-0.196,0.175-0.487,0.19-0.7,0.038L6.275,8.903
			C5.28,8.192,4.205,7.425,3.053,6.834C3.292,7.117,3.514,7.394,3.721,7.65c1.745,2.17,3.476,4.398,5.146,6.623
			c0.151,0.201,0.15,0.479-0.004,0.68C8.71,15.151,8.44,15.225,8.206,15.13c-1.132-0.463-2.3-0.816-3.492-1.062
			c1.386,0.897,2.832,1.703,4.322,2.405c0.28,0.132,0.401,0.467,0.269,0.746C9.279,17.274,9.246,17.322,9.208,17.364"/>
	</g>
	<g>
		<defs>
			<polyline id="SVGID_3_" points="28.801,30.267 0,30.267 0,0 28.801,0 			"/>
		</defs>
		<clipPath id="SVGID_4_">
			<use xlink:href="#SVGID_3_"  overflow="visible"/>
		</clipPath>
		<path clip-path="url(#SVGID_4_)" fill="#FCEA00" d="M10.596,26.662c-0.08,0.086-0.187,0.147-0.31,0.17
			c-0.271,0.049-0.537-0.104-0.629-0.363c-0.299-0.842-0.514-1.704-0.642-2.583c-0.29,0.324-0.606,0.628-0.916,0.925
			c-0.132,0.126-0.263,0.251-0.392,0.378c-0.824,0.812-1.579,1.739-2.309,2.634c-0.619,0.758-1.257,1.537-1.948,2.27
			c-0.179,0.189-0.466,0.23-0.692,0.099c-0.225-0.131-0.329-0.402-0.25-0.651c0.996-3.174,2.142-6.345,3.405-9.423
			c0.118-0.287,0.446-0.424,0.732-0.306c0.287,0.117,0.424,0.444,0.306,0.73c-0.897,2.187-1.733,4.418-2.499,6.665
			c0.025-0.031,0.051-0.062,0.076-0.093c0.749-0.918,1.524-1.867,2.391-2.723c0.133-0.132,0.268-0.263,0.404-0.393
			c0.66-0.631,1.283-1.228,1.599-1.979c0.102-0.244,0.362-0.384,0.622-0.334c0.26,0.049,0.45,0.272,0.456,0.539
			c0.018,0.773,0.108,1.543,0.269,2.297c0.576-0.996,1.193-1.979,1.839-2.928c0.174-0.256,0.524-0.322,0.78-0.147
			c0.256,0.174,0.322,0.523,0.147,0.779c-0.683,1.003-1.334,2.046-1.934,3.102c-0.19,0.333-0.36,0.656-0.355,0.942
			C10.749,26.42,10.692,26.559,10.596,26.662"/>
	</g>
	<g>
		<defs>
			<polyline id="SVGID_5_" points="28.801,30.267 0,30.267 0,0 28.801,0 			"/>
		</defs>
		<clipPath id="SVGID_6_">
			<use xlink:href="#SVGID_5_"  overflow="visible"/>
		</clipPath>
		<path clip-path="url(#SVGID_6_)" fill="#FCEA00" d="M17.495,22.821l1.557,3.827c0.086,0.3-0.088,0.607-0.385,0.692
			c-0.299,0.085-0.608-0.088-0.693-0.386l-1.684-4.271c-0.097-0.337-0.274-0.967,0.039-1.515c0.09-0.154,0.245-0.259,0.424-0.278
			c0.176-0.021,0.353,1.045,0.475,1.177"/>
	</g>
	<g>
		<defs>
			<polyline id="SVGID_7_" points="28.801,30.267 0,30.267 0,0 28.801,0 			"/>
		</defs>
		<clipPath id="SVGID_8_">
			<use xlink:href="#SVGID_7_"  overflow="visible"/>
		</clipPath>
	</g>
</g>
</svg>
