<?xml version="1.0" encoding="utf-8"?>
<!-- Generator: Adobe Illustrator 16.0.0, SVG Export Plug-In . SVG Version: 6.00 Build 0)  -->
<!DOCTYPE svg PUBLIC "-//W3C//DTD SVG 1.1//EN" "http://www.w3.org/Graphics/SVG/1.1/DTD/svg11.dtd">
<svg version="1.1" id="Layer_1" xmlns="http://www.w3.org/2000/svg" xmlns:xlink="http://www.w3.org/1999/xlink" x="0px" y="0px"
	 width="68.483px" height="36.358px" viewBox="0 0 68.483 36.358" enable-background="new 0 0 68.483 36.358" xml:space="preserve">
<g>
	<defs>
		<rect id="SVGID_1_" y="0" width="68.483" height="36.358"/>
	</defs>
	<clipPath id="SVGID_2_">
		<use xlink:href="#SVGID_1_"  overflow="visible"/>
	</clipPath>
	<path clip-path="url(#SVGID_2_)" d="M20.86,24.851c-2.134-0.604-4.13-1.519-5.928-2.74c-1.255-0.854-2.469-1.777-3.645-2.668
		c-1.404-1.067-2.856-2.169-4.365-3.145c-2.062-1.332-4.885-3.155-5.734-6.357C0.951,9.049,0.813,8.267,0.766,7.552
		C0.745,7.227,0.99,6.947,1.315,6.926C1.638,6.905,1.92,7.149,1.941,7.475c0.042,0.638,0.168,1.346,0.385,2.164
		c0.678,2.553,2.772,4.079,5.235,5.67c1.547,0.999,3.017,2.115,4.438,3.194c1.164,0.883,2.366,1.797,3.595,2.633
		c6.25,4.249,15.079,4.559,23.617,0.827c2.509-1.097,4.951-2.466,7.312-3.79c1.529-0.858,3.111-1.745,4.705-2.554
		c2.153-1.091,4.334-1.73,6.307-1.846c1.042-0.063,2.043,0.016,2.974,0.235c1.268,0.299,2.424,0.858,3.443,1.661
		c0.256,0.202,0.3,0.572,0.098,0.827c-0.201,0.255-0.571,0.299-0.827,0.098c-0.884-0.697-1.889-1.182-2.982-1.44
		c-0.819-0.192-1.707-0.261-2.636-0.206c-1.812,0.108-3.833,0.702-5.845,1.721c-1.569,0.798-3.141,1.68-4.661,2.532
		c-2.385,1.337-4.852,2.72-7.416,3.841C33.204,25.873,26.544,26.462,20.86,24.851"/>
	<path clip-path="url(#SVGID_2_)" d="M1.194,8.076C0.962,8.01,0.784,7.804,0.767,7.549c-0.124-1.841,0.344-3.4,1.431-4.765
		C3.894,0.651,5.807-0.172,8.593,0.03c1.863,0.133,3.771,0.475,5.616,0.805c1.047,0.188,2.13,0.383,3.175,0.532
		c1.57,0.227,3.632,0.534,5.671,0.902c2.19,0.394,3.929,1.027,6.336,1.901c2.297,0.835,5.156,1.874,9.627,3.163
		c0.312,0.09,0.492,0.416,0.402,0.729c-0.09,0.312-0.414,0.492-0.726,0.403h-0.002c-4.512-1.301-7.391-2.347-9.705-3.188
		c-2.351-0.854-4.05-1.472-6.142-1.848c-2.021-0.366-4.07-0.671-5.63-0.896c-1.064-0.153-2.158-0.349-3.214-0.539
		c-1.815-0.325-3.692-0.661-5.494-0.79C6.125,1.032,4.564,1.702,3.12,3.516C2.212,4.658,1.837,5.914,1.942,7.47
		c0.022,0.324-0.224,0.605-0.548,0.627C1.325,8.101,1.257,8.094,1.194,8.076"/>
	<path clip-path="url(#SVGID_2_)" d="M65.067,19.04c-0.124-0.035-0.235-0.11-0.316-0.222c-1.169-1.621-2.498-2.537-4.542-3.661
		c-0.044-0.025-0.069-0.036-0.094-0.049c-1.895-1.02-4.029-1.643-6.097-2.245c-0.905-0.264-1.842-0.536-2.749-0.84
		c-2.58-0.861-5.282-1.581-7.893-2.276c-1.539-0.41-3.133-0.834-4.685-1.283c-0.312-0.091-0.493-0.417-0.402-0.73
		c0.091-0.312,0.415-0.49,0.729-0.402c1.542,0.447,3.128,0.869,4.661,1.277c2.629,0.7,5.347,1.424,7.963,2.297
		c0.885,0.296,1.811,0.566,2.706,0.826c2.124,0.62,4.321,1.26,6.305,2.329c0.034,0.017,0.089,0.044,0.143,0.076
		c1.832,1.006,3.48,2.009,4.91,3.991c0.19,0.264,0.131,0.632-0.134,0.822C65.422,19.061,65.234,19.087,65.067,19.04"/>
	<path clip-path="url(#SVGID_2_)" d="M13.906,26.451c-2.098-0.594-4.207-1.311-6.312-2.146l-0.452-0.178
		c-2.487-0.979-4.453-1.751-5.424-4.683c-0.701-2.126-1.346-4.235-1.55-6.659c-0.017-0.191-0.035-0.384-0.054-0.575
		c-0.107-1.098-0.217-2.234,0.065-3.419c0.085-0.356,0.26-0.719,0.428-1.071c0.069-0.143,0.138-0.286,0.199-0.425
		c0.003-0.008,0.006-0.015,0.009-0.023C0.994,6.864,0.986,6.729,0.98,6.696c-0.065-0.319,0.141-0.63,0.46-0.694
		c0.318-0.065,0.63,0.14,0.694,0.459c0.088,0.435-0.066,0.882-0.232,1.265C1.9,7.732,1.897,7.739,1.895,7.746
		c-0.069,0.16-0.148,0.323-0.226,0.487C1.527,8.526,1.38,8.832,1.325,9.065c-0.237,0.994-0.141,1.984-0.039,3.032
		c0.019,0.196,0.038,0.392,0.055,0.589c0.194,2.298,0.817,4.334,1.494,6.39c0.799,2.406,2.366,3.022,4.738,3.955l0.456,0.181
		c3.92,1.554,7.854,2.691,11.69,3.382c1.11,0.2,2.228,0.396,3.351,0.595c7.128,1.258,14.499,2.559,21.357,4.829
		c0.667,0.221,1.332,0.449,1.995,0.676c3.027,1.037,5.887,2.017,8.86,2.359c2.233,0.262,4.286,0.122,6.275-0.431
		c1.131-0.313,2.149-0.94,3.03-1.861c0.589-0.614,1.097-1.348,1.512-2.179c0.36-0.726,0.633-1.369,0.83-1.97
		c0.113-0.345,0.204-0.696,0.272-1.042c0.062-0.318,0.372-0.526,0.69-0.465c0.318,0.064,0.527,0.372,0.466,0.691
		c-0.077,0.394-0.182,0.792-0.31,1.183c-0.216,0.655-0.509,1.35-0.895,2.128c-0.47,0.939-1.045,1.769-1.715,2.467
		c-1.029,1.076-2.229,1.812-3.566,2.184c-2.14,0.593-4.341,0.746-6.726,0.465c-3.1-0.357-6.153-1.404-9.106-2.415
		c-0.66-0.227-1.321-0.452-1.985-0.672c-6.776-2.244-14.104-3.536-21.192-4.787c-1.124-0.199-2.243-0.396-3.354-0.596
		C17.66,27.42,15.787,26.984,13.906,26.451"/>
	<path clip-path="url(#SVGID_2_)" d="M54.685,35.687c-0.709-0.201-1.341-0.625-1.959-1.31c-1.235-1.374-2.2-2.628-2.947-3.836
		c-0.116-0.187-0.227-0.378-0.338-0.569c-0.721-1.285-1.174-2.463-1.397-3.623c-0.232-1.16-0.236-2.354-0.017-3.647
		c0.327-1.886,1.186-3.133,2.095-4.452c0.178-0.258,0.358-0.522,0.541-0.797c0.18-0.271,0.545-0.346,0.815-0.166
		c0.271,0.18,0.347,0.545,0.166,0.816c-0.186,0.281-0.371,0.551-0.553,0.813c-0.87,1.264-1.621,2.354-1.904,3.985
		c-0.194,1.147-0.191,2.2,0.013,3.22c0.199,1.038,0.61,2.102,1.258,3.254c0.107,0.188,0.211,0.366,0.321,0.544
		c0.701,1.135,1.65,2.368,2.822,3.67c0.569,0.63,1.106,0.949,1.741,1.033c0.546,0.071,1.162-0.027,1.874-0.143
		c0.329-0.053,0.674-0.108,1.039-0.153l0.062-0.007c0.103-0.011,0.21-0.022,0.316-0.032c0.324-0.027,0.609,0.212,0.637,0.536
		c0.028,0.323-0.211,0.609-0.536,0.637c-0.096,0.01-0.192,0.02-0.285,0.03l-0.058,0.006c-0.343,0.042-0.673,0.096-0.987,0.146
		c-0.77,0.124-1.496,0.241-2.216,0.147C55.016,35.768,54.849,35.732,54.685,35.687"/>
	<path clip-path="url(#SVGID_2_)" d="M55.404,33.738c-0.273-0.077-0.53-0.188-0.762-0.342c-0.478-0.316-1.052-0.952-1.077-2.181
		c-0.013-0.471,0.104-0.812,0.188-1.062c0.026-0.078,0.053-0.156,0.062-0.205c-0.025-0.028-0.09-0.094-0.244-0.194
		c-0.64-0.421-1.396,0.11-1.725,0.547c-0.194,0.26-0.564,0.312-0.823,0.117c-0.262-0.196-0.312-0.565-0.117-0.825
		c0.732-0.976,2.143-1.595,3.311-0.824c0.364,0.239,0.843,0.633,0.771,1.287c-0.018,0.172-0.069,0.326-0.12,0.475
		c-0.068,0.202-0.132,0.394-0.126,0.657c0.013,0.589,0.192,0.989,0.552,1.228c0.751,0.498,2.188,0.286,3.204-0.119
		c0.302-0.12,0.645,0.026,0.765,0.329c0.12,0.302-0.025,0.645-0.329,0.765C57.937,33.788,56.532,34.059,55.404,33.738"/>
	<path clip-path="url(#SVGID_2_)" d="M58.146,35.333c-0.188-0.053-0.347-0.201-0.405-0.402c-0.091-0.312,0.09-0.64,0.402-0.729
		c0.867-0.251,1.969-1.149,2.226-2.088c0.059-0.219,0.068-0.428,0.028-0.62c-0.084-0.426-0.261-0.713-0.541-0.885
		c-0.361-0.222-0.925-0.251-1.543-0.076c-0.371,0.101-0.74,0.27-1.075,0.487c-0.444,0.29-0.778,0.634-0.94,0.97
		c-0.142,0.293-0.492,0.417-0.786,0.275c-0.293-0.142-0.416-0.493-0.275-0.786c0.326-0.675,0.919-1.159,1.359-1.446
		c0.437-0.284,0.922-0.504,1.403-0.635c0.942-0.266,1.822-0.192,2.474,0.207c0.559,0.343,0.932,0.915,1.079,1.653
		c0.077,0.369,0.061,0.763-0.047,1.163c-0.377,1.384-1.839,2.566-3.034,2.911C58.359,35.364,58.249,35.362,58.146,35.333"/>
	<path clip-path="url(#SVGID_2_)" d="M62.426,34.054c-0.801-0.227-1.407-0.767-1.675-1.5c-0.112-0.305,0.045-0.643,0.35-0.755
		c0.306-0.112,0.644,0.045,0.757,0.351c0.197,0.542,0.698,0.73,0.978,0.795c0.572,0.131,1.206-0.021,1.575-0.378
		c0.053-0.053,0.104-0.113,0.149-0.179c0.509-0.721,0.158-1.224-0.76-2.198c-0.241-0.257-0.49-0.521-0.683-0.791
		c-0.189-0.265-0.128-0.633,0.137-0.821c0.265-0.189,0.632-0.127,0.821,0.137c0.146,0.205,0.357,0.43,0.582,0.668
		c0.789,0.837,1.979,2.103,0.865,3.688c-0.089,0.122-0.181,0.231-0.286,0.337c-0.662,0.639-1.705,0.905-2.664,0.686
		C62.523,34.08,62.474,34.068,62.426,34.054"/>
	<path clip-path="url(#SVGID_2_)" d="M61.896,31.227c-0.229-0.065-0.406-0.269-0.426-0.521c-0.051-0.633,0.143-1.438,0.544-2.267
		c0.402-0.848,1.143-1.93,2.009-2.41c0.131-0.074,0.309-0.144,0.532-0.235c0.231-0.093,0.779-0.315,1.027-0.493
		c-0.077-0.055-0.202-0.131-0.403-0.222c-0.296-0.134-0.427-0.482-0.293-0.778c0.134-0.298,0.484-0.427,0.779-0.294
		c0.318,0.144,1.293,0.585,1.169,1.424c-0.105,0.755-1.066,1.144-1.838,1.456c-0.163,0.065-0.332,0.134-0.401,0.172
		c-0.507,0.28-1.116,1.04-1.519,1.89c-0.306,0.629-0.466,1.249-0.433,1.665c0.026,0.324-0.216,0.608-0.54,0.634
		C62.031,31.252,61.962,31.245,61.896,31.227"/>
	<path clip-path="url(#SVGID_2_)" d="M58.496,31.214c-0.084-0.024-0.164-0.067-0.232-0.129c-0.269-0.241-0.491-0.542-0.645-0.869
		c-0.627-1.337-0.122-2.917,1.151-3.596c0.514-0.272,1.039-0.333,1.502-0.388c0.538-0.062,1.002-0.117,1.423-0.463
		c0.462-0.383,1.015-1.087,1.138-1.449c0.104-0.308,0.438-0.473,0.747-0.368c0.309,0.104,0.474,0.438,0.369,0.746
		c-0.216,0.64-0.935,1.509-1.505,1.979c-0.689,0.567-1.404,0.651-2.034,0.724c-0.414,0.05-0.771,0.09-1.088,0.259
		c-0.8,0.428-0.953,1.381-0.637,2.056c0.088,0.186,0.214,0.356,0.366,0.495c0.24,0.217,0.261,0.589,0.043,0.831
		C58.938,31.214,58.705,31.272,58.496,31.214"/>
	<path clip-path="url(#SVGID_2_)" d="M54.317,26.766c-0.293-0.083-0.478-0.379-0.416-0.684c0.049-0.241,0.134-0.496,0.252-0.757
		c0.359-0.776,0.957-1.459,1.563-1.782c0.967-0.523,1.489-0.311,2.07,0.021c0.166,0.096,0.34,0.194,0.559,0.271l0.38,0.138
		c1.218,0.442,1.722,0.626,2.719-0.056c0.166-0.113,0.312-0.223,0.448-0.324l0.098-0.074c0.866-0.648,1.542-1.153,3.116-0.562
		c0.389,0.149,0.745,0.353,1.122,0.642c0.219,0.167,0.42,0.343,0.612,0.513c0.374,0.328,0.726,0.637,1.139,0.819
		c0.297,0.131,0.433,0.479,0.301,0.775c-0.13,0.299-0.479,0.435-0.774,0.303c-0.58-0.255-1.019-0.64-1.442-1.013
		c-0.186-0.165-0.363-0.319-0.551-0.463c-0.284-0.217-0.546-0.368-0.824-0.474c-0.966-0.364-1.202-0.188-1.979,0.394l-0.11,0.083
		c-0.15,0.111-0.31,0.231-0.49,0.354c-1.495,1.021-2.505,0.655-3.785,0.188l-0.371-0.133c-0.317-0.112-0.557-0.249-0.749-0.358
		c-0.389-0.223-0.459-0.263-0.929-0.009c-0.381,0.204-0.802,0.701-1.05,1.237c-0.079,0.173-0.138,0.347-0.169,0.5
		c-0.065,0.318-0.375,0.524-0.694,0.46C54.347,26.773,54.332,26.77,54.317,26.766"/>
	<path clip-path="url(#SVGID_2_)" d="M52.562,21.918c-0.116-0.032-0.222-0.101-0.302-0.203c-0.201-0.256-0.156-0.626,0.099-0.826
		c1.328-1.04,2.139-0.876,3.351-0.519c0.748,0.217,1.198,0.601,1.596,0.938c0.259,0.219,0.483,0.408,0.763,0.527
		c0.455,0.192,0.825-0.057,1.506-0.632c0.698-0.59,1.755-1.479,2.956-0.335c0.236,0.225,0.244,0.597,0.021,0.833
		c-0.224,0.235-0.597,0.243-0.832,0.02c-0.38-0.361-0.562-0.312-1.384,0.383c-0.656,0.553-1.555,1.312-2.726,0.815
		c-0.445-0.188-0.761-0.456-1.065-0.714c-0.353-0.299-0.656-0.557-1.165-0.705c-1-0.293-1.375-0.403-2.292,0.315
		C52.933,21.937,52.736,21.969,52.562,21.918"/>
	<path clip-path="url(#SVGID_2_)" d="M57.899,21.799c-0.292-0.083-0.477-0.378-0.416-0.682c0.173-0.868,0.937-1.92,1.854-2.556
		c0.417-0.292,0.834-0.477,1.237-0.544c0.97-0.155,1.694-0.037,2.356,0.381c0.359,0.226,0.676,0.517,1.011,0.825
		c0.239,0.22,0.254,0.593,0.035,0.832c-0.221,0.238-0.593,0.255-0.833,0.034c-0.294-0.27-0.572-0.526-0.841-0.694
		c-0.351-0.222-0.744-0.344-1.538-0.217c-0.221,0.038-0.484,0.158-0.754,0.349c-0.658,0.456-1.259,1.255-1.372,1.821
		c-0.064,0.318-0.374,0.525-0.693,0.462C57.931,21.808,57.915,21.803,57.899,21.799"/>
	<path clip-path="url(#SVGID_2_)" d="M64.935,23.385c-0.024-0.007-0.051-0.017-0.076-0.027c-0.659-0.289-1.099-0.879-1.146-1.539
		c-0.023-0.325,0.222-0.605,0.546-0.629c0.324-0.022,0.606,0.221,0.629,0.546c0.016,0.223,0.187,0.431,0.443,0.543
		c0.298,0.13,0.434,0.479,0.303,0.775C65.515,23.326,65.214,23.464,64.935,23.385"/>
	<path clip-path="url(#SVGID_2_)" d="M52.217,19.78c-0.074-0.021-0.146-0.057-0.209-0.108c-0.253-0.204-0.292-0.575-0.088-0.828
		c1.459-1.8,3.443-1.712,5.898,0.259c0.253,0.204,0.294,0.574,0.09,0.828c-0.203,0.253-0.574,0.294-0.828,0.091
		c-1.952-1.569-3.222-1.699-4.244-0.437C52.683,19.773,52.437,19.843,52.217,19.78"/>
	<path clip-path="url(#SVGID_2_)" d="M55.207,30.828c-0.22-0.062-0.393-0.25-0.424-0.492c-0.041-0.322,0.187-0.617,0.51-0.658
		c0.143-0.018,0.268-0.058,0.361-0.113c0.186-0.112,0.253-0.267,0.277-0.377c0.034-0.166-0.006-0.343-0.114-0.499
		c-0.234-0.34-0.895-0.679-1.756-0.906c-0.423-0.117-0.862-0.198-1.209-0.225c-0.165-0.014-0.349-0.024-0.545-0.035
		c-1.197-0.072-2.836-0.169-3.657-0.933c-0.238-0.222-0.252-0.595-0.03-0.832c0.222-0.239,0.595-0.251,0.832-0.03
		c0.511,0.476,2.022,0.564,2.924,0.619c0.207,0.012,0.399,0.023,0.569,0.037c0.416,0.031,0.936,0.128,1.423,0.262
		c0.818,0.215,1.907,0.63,2.418,1.372c0.295,0.423,0.4,0.927,0.296,1.416c-0.102,0.478-0.394,0.884-0.823,1.141
		c-0.236,0.143-0.511,0.233-0.817,0.272C55.36,30.856,55.281,30.85,55.207,30.828"/>
	<path clip-path="url(#SVGID_2_)" d="M54.621,26.174c-0.022-0.007-0.046-0.015-0.069-0.023c-0.038-0.016-0.074-0.029-0.107-0.045
		c-0.724-0.304-1.253-0.846-1.719-1.324c-0.723-0.739-1.292-1.323-2.43-1.119c-0.319,0.057-0.626-0.155-0.683-0.475
		c-0.058-0.32,0.154-0.626,0.475-0.685c1.753-0.314,2.71,0.667,3.479,1.456c0.43,0.441,0.837,0.857,1.346,1.065
		c0.015,0.006,0.027,0.012,0.041,0.019l0.057,0.022c0.299,0.127,0.439,0.472,0.312,0.771C55.206,26.113,54.903,26.254,54.621,26.174
		"/>
	<path clip-path="url(#SVGID_2_)" d="M57.465,26.706c-0.313-0.089-0.495-0.414-0.406-0.727l0.25-0.88
		c0.088-0.313,0.413-0.495,0.726-0.406c0.313,0.089,0.495,0.414,0.407,0.727l-0.25,0.881C58.103,26.613,57.777,26.795,57.465,26.706
		"/>
	<path clip-path="url(#SVGID_2_)" d="M59.063,19.134c-0.13-0.037-0.248-0.118-0.329-0.239c-0.43-0.642-0.271-1.32-0.153-1.814
		c0.092-0.394,0.144-0.645,0.038-0.832c-0.201-0.357-0.839-0.505-1.352-0.623c-0.111-0.028-0.215-0.052-0.312-0.08
		c-0.313-0.089-0.495-0.414-0.407-0.727c0.089-0.313,0.415-0.495,0.727-0.406c0.084,0.024,0.172,0.045,0.265,0.067
		c0.691,0.16,1.649,0.383,2.104,1.189c0.337,0.597,0.196,1.198,0.083,1.681c-0.102,0.43-0.151,0.684-0.014,0.89
		c0.181,0.27,0.107,0.636-0.162,0.817C59.401,19.156,59.224,19.18,59.063,19.134"/>
	<path clip-path="url(#SVGID_2_)" d="M54.765,18.463c-0.282-0.08-0.467-0.36-0.42-0.657c0.074-0.48-0.149-0.968-0.601-1.305
		c-0.26-0.195-0.313-0.564-0.119-0.824c0.195-0.261,0.562-0.314,0.825-0.119c0.805,0.602,1.201,1.51,1.058,2.429
		c-0.05,0.321-0.351,0.541-0.672,0.492C54.812,18.474,54.788,18.469,54.765,18.463"/>
	<path clip-path="url(#SVGID_2_)" d="M66.428,24.771c-0.028-0.008-0.057-0.018-0.084-0.029c-0.296-0.136-0.428-0.484-0.292-0.781
		c0.106-0.237,0.271-0.39,0.394-0.5c0.042-0.039,0.104-0.096,0.117-0.119c0.055-0.137,0.031-0.404-0.062-0.662
		c-0.048-0.135-0.067-0.155-0.166-0.252c-0.071-0.071-0.148-0.149-0.236-0.259c-0.013-0.017-0.024-0.024-0.032-0.032
		c-0.142-0.132-0.285-0.317-0.264-0.68c0.015-0.335,0.233-0.656,0.446-0.966c0.074-0.109,0.187-0.272,0.21-0.332
		c0.103-0.277,0.117-0.59,0.037-0.814c-0.07,0.008-0.177,0.031-0.254,0.047c-0.169,0.036-0.36,0.077-0.565,0.079
		c-0.14,0.004-0.28-0.004-0.417-0.012l-0.139-0.007c-0.165-0.008-0.284-0.002-0.401,0.017c-0.061,0.01-0.14,0.035-0.229,0.062
		c-0.435,0.127-0.766,0.211-1.069,0.125c-0.193-0.056-0.35-0.177-0.442-0.343c-0.158-0.284-0.057-0.642,0.227-0.801
		c0.18-0.099,0.389-0.096,0.558-0.009c0.116-0.021,0.298-0.074,0.396-0.104c0.145-0.042,0.271-0.078,0.38-0.095
		c0.245-0.039,0.469-0.036,0.633-0.03l0.153,0.008c0.107,0.006,0.216,0.013,0.332,0.01c0.096,0,0.22-0.027,0.338-0.053
		c0.381-0.081,1.269-0.27,1.608,0.703c0.176,0.484,0.162,1.08-0.042,1.629c-0.073,0.194-0.203,0.385-0.34,0.585
		c-0.057,0.081-0.137,0.198-0.192,0.292c0.049,0.059,0.094,0.103,0.135,0.143c0.14,0.138,0.312,0.31,0.447,0.696
		c0.112,0.314,0.271,0.935,0.042,1.5c-0.105,0.26-0.283,0.423-0.412,0.541c-0.042,0.039-0.105,0.098-0.118,0.121
		C67.002,24.717,66.702,24.849,66.428,24.771"/>
	<path clip-path="url(#SVGID_2_)" d="M65.356,31.195c-0.138-0.039-0.262-0.128-0.342-0.26c-0.17-0.278-0.081-0.641,0.195-0.81
		c0.064-0.039,0.126-0.121,0.206-0.226c0.07-0.095,0.143-0.187,0.225-0.271c0.229-0.239,0.493-0.366,0.706-0.468
		s0.337-0.166,0.414-0.281c0.062-0.093,0.133-0.215,0.206-0.356c0.229-0.455,0.361-0.949,0.336-1.248
		c-0.014-0.158-0.12-0.265-0.381-0.486c-0.309-0.265-0.733-0.628-0.76-1.283c-0.013-0.325,0.241-0.6,0.566-0.611
		c0.323-0.013,0.598,0.239,0.61,0.564c0.005,0.122,0.087,0.212,0.351,0.437c0.308,0.263,0.729,0.625,0.787,1.278
		c0.063,0.743-0.302,1.566-0.46,1.887c-0.099,0.185-0.189,0.342-0.275,0.473c-0.265,0.391-0.609,0.557-0.885,0.689
		c-0.153,0.073-0.285,0.138-0.368,0.224c-0.049,0.05-0.09,0.107-0.133,0.164c-0.123,0.163-0.276,0.366-0.532,0.521
		C65.677,31.22,65.509,31.238,65.356,31.195"/>
	<path clip-path="url(#SVGID_2_)" d="M0.959,14.338c1.545,2.337,4.107,4.601,14.303,7.285c4.918,2.747,10.331,5.117,17.772,3.041
		c7.564,0.605,15.05,5.229,15.161,1.056c2.067,4.484,2.64,7.776,6.225,9.49c-5.195-0.367-9.861-2.955-16.266-4.387
		c-6.404-1.433-21.144-4.032-24.012-4.917c-2.869-0.884-10.616-2.541-11.867-6.646C1.445,16.531,0.959,14.338,0.959,14.338"/>
	<path clip-path="url(#SVGID_2_)" d="M17.174,14.964c-1.087-0.309-2.257-0.909-2.779-1.879c-0.25-0.465-0.281-0.897-0.306-1.245
		c-0.023-0.324-0.039-0.538-0.197-0.777c-0.258-0.391-1.137-0.919-1.711-1.026c-0.38-0.072-0.63-0.437-0.558-0.817
		c0.071-0.38,0.437-0.63,0.817-0.558c0.85,0.158,2.107,0.853,2.62,1.63c0.36,0.545,0.396,1.046,0.425,1.448
		c0.02,0.279,0.034,0.481,0.143,0.682c0.411,0.765,1.958,1.35,3.089,1.397c0.386,0.016,0.686,0.341,0.67,0.728
		c-0.016,0.386-0.341,0.686-0.728,0.67C18.248,15.2,17.722,15.119,17.174,14.964"/>
	<path clip-path="url(#SVGID_2_)" d="M29.101,17.875c-0.217-0.062-0.4-0.227-0.475-0.457c-0.236-0.725-0.164-1.567,0.189-2.196
		c0.285-0.508,0.74-0.858,1.282-0.988c0.376-0.089,0.753,0.143,0.843,0.519c0.089,0.376-0.143,0.753-0.519,0.843
		c-0.164,0.039-0.29,0.141-0.385,0.31c-0.163,0.291-0.195,0.724-0.08,1.079c0.12,0.368-0.081,0.763-0.448,0.882
		C29.371,17.912,29.23,17.912,29.101,17.875"/>
	<path clip-path="url(#SVGID_2_)" d="M21.061,11.184c-0.535-0.151-0.932-0.482-1.126-0.955c-0.304-0.738-0.049-1.68,0.648-2.4
		c0.27-0.278,0.713-0.285,0.99-0.016c0.278,0.268,0.285,0.711,0.016,0.989c-0.353,0.364-0.423,0.742-0.36,0.895
		c0.066,0.159,0.408,0.179,0.511,0.181c0.386,0.008,0.693,0.327,0.685,0.713c-0.008,0.386-0.327,0.694-0.714,0.686
		C21.478,11.271,21.26,11.24,21.061,11.184"/>
	<path clip-path="url(#SVGID_2_)" d="M40.335,14.239c-0.739-0.209-1.382-0.604-1.979-1.031c-0.734-0.523-1.311-1.112-1.867-1.68
		c-0.133-0.136-0.267-0.273-0.403-0.41c-0.315-0.315-1.179-0.507-1.699-0.274c-0.281,0.126-0.612-0.001-0.738-0.282
		c-0.125-0.281,0.001-0.612,0.282-0.738c0.899-0.401,2.275-0.166,2.945,0.504c0.139,0.14,0.275,0.28,0.412,0.418
		c0.547,0.559,1.062,1.086,1.717,1.553c1.009,0.719,1.859,1.126,2.985,0.93c0.531-0.092,0.881-0.32,1.219-0.541
		c0.793-0.519,1.503-0.835,2.817,0.165c0.246,0.187,0.293,0.537,0.106,0.783c-0.188,0.246-0.537,0.292-0.782,0.106
		c-0.792-0.603-0.963-0.49-1.531-0.119c-0.392,0.256-0.88,0.575-1.639,0.707C41.498,14.448,40.889,14.396,40.335,14.239"/>
</g>
</svg>
